<?xml version="1.0" encoding="utf-8"?>
<!-- Generator: Adobe Illustrator 16.0.0, SVG Export Plug-In . SVG Version: 6.00 Build 0)  -->
<!DOCTYPE svg PUBLIC "-//W3C//DTD SVG 1.1//EN" "http://www.w3.org/Graphics/SVG/1.1/DTD/svg11.dtd">
<svg version="1.1" id="Layer_2" xmlns="http://www.w3.org/2000/svg" xmlns:xlink="http://www.w3.org/1999/xlink" x="0px" y="0px"
	 width="60px" height="60px" viewBox="0 0 60 60" enable-background="new 0 0 60 60" xml:space="preserve">
<g>
	<path d="M4.145,31.833c-1.401-4.508-0.022-9.217,3.156-12.013l-0.799,0.248c-4.262,1.325-6.665,6.026-5.837,10.884
		c-0.588,0.302-0.84,1.212-0.559,2.114c0.293,0.945,1.054,1.527,1.746,1.372c1.99,3.772,5.888,6.104,9.577,5.32l0.011-0.003
		c0.145-0.044,0.311-0.024,0.466-0.037c0.121-0.013,0.242-0.027,0.367-0.028C8.587,38.774,5.405,35.894,4.145,31.833z"/>
	<path d="M41.92,9.179c-0.212-0.284-0.431-0.542-0.647-0.8c-1.166-1.374-2.381-2.395-3.606-3.05
		c-1.521-0.793-3.049-0.994-4.428-0.566c-0.862,0.268-1.625,0.771-2.281,1.48c0,0,0,0-0.01,0.003
		c-0.1,0.116-0.206,0.222-0.306,0.336c-4.088,4.767-9.212,8.435-15.169,10.672c-0.659,0.253-1.34,0.441-2.015,0.65l-4.385,1.363
		c-3.013,2.745-4.391,7.454-2.99,11.96c1.258,4.048,4.353,6.982,7.899,7.931c1.72,0.777,4.722-0.061,4.963,1.337
		c0.254,1.513,0.177,2.585,0.24,3.628c0.03,0.568-0.712,3.882,1.565,11.831c0.069,0.221,0.126,0.406,0.248,0.721
		c0.12,0.312,0.446,0.634,1.1,0.429l7.96-2.475c0.685-0.213,0.892-0.675,0.648-1.32c-0.088-0.205-0.209-0.456-0.305-0.691
		c-1.038-2.46-1.869-1.862-2.82-5.403c-1.026-3.778-0.791-4.444-0.925-5.534c-0.139-1.212,0.021-2.709,0.218-3.724
		c3.225-0.89,10.291-0.872,12.92-0.531c0,0,0.864,0.143,1.226,0.246c0.843,0.148,1.646,0.104,2.413-0.134
		c0.093-0.029,0.188-0.06,0.278-0.099c1.25-0.474,2.176-1.847,2.931-3.26c0.652-1.229,1.062-2.768,1.241-4.56
		c0.03-0.348,0.06-0.694,0.071-1.059c0.141-3.059-0.377-6.625-1.477-10.165C45.379,14.856,43.783,11.615,41.92,9.179z
		 M45.559,29.331c-0.177,2.286-0.749,4.25-1.92,4.614c-1.174,0.361-2.743-0.925-4.188-2.716c-1.682-2.083-3.361-5.359-4.554-9.208
		c-1.206-3.87-1.682-7.531-1.467-10.204c0.179-2.273,0.867-3.826,2.029-4.187c1.171-0.363,2.611,0.538,4.057,2.296
		c1.691,2.079,3.372,5.366,4.577,9.236C45.286,23.012,45.762,26.662,45.559,29.331z"/>
</g>
<polygon points="50.747,2.855 45.934,6.935 46.106,8.425 52.772,5.138 "/>
<polygon points="57.439,31.101 51.282,29.721 50.197,30.758 56.839,34.094 "/>
<polygon points="58.406,14.781 48.913,18.322 48.729,19.812 59.837,17.477 "/>
<path d="M51.531,16.723"/>
</svg>
