<?xml version="1.0" encoding="utf-8"?>
<!-- Generator: Adobe Illustrator 16.0.0, SVG Export Plug-In . SVG Version: 6.00 Build 0)  -->
<!DOCTYPE svg PUBLIC "-//W3C//DTD SVG 1.1//EN" "http://www.w3.org/Graphics/SVG/1.1/DTD/svg11.dtd">
<svg version="1.1" id="Layer_2" xmlns="http://www.w3.org/2000/svg" xmlns:xlink="http://www.w3.org/1999/xlink" x="0px" y="0px"
	 width="60px" height="60px" viewBox="0 0 60 60" enable-background="new 0 0 60 60" xml:space="preserve">
<path d="M30,0L4,15v30l26,15l26-15V15L30,0z M26.576,51.977L9.175,42.005v-20.88l17.401,10.042V51.977z M11.852,16.559L30.035,6.08
	l17.338,10.005L29.256,26.602L11.852,16.559z M50.963,34.611c0.266,0.129,0.561,0.181,0.872,0.173
	c-0.19,0.708-0.414,1.429-0.698,2.17c-0.279,0.735-0.602,1.454-0.945,2.159c-0.308-0.004-0.635,0.045-0.99,0.173
	c-2.1,0.741-4.256,3.586-4.818,6.354c-0.096,0.473-0.132,0.912-0.13,1.312c-1.076,0.92-2.185,1.642-3.278,2.152
	c0.006-0.414-0.033-0.804-0.133-1.154c-0.561-2.023-2.717-2.023-4.818,0c-0.355,0.346-0.687,0.729-0.991,1.136
	c-0.702-0.512-1.255-1.237-1.632-2.149c0.312-0.402,0.604-0.838,0.871-1.319c1.535-2.763,1.537-5.611-0.002-6.354
	c-0.258-0.123-0.547-0.174-0.854-0.172c0.188-0.695,0.411-1.412,0.688-2.142c0.275-0.732,0.599-1.449,0.938-2.146
	c0.307,0.004,0.639-0.047,0.997-0.176c2.099-0.74,4.253-3.587,4.817-6.354c0.099-0.479,0.137-0.922,0.129-1.33
	c1.07-0.907,2.16-1.625,3.257-2.133c-0.005,0.399,0.034,0.781,0.128,1.123c0.562,2.026,2.72,2.026,4.818,0
	c0.362-0.347,0.69-0.731,0.996-1.14c0.711,0.508,1.266,1.226,1.651,2.14c-0.315,0.402-0.608,0.842-0.872,1.319
	C49.428,31.025,49.428,33.871,50.963,34.611z"/>
</svg>
