<?xml version="1.0" encoding="utf-8"?>
<!-- Generator: Adobe Illustrator 16.0.0, SVG Export Plug-In . SVG Version: 6.00 Build 0)  -->
<!DOCTYPE svg PUBLIC "-//W3C//DTD SVG 1.1//EN" "http://www.w3.org/Graphics/SVG/1.1/DTD/svg11.dtd">
<svg version="1.1" id="Layer_1" xmlns="http://www.w3.org/2000/svg" xmlns:xlink="http://www.w3.org/1999/xlink" x="0px" y="0px"
	 width="60px" height="60px" viewBox="0 0 60 60" enable-background="new 0 0 60 60" xml:space="preserve">
<path d="M42.5,22.716h-3.417H18.328l8.436-8.435c0.781-0.781,0.781-2.047,0-2.829c-0.781-0.781-2.048-0.781-2.828,0L12.088,23.299
	c0,0-0.001,0.001-0.002,0.002c-0.011,0.01-0.017,0.022-0.027,0.033c-0.08,0.084-0.156,0.173-0.221,0.271
	c-0.038,0.057-0.064,0.118-0.097,0.177c-0.029,0.056-0.063,0.108-0.088,0.167c-0.031,0.076-0.05,0.154-0.072,0.233
	c-0.013,0.047-0.031,0.091-0.041,0.14c-0.01,0.046-0.01,0.093-0.016,0.139c-0.01,0.085-0.024,0.17-0.024,0.255
	c0,0.132,0.014,0.264,0.04,0.394c0.009,0.044,0.025,0.083,0.037,0.125c0.022,0.082,0.044,0.166,0.077,0.246
	c0.021,0.053,0.053,0.102,0.079,0.151c0.034,0.063,0.063,0.131,0.104,0.192c0.064,0.096,0.139,0.183,0.218,0.266
	c0.011,0.012,0.019,0.025,0.03,0.037L23.934,37.98c0.781,0.78,2.047,0.78,2.828,0c0.781-0.781,0.781-2.05,0-2.828l-8.435-8.437
	h20.84H41h1.583H44.5v20.418c0,1.104,0.896,2,2,2s2-0.896,2-2V26.715v-1.582v-2.417H42.5z"/>
</svg>
