<?xml version="1.0" encoding="utf-8"?>
<!-- Generator: Adobe Illustrator 16.0.0, SVG Export Plug-In . SVG Version: 6.00 Build 0)  -->
<!DOCTYPE svg PUBLIC "-//W3C//DTD SVG 1.1//EN" "http://www.w3.org/Graphics/SVG/1.1/DTD/svg11.dtd">
<svg version="1.1" id="Layer_2" xmlns="http://www.w3.org/2000/svg" xmlns:xlink="http://www.w3.org/1999/xlink" x="0px" y="0px"
	 width="60px" height="60px" viewBox="0 0 60 60" enable-background="new 0 0 60 60" xml:space="preserve">
<path d="M43.664,59.561c-2.676,0.979-6.096,0.315-8.362-1.93c-2.272-2.256-2.913-5.512-1.93-8.337L21.598,37.616
	c-2.851,0.976-6.139,0.347-8.412-1.913c-3.181-3.153-3.181-8.26,0-11.414s8.332-3.154,11.516,0c2.392,2.373,2.982,5.855,1.771,8.781
	l10.979,10.888l0.003-28.653c-0.775-0.379-1.507-0.888-2.154-1.527c-3.178-3.149-3.178-8.258,0-11.414
	c3.184-3.151,8.338-3.151,11.514,0c3.181,3.156,3.181,8.264,0,11.414c-0.787,0.779-1.693,1.369-2.666,1.763v28.916
	c0.973,0.396,1.879,0.979,2.666,1.765c2.41,2.385,2.938,5.973,1.756,8.821C47.336,58.018,46.373,58.572,43.664,59.561z"/>
</svg>
