<?xml version="1.0" encoding="utf-8"?>
<!-- Generator: Adobe Illustrator 16.0.0, SVG Export Plug-In . SVG Version: 6.00 Build 0)  -->
<!DOCTYPE svg PUBLIC "-//W3C//DTD SVG 1.1//EN" "http://www.w3.org/Graphics/SVG/1.1/DTD/svg11.dtd">
<svg version="1.1" id="Layer_2" xmlns="http://www.w3.org/2000/svg" xmlns:xlink="http://www.w3.org/1999/xlink" x="0px" y="0px"
	 width="60px" height="60px" viewBox="0 0 60 60" enable-background="new 0 0 60 60" xml:space="preserve">
<path fill="#010101" d="M6,54.999C6,57.762,8.204,60,10.923,60h38.151C51.797,60,54,57.762,54,54.999V12.5c0-2.764-2.203-5-4.926-5
	H39.045C38.199,3.227,34.468,0,30.001,0s-8.199,3.227-9.046,7.5H10.923C8.203,7.5,6,9.736,6,12.5V54.999z M14.861,13.751h5.908v2.25
	c0,1.524,1.207,2.75,2.709,2.75h13.043c1.504,0,2.709-1.226,2.709-2.75v-2.25h5.908c1.498,0,2.705,1.226,2.705,2.75v34.497
	c0,1.525-1.207,2.751-2.705,2.751H14.861c-1.5,0-2.707-1.228-2.707-2.751V16.5C12.154,14.977,13.361,13.751,14.861,13.751z
	 M26.923,9.375c0-1.725,1.378-3.125,3.076-3.125s3.079,1.4,3.079,3.125S31.697,12.5,29.999,12.5S26.923,11.1,26.923,9.375z"/>
</svg>
