<?xml version="1.0" encoding="utf-8"?>
<!-- Generator: Adobe Illustrator 16.0.0, SVG Export Plug-In . SVG Version: 6.00 Build 0)  -->
<!DOCTYPE svg PUBLIC "-//W3C//DTD SVG 1.1//EN" "http://www.w3.org/Graphics/SVG/1.1/DTD/svg11.dtd">
<svg version="1.1" id="Layer_2" xmlns="http://www.w3.org/2000/svg" xmlns:xlink="http://www.w3.org/1999/xlink" x="0px" y="0px"
	 width="60px" height="60px" viewBox="0 0 60 60" enable-background="new 0 0 60 60" xml:space="preserve">
<g>
	<path d="M46.703,48.321H12.349c-6.602,0-12.178-5.288-12.178-11.548c0-5.644,4.371-10.348,10.078-11.237
		c0.78-7.757,7.854-13.849,16.436-13.849c5.599,0,10.855,2.768,13.846,7.174c0.795-0.202,1.616-0.304,2.457-0.304
		c4.077,0,7.74,2.667,8.978,6.369c4.812,1.933,7.862,6.156,7.862,11.021C59.828,42.771,53.94,48.321,46.703,48.321z M26.685,15.662
		c-6.911,0-12.533,5.07-12.533,11.302c0.016,0.151,0.025,0.28,0.025,0.409v1.984l-1.984,0.003c-4.513,0.008-8.048,3.264-8.048,7.413
		c0,4.105,3.757,7.573,8.204,7.573h34.354c5.046,0,9.15-3.768,9.15-8.399c0-3.443-2.411-6.43-6.142-7.609l-1.137-0.359l-0.219-1.172
		c-0.446-2.397-2.805-4.274-5.368-4.274c-0.877,0-1.716,0.183-2.492,0.543l-1.721,0.798l-0.877-1.682
		C35.829,18.225,31.429,15.662,26.685,15.662z"/>
</g>
</svg>
