<?xml version="1.0" encoding="utf-8"?>
<!-- Generator: Adobe Illustrator 16.0.0, SVG Export Plug-In . SVG Version: 6.00 Build 0)  -->
<!DOCTYPE svg PUBLIC "-//W3C//DTD SVG 1.1//EN" "http://www.w3.org/Graphics/SVG/1.1/DTD/svg11.dtd">
<svg version="1.1" id="Layer_2" xmlns="http://www.w3.org/2000/svg" xmlns:xlink="http://www.w3.org/1999/xlink" x="0px" y="0px"
	 width="60px" height="60px" viewBox="0 0 60 60" enable-background="new 0 0 60 60" xml:space="preserve">
<g>
	<path d="M56,1H16c-2.209,0-4,1.79-4,4v31c0,2.209,1.791,4,4,4h24.833L52.5,48.083L51.666,40H56c2.209,0,4-1.791,4-4V5
		C60,2.79,58.209,1,56,1z M55,33c0,1.104-0.895,2-2,2H19c-1.104,0-2-0.896-2-2V8c0-1.104,0.896-2,2-2h34c1.105,0,2,0.896,2,2V33z"/>
	<path opacity="0.8" d="M34,43.667v0.25c0,1.104-0.896,2-2,2H7c-1.105,0-2-0.896-2-2v-16c0-1.104,0.895-2,2-2h0.333v-5H4
		c-2.209,0-4,1.79-4,4v22c0,2.209,1.791,4,4,4h4.334L7.5,59l11.667-8.083H35c2.209,0,4-1.791,4-4v-3.25H34z"/>
</g>
</svg>
