<?xml version="1.0" encoding="utf-8"?>
<!-- Generator: Adobe Illustrator 16.0.0, SVG Export Plug-In . SVG Version: 6.00 Build 0)  -->
<!DOCTYPE svg PUBLIC "-//W3C//DTD SVG 1.1//EN" "http://www.w3.org/Graphics/SVG/1.1/DTD/svg11.dtd">
<svg version="1.1" id="Layer_2" xmlns="http://www.w3.org/2000/svg" xmlns:xlink="http://www.w3.org/1999/xlink" x="0px" y="0px"
	 width="60px" height="60px" viewBox="0 0 60 60" enable-background="new 0 0 60 60" xml:space="preserve">
<path d="M34,0v26h26V0H34z M53.5,19.5h-13v-13h13V19.5z"/>
<path d="M0,0v26h26V0H0z M19.5,19.5h-13v-13h13V19.5z"/>
<path d="M0,34v26h26V34H0z M19.5,53.5h-13v-13h13V53.5z"/>
<path d="M47,34c-7.182,0-13,5.819-13,13s5.818,13,13,13c7.181,0,13-5.819,13-13S54.181,34,47,34z M47,53.5c-3.59,0-6.5-2.91-6.5-6.5
	s2.91-6.5,6.5-6.5s6.5,2.91,6.5,6.5S50.59,53.5,47,53.5z"/>
</svg>
