<?xml version="1.0" encoding="utf-8"?>
<!-- Generator: Adobe Illustrator 16.0.0, SVG Export Plug-In . SVG Version: 6.00 Build 0)  -->
<!DOCTYPE svg PUBLIC "-//W3C//DTD SVG 1.1//EN" "http://www.w3.org/Graphics/SVG/1.1/DTD/svg11.dtd">
<svg version="1.1" id="Layer_2" xmlns="http://www.w3.org/2000/svg" xmlns:xlink="http://www.w3.org/1999/xlink" x="0px" y="0px"
	 width="60px" height="60px" viewBox="0 0 60 60" enable-background="new 0 0 60 60" xml:space="preserve">
<path d="M54,28.348h6v19.792v4h-4H4H0v-4V11.86v-4h4h24.875v0.008l2.932,2.931l0.006,7.639L27.21,13.86H6v32.281h48V28.348z
	 M40.909,24.137h2.985c0,0.001-1.621-1.068-2.017-3.017h-0.969c-1.108,0-2.046-0.938-2.046-2.046v-2.012
	c0-1.107,0.938-1.982,2.046-1.983h7.014h0.03c1.105,0,1.98,0.875,1.982,1.983v2.013c-0.002,0.013-0.002,0.018,0,0.032h3.02
	c-0.001-0.014,0-0.019-0.001-0.032V17.06c0-0.705-0.146-1.376-0.401-1.981c-0.763-1.781-2.523-3.019-4.6-3.019h-7.045
	c-2.78,0-5.064,2.22-5.064,5v2.014C35.844,21.854,38.128,24.137,40.909,24.137z M55.003,12.06h-3.052c0,0,1.633,1.068,1.986,3.018
	h1.031h0.03c1.108,0.002,1.981,0.875,1.981,1.983v2.013c0,1.107-0.875,2.045-1.979,2.045h-7.048c-1.105,0-2.044-0.937-2.044-2.045
	v-1.983h-3.021v1.983c-0.002,0.722,0.157,1.416,0.435,2.043c0.793,1.775,2.573,3.02,4.63,3.02h7.045
	c2.779,0,5.002-2.283,5.004-5.063V17.06C60.002,14.279,57.779,12.06,55.003,12.06z"/>
</svg>
