<?xml version="1.0" encoding="utf-8"?>
<!-- Generator: Adobe Illustrator 16.0.0, SVG Export Plug-In . SVG Version: 6.00 Build 0)  -->
<!DOCTYPE svg PUBLIC "-//W3C//DTD SVG 1.1//EN" "http://www.w3.org/Graphics/SVG/1.1/DTD/svg11.dtd">
<svg version="1.1" id="Layer_2" xmlns="http://www.w3.org/2000/svg" xmlns:xlink="http://www.w3.org/1999/xlink" x="0px" y="0px"
	 width="60px" height="60px" viewBox="0 0 60 60" enable-background="new 0 0 60 60" xml:space="preserve">
<g>
	<g>
		<polygon points="54,28.348 54,46.141 6,46.141 6,13.86 26.21,13.86 33.1,19.748 33.1,19.752 39.828,19.752 39.828,13.752 
			34.76,13.752 28.875,7.868 28.875,7.86 4,7.86 0,7.86 0,11.86 0,48.141 0,52.141 4,52.141 56,52.141 60,52.141 60,48.141 
			60,28.348 		"/>
	</g>
	<g>
		<path d="M50.45,24.835V20.26c0-0.333,0.021-0.658,0.062-0.975c0.041-0.316,0.112-0.616,0.213-0.9
			c-0.184,0.233-0.399,0.442-0.649,0.625c-0.25,0.184-0.517,0.367-0.8,0.55l-3.95,2.3l-1.476-2.5l3.976-2.3
			c0.3-0.183,0.596-0.333,0.888-0.45c0.291-0.117,0.596-0.2,0.912-0.25c-0.316-0.033-0.621-0.117-0.912-0.25
			c-0.292-0.133-0.588-0.292-0.888-0.475L43.85,13.31l1.449-2.5l3.977,2.35c0.283,0.184,0.554,0.371,0.812,0.562
			c0.259,0.192,0.479,0.404,0.662,0.638c-0.116-0.283-0.196-0.583-0.237-0.9c-0.041-0.316-0.062-0.642-0.062-0.975V7.86h2.95v4.575
			c0,0.35-0.021,0.688-0.062,1.013c-0.042,0.325-0.121,0.629-0.236,0.913c0.183-0.233,0.398-0.446,0.648-0.638
			c0.25-0.191,0.525-0.379,0.825-0.562l3.95-2.3L60,13.36l-3.975,2.275c-0.301,0.184-0.598,0.337-0.889,0.462
			s-0.596,0.212-0.912,0.263c0.566,0.1,1.166,0.333,1.801,0.7L60,19.385l-1.45,2.5l-3.975-2.325c-0.3-0.183-0.575-0.366-0.825-0.55
			c-0.25-0.183-0.475-0.392-0.675-0.625c0.217,0.534,0.325,1.15,0.325,1.85v4.6H50.45z"/>
	</g>
</g>
</svg>
