<?xml version="1.0" encoding="utf-8"?>
<!-- Generator: Adobe Illustrator 16.0.0, SVG Export Plug-In . SVG Version: 6.00 Build 0)  -->
<!DOCTYPE svg PUBLIC "-//W3C//DTD SVG 1.1//EN" "http://www.w3.org/Graphics/SVG/1.1/DTD/svg11.dtd">
<svg version="1.1" id="Layer_2" xmlns="http://www.w3.org/2000/svg" xmlns:xlink="http://www.w3.org/1999/xlink" x="0px" y="0px"
	 width="60px" height="60px" viewBox="0 0 60 60" enable-background="new 0 0 60 60" xml:space="preserve">
<path d="M3,16.162v26.712C3,45.009,4.417,47,6.413,47h32.772C41.182,47,43,45.009,43,42.874V3.648C43,1.529,41.182,0,39.186,0
	H19.802c-0.532,0-1.046,0.016-1.513,0.255c-0.402,0.207-0.757,0.366-1.062,0.701L3.756,13.564c-0.242,0.287-0.451,0.621-0.562,1.084
	C3.065,15.174,3,15.588,3,16.162z M8.151,41.918V17.639h9.767c2.366,0,4.521-2.15,4.521-4.509V5.114H37.85v36.804H8.151
	L8.151,41.918z M57,16.648v39.225C57,58.008,55.182,60,53.186,60H20.413C18.417,60,17,58.008,17,55.873V52h5.151v2.918H51.85V18.114
	H48V13h5.186C55.182,13,57,14.529,57,16.648z"/>
</svg>
