<?xml version="1.0" encoding="utf-8"?>
<!-- Generator: Adobe Illustrator 16.0.0, SVG Export Plug-In . SVG Version: 6.00 Build 0)  -->
<!DOCTYPE svg PUBLIC "-//W3C//DTD SVG 1.1//EN" "http://www.w3.org/Graphics/SVG/1.1/DTD/svg11.dtd">
<svg version="1.1" id="Layer_2" xmlns="http://www.w3.org/2000/svg" xmlns:xlink="http://www.w3.org/1999/xlink" x="0px" y="0px"
	 width="60px" height="60px" viewBox="0 0 60 60" enable-background="new 0 0 60 60" xml:space="preserve">
<path d="M5,16.162v39.712C5,58.009,6.417,60,8.413,60h42.772C53.182,60,55,58.009,55,55.874V3.648C55,1.529,53.182,0,51.186,0
	H21.802c-0.532,0-1.046,0.016-1.513,0.255c-0.402,0.207-0.757,0.366-1.062,0.701L5.756,13.564c-0.242,0.287-0.451,0.621-0.562,1.084
	C5.065,15.174,5,15.588,5,16.162z M10.151,54.918V17.639h9.767c2.366,0,4.522-2.15,4.522-4.509V5.114h25.41v49.804H10.151
	L10.151,54.918z M15.8,28.6h25.401v4.7H15.8V28.6z M15.8,40.4H32V45.1H15.8V40.4z"/>
</svg>
