<?xml version="1.0" encoding="utf-8"?>
<!-- Generator: Adobe Illustrator 16.0.0, SVG Export Plug-In . SVG Version: 6.00 Build 0)  -->
<!DOCTYPE svg PUBLIC "-//W3C//DTD SVG 1.1//EN" "http://www.w3.org/Graphics/SVG/1.1/DTD/svg11.dtd">
<svg version="1.1" id="Layer_2" xmlns="http://www.w3.org/2000/svg" xmlns:xlink="http://www.w3.org/1999/xlink" x="0px" y="0px"
	 width="60px" height="60px" viewBox="0 0 60 60" enable-background="new 0 0 60 60" xml:space="preserve">
<path d="M22,45.151h31.172L41.736,56.586c-0.781,0.781-0.781,2.047,0,2.828s2.048,0.781,2.828,0l14.848-14.847
	c0-0.001,0.001-0.001,0.002-0.002c0.011-0.011,0.018-0.022,0.027-0.032c0.08-0.084,0.156-0.174,0.221-0.271
	c0.038-0.057,0.064-0.116,0.097-0.176c0.029-0.057,0.063-0.108,0.089-0.168c0.03-0.076,0.049-0.153,0.071-0.231
	c0.013-0.048,0.031-0.093,0.041-0.142c0.011-0.045,0.011-0.093,0.017-0.139C59.986,43.32,60,43.235,60,43.15
	c0-0.132-0.014-0.264-0.04-0.395c-0.009-0.043-0.024-0.082-0.037-0.125c-0.022-0.082-0.044-0.166-0.077-0.246
	c-0.021-0.053-0.053-0.102-0.078-0.151c-0.035-0.063-0.063-0.131-0.104-0.192c-0.063-0.096-0.14-0.183-0.218-0.266
	c-0.012-0.012-0.02-0.025-0.03-0.037L44.564,26.886c-0.78-0.781-2.047-0.781-2.828,0c-0.78,0.781-0.78,2.049,0,2.828l11.437,11.437
	H22c-1.105,0-2,0.896-2,2S20.895,45.151,22,45.151z M30.167,60H8.413C6.417,60,5,58.009,5,55.874V16.162
	c0-0.574,0.065-0.988,0.194-1.514c0.111-0.463,0.32-0.797,0.562-1.084L19.227,0.956c0.305-0.335,0.66-0.494,1.062-0.701
	C20.756,0.016,21.27,0,21.802,0h29.384C53.182,0,55,1.529,55,3.648v16.519h-5.15V5.114H24.439v8.016
	c0,2.359-2.155,4.509-4.521,4.509h-9.767v37.279h20.016V60z"/>
</svg>
