<?xml version="1.0" encoding="utf-8"?>
<!-- Generator: Adobe Illustrator 16.0.0, SVG Export Plug-In . SVG Version: 6.00 Build 0)  -->
<!DOCTYPE svg PUBLIC "-//W3C//DTD SVG 1.1//EN" "http://www.w3.org/Graphics/SVG/1.1/DTD/svg11.dtd">
<svg version="1.1" id="Layer_2" xmlns="http://www.w3.org/2000/svg" xmlns:xlink="http://www.w3.org/1999/xlink" x="0px" y="0px"
	 width="60px" height="60px" viewBox="0 0 60 60" enable-background="new 0 0 60 60" xml:space="preserve">
<g>
	<path d="M58.85,24.973c0,0-8.479-14.281-8.551-14.396l-0.012-0.018C49.354,9.102,47.741,8.104,45.881,8H14.118
		c-1.857,0.104-3.473,1.1-4.404,2.559H9.712l-0.01,0.018c-0.074,0.115-8.55,14.396-8.55,14.396c-0.604,1.006-1.142,2.34-1.151,3.658
		c-0.019,1.898,0.901,3.592,2.335,4.654L24.5,49.848C26.245,51.087,27.936,52,30,52c2.065,0,3.757-0.913,5.5-2.152l22.164-16.562
		c1.435-1.062,2.354-2.756,2.335-4.654C59.986,27.312,59.451,25.979,58.85,24.973z M37.555,28.479l-0.021,0.373l-0.208,0.015
		c-0.132,0.006-0.341,0.024-0.61,0.046c-1.049,0.087-3.006,0.251-5.257,0.251c-2.69,0-5.194-0.147-5.223-0.147l-0.06-0.004
		l-1.225-0.813c-0.229-0.153-0.333-0.222-0.55-0.222c-0.135,0-0.229,0.027-0.284,0.086c-0.134,0.129-0.126,0.449-0.124,0.701v0.133
		c0,1.348,0,3.385,1.072,4.547c0.799,0.886,2.308,1.293,4.738,1.293c3.368,0,6.113-0.579,6.138-0.584l0.235-0.053l0.421,2.207
		l-0.193,0.062c-0.104,0.027-2.536,0.746-6.45,0.746c-6.165,0-8.915-1.305-8.915-9.07c0-2.372,0.346-4.574,0.925-5.9
		c1.153-2.636,3.847-3.174,7.54-3.174c2.713,0,5.416,0.221,6.744,1.82c0.979,1.227,1.376,2.918,1.376,5.846
		C37.62,27.256,37.589,27.85,37.555,28.479z"/>
	<path d="M29.725,21.279c-5.352,0-5.469,0.813-5.686,5.312c1.814,0.265,3.795,0.306,4.837,0.306c0.36,0,0.575-0.004,0.575-0.004
		h0.005h0.006c0,0,0.498,0.012,1.239,0.012c1.084,0,2.622-0.024,3.918-0.141C34.598,21.788,33.646,21.279,29.725,21.279z"/>
</g>
</svg>
