<?xml version="1.0" encoding="utf-8"?>
<!-- Generator: Adobe Illustrator 16.0.0, SVG Export Plug-In . SVG Version: 6.00 Build 0)  -->
<!DOCTYPE svg PUBLIC "-//W3C//DTD SVG 1.1//EN" "http://www.w3.org/Graphics/SVG/1.1/DTD/svg11.dtd">
<svg version="1.1" id="Layer_1" xmlns="http://www.w3.org/2000/svg" xmlns:xlink="http://www.w3.org/1999/xlink" x="0px" y="0px"
	 width="60px" height="60px" viewBox="0 0 60 60" enable-background="new 0 0 60 60" xml:space="preserve">
<g>
	<g>
		<path d="M40.309,20.115c-1.146-0.998-2.883-0.88-3.882,0.265l-16.01,19.345l-5.483-4.783c-1.145-0.998-2.882-0.879-3.88,0.266
			c-0.999,1.145-0.879,2.881,0.264,3.881l7.512,6.551c0.015,0.014,0.026,0.029,0.041,0.043c0.573,0.5,1.295,0.719,1.999,0.67
			c0.704-0.043,1.391-0.359,1.891-0.934c0.014-0.018,0.023-0.039,0.039-0.057l17.773-21.365
			C41.568,22.851,41.452,21.114,40.309,20.115z"/>
		<path d="M39.531,35.952c-0.949,0-1.719,0.769-1.719,1.719v1.704v0.645v11.043c0,3.037-2.463,5.5-5.5,5.5H8.938
			c-3.038,0-5.5-2.463-5.5-5.5V27.688c0-3.038,2.462-5.5,5.5-5.5h11.026c0,0,0.001,0,0.003,0h2.35c0.95,0,1.719-0.769,1.719-1.719
			c0-0.949-0.77-1.719-1.719-1.719h-1.691h-0.659H6.875C3.078,18.75,0,21.829,0,25.625v27.5C0,56.923,3.078,60,6.875,60h27.5
			c3.796,0,6.875-3.077,6.875-6.875V40.02v-0.645v-1.704C41.25,36.721,40.48,35.952,39.531,35.952z"/>
	</g>
</g>
<g>
	<path d="M41.542,0h18.285L60,5.494h-0.774c-0.379-1.726-0.86-2.85-1.443-3.371c-0.586-0.521-1.815-0.781-3.688-0.781h-1.8V17.89
		c0,1.246,0.194,2.019,0.584,2.315c0.39,0.299,1.242,0.495,2.558,0.589v0.6h-9.426v-0.6c1.368-0.105,2.221-0.331,2.559-0.676
		c0.336-0.345,0.505-1.215,0.505-2.607V1.342h-1.816c-1.79,0-3.008,0.257-3.655,0.773s-1.135,1.642-1.46,3.378h-0.79L41.542,0z"/>
</g>
</svg>
