<?xml version="1.0" encoding="utf-8"?>
<!-- Generator: Adobe Illustrator 16.0.0, SVG Export Plug-In . SVG Version: 6.00 Build 0)  -->
<!DOCTYPE svg PUBLIC "-//W3C//DTD SVG 1.1//EN" "http://www.w3.org/Graphics/SVG/1.1/DTD/svg11.dtd">
<svg version="1.1" id="Layer_1" xmlns="http://www.w3.org/2000/svg" xmlns:xlink="http://www.w3.org/1999/xlink" x="0px" y="0px"
	 width="60px" height="60px" viewBox="0 0 60 60" enable-background="new 0 0 60 60" xml:space="preserve">
<g>
	<polygon points="51.562,8.688 51.562,0 45.209,0 45.209,8.688 36.771,8.688 36.771,14.934 45.209,14.934 45.209,23.229 
		51.562,23.229 51.562,14.934 60,14.934 60,8.688 	"/>
	<path d="M34.576,21.312c-1.025,0-1.858,0.824-1.857,1.842v14.929v9.021v0.002c0,5.088-4.162,9.211-9.298,9.211
		c-5.135,0-9.297-4.123-9.297-9.211c0-0.002,0-0.004,0-0.006v-9.017v-7.569v-7.356c0-3.053,2.497-5.527,5.578-5.526
		c3.081,0,5.579,2.474,5.579,5.526l-0.002,7.354V41.9l0.002,5.205c0,1.016-0.834,1.844-1.86,1.844s-1.858-0.827-1.858-1.844V41.9
		V24.999c0-1.019-0.834-1.842-1.858-1.842c-1.026,0-1.86,0.823-1.86,1.842v22.106c0,3.053,2.498,5.524,5.578,5.525
		c3.079,0,5.577-2.474,5.577-5.525V23.156v0.001c0-5.089-4.161-9.214-9.296-9.214c-5.138,0-9.298,4.125-9.298,9.211
		c0,0.005,0,0.007,0,0.01v23.934c0,0.004,0,0.006,0,0.01c0,7.121,5.828,12.896,13.016,12.896c7.189,0,13.018-5.771,13.018-12.896
		V23.158C36.438,22.137,35.605,21.312,34.576,21.312z"/>
</g>
</svg>
