<?xml version="1.0" encoding="utf-8"?>
<!-- Generator: Adobe Illustrator 16.0.0, SVG Export Plug-In . SVG Version: 6.00 Build 0)  -->
<!DOCTYPE svg PUBLIC "-//W3C//DTD SVG 1.1//EN" "http://www.w3.org/Graphics/SVG/1.1/DTD/svg11.dtd">
<svg version="1.1" id="Layer_1" xmlns="http://www.w3.org/2000/svg" xmlns:xlink="http://www.w3.org/1999/xlink" x="0px" y="0px"
	 width="60px" height="60px" viewBox="0 0 60 60" enable-background="new 0 0 60 60" xml:space="preserve">
<g>
	<polygon points="51.573,8.675 51.573,0 45.229,0 45.229,8.675 36.8,8.675 36.8,14.914 45.229,14.914 45.229,23.2 51.573,23.2 
		51.573,14.914 60,14.914 60,8.675 	"/>
	<path d="M25.428,18v5.125c0,1.375-1.104,2.49-2.471,2.49c-1.364,0-2.471-1.114-2.471-2.49V18.01C8.966,19.094,0,27.532,0,37.782
		c0,8.923,6.555,19.165,15.908,21.687C18.074,60.053,20.613,60,23,60c2.059,0,4.426,0,6.325-0.438C39.143,57.293,46,46.99,46,37.783
		C46,27.506,36.988,19.049,25.428,18z M30.954,48.018H15.046c-5.61,0-10.159-4.584-10.159-10.234
		c0-5.652,4.549-10.236,10.159-10.236h15.908c5.61,0,10.159,4.583,10.159,10.236C41.113,43.436,36.564,48.018,30.954,48.018z
		 M15.732,31.025c-0.635,0-1.149,0.52-1.149,1.158v9.851c0,0.64,0.515,1.159,1.149,1.159c0.636,0,1.15-0.521,1.15-1.159v-9.851
		C16.883,31.545,16.368,31.025,15.732,31.025z M31.055,31.014c-0.636,0-1.15,0.521-1.15,1.159v9.851c0,0.641,0.515,1.158,1.15,1.158
		s1.149-0.52,1.149-1.158v-9.851C32.204,31.532,31.688,31.014,31.055,31.014z"/>
</g>
</svg>
