<?xml version="1.0" encoding="utf-8"?>
<!-- Generator: Adobe Illustrator 16.0.0, SVG Export Plug-In . SVG Version: 6.00 Build 0)  -->
<!DOCTYPE svg PUBLIC "-//W3C//DTD SVG 1.1//EN" "http://www.w3.org/Graphics/SVG/1.1/DTD/svg11.dtd">
<svg version="1.1" id="Layer_1" xmlns="http://www.w3.org/2000/svg" xmlns:xlink="http://www.w3.org/1999/xlink" x="0px" y="0px"
	 width="60px" height="60px" viewBox="0 0 60 60" enable-background="new 0 0 60 60" xml:space="preserve">
<g>
	<polygon points="51.573,8.676 51.573,0 45.229,0 45.229,8.676 36.8,8.676 36.8,14.914 45.229,14.914 45.229,23.2 51.573,23.2 
		51.573,14.914 60,14.914 60,8.676 	"/>
	<path d="M30.208,59.656c-2.062,0.766-4.699,0.248-6.446-1.504c-1.753-1.76-2.244-4.299-1.486-6.504l-9.077-9.107
		c-2.196,0.762-4.73,0.271-6.483-1.492c-2.451-2.46-2.451-6.443,0-8.902c2.452-2.461,6.424-2.461,8.877,0
		c1.844,1.852,2.299,4.567,1.365,6.85l8.465,8.492l0.001-22.35c-0.597-0.297-1.161-0.693-1.659-1.191
		c-2.449-2.458-2.449-6.442,0-8.903c2.453-2.458,6.428-2.458,8.875,0c2.45,2.461,2.45,6.446,0,8.903
		c-0.606,0.607-1.307,1.066-2.056,1.375v22.555c0.749,0.309,1.446,0.764,2.056,1.376c1.857,1.86,2.264,4.659,1.354,6.881
		C33.038,58.453,32.296,58.887,30.208,59.656z"/>
</g>
</svg>
