<?xml version="1.0" encoding="utf-8"?>
<!-- Generator: Adobe Illustrator 16.0.0, SVG Export Plug-In . SVG Version: 6.00 Build 0)  -->
<!DOCTYPE svg PUBLIC "-//W3C//DTD SVG 1.1//EN" "http://www.w3.org/Graphics/SVG/1.1/DTD/svg11.dtd">
<svg version="1.1" id="Layer_1" xmlns="http://www.w3.org/2000/svg" xmlns:xlink="http://www.w3.org/1999/xlink" x="0px" y="0px"
	 width="60px" height="60px" viewBox="0 0 60 60" enable-background="new 0 0 60 60" xml:space="preserve">
<g>
	<polygon points="51.573,8.675 51.573,0 45.229,0 45.229,8.675 36.8,8.675 36.8,14.914 45.229,14.914 45.229,23.2 51.573,23.2 
		51.573,14.914 60,14.914 60,8.675 	"/>
</g>
<g>
	<path d="M22.982,18.537H4.524v18.457l22.604,22.606l18.458-18.458L22.982,18.537z M12.942,30.324c-1.861,0-3.368-1.508-3.368-3.368
		c0-1.861,1.508-3.369,3.368-3.369c1.859,0,3.369,1.508,3.369,3.369C16.311,28.816,14.801,30.324,12.942,30.324z"/>
</g>
</svg>
