<?xml version="1.0" encoding="utf-8"?>
<!-- Generator: Adobe Illustrator 16.0.0, SVG Export Plug-In . SVG Version: 6.00 Build 0)  -->
<!DOCTYPE svg PUBLIC "-//W3C//DTD SVG 1.1//EN" "http://www.w3.org/Graphics/SVG/1.1/DTD/svg11.dtd">
<svg version="1.1" id="Layer_1" xmlns="http://www.w3.org/2000/svg" xmlns:xlink="http://www.w3.org/1999/xlink" x="0px" y="0px"
	 width="60px" height="60px" viewBox="0 0 60 60" enable-background="new 0 0 60 60" xml:space="preserve">
<g>
	<circle cx="22.521" cy="28.036" r="10.261"/>
	<path d="M33.068,38.598c-2.765,2.582-6.465,4.174-10.546,4.174c-4.082,0-7.782-1.592-10.547-4.174
		C6.09,40.788,1.89,46.439,1.89,53.086v5.159h41.264v-5.159C43.154,46.439,38.954,40.788,33.068,38.598z"/>
</g>
<path d="M59.79,10.967c-0.51,0.009-1.025-0.05-1.541-0.189c-2.987-0.814-4.761-3.938-3.96-6.98c0.139-0.523,0.349-1.007,0.609-1.45
	C53.703,1.346,52.337,0.557,50.859,0c-0.247,0.447-0.553,0.871-0.926,1.252c-2.188,2.225-5.733,2.225-7.92,0
	c-0.369-0.376-0.672-0.794-0.916-1.236c-1.47,0.56-2.826,1.349-4.014,2.347c0.263,0.445,0.475,0.932,0.611,1.458
	c0.801,3.04-0.972,6.165-3.96,6.979c-0.511,0.14-1.022,0.197-1.527,0.19C32.08,11.759,32,12.543,32,13.347
	c0,0.803,0.082,1.585,0.207,2.351c0.497-0.007,1.002,0.05,1.507,0.19c2.987,0.812,4.761,3.938,3.96,6.977
	c-0.139,0.522-0.348,1.004-0.606,1.449c1.189,1.003,2.55,1.799,4.022,2.362c0.247-0.447,0.551-0.868,0.922-1.247
	c2.188-2.226,5.732-2.226,7.92,0c0.377,0.384,0.685,0.812,0.932,1.263c1.483-0.56,2.854-1.353,4.051-2.36
	c-0.257-0.44-0.466-0.923-0.603-1.442c-0.802-3.041,0.973-6.167,3.959-6.98c0.51-0.138,1.018-0.196,1.519-0.188
	C59.918,14.948,60,14.158,60,13.349C60,12.534,59.918,11.742,59.79,10.967z M46,20.163c-3.7,0-6.699-3.051-6.699-6.816
	C39.301,9.581,42.3,6.53,46,6.53c3.698,0,6.697,3.05,6.697,6.816C52.698,17.111,49.699,20.163,46,20.163z"/>
</svg>
