<?xml version="1.0" encoding="utf-8"?>
<!-- Generator: Adobe Illustrator 16.0.0, SVG Export Plug-In . SVG Version: 6.00 Build 0)  -->
<!DOCTYPE svg PUBLIC "-//W3C//DTD SVG 1.1//EN" "http://www.w3.org/Graphics/SVG/1.1/DTD/svg11.dtd">
<svg version="1.1" id="Layer_1" xmlns="http://www.w3.org/2000/svg" xmlns:xlink="http://www.w3.org/1999/xlink" x="0px" y="0px"
	 width="60px" height="60px" viewBox="0 0 60 60" enable-background="new 0 0 60 60" xml:space="preserve">
<path d="M35.799,40.941c-4.431,0-8.035-3.603-8.035-8.03c0-4.43,3.604-8.034,8.035-8.034c4.43,0,8.034,3.604,8.034,8.034
	C43.833,37.339,40.229,40.941,35.799,40.941z M35.799,28.303c-2.541,0-4.609,2.067-4.609,4.608c0,2.539,2.068,4.604,4.609,4.604
	s4.608-2.065,4.608-4.604C40.407,30.37,38.34,28.303,35.799,28.303z M17,30.053c-4.402,0-7.984-3.582-7.984-7.984
	c0-4.402,3.582-7.983,7.984-7.983s7.984,3.581,7.984,7.983C24.984,26.471,21.402,30.053,17,30.053z M17,17.512
	c-2.513,0-4.558,2.044-4.558,4.557c0,2.513,2.045,4.558,4.558,4.558s4.558-2.045,4.558-4.558C21.558,19.556,19.513,17.512,17,17.512
	z M51.979,59.943H19.621v-5.332c0-5.214,3.289-9.941,8.184-11.764l0.994-0.369l0.774,0.724c1.702,1.592,3.912,2.468,6.224,2.468
	c2.315,0,4.524-0.876,6.222-2.467l0.773-0.726l0.994,0.37c4.9,1.822,8.192,6.55,8.192,11.764V59.943z M23.047,56.518h25.506v-1.906
	c0-3.463-1.999-6.63-5.062-8.163c-2.196,1.715-4.888,2.647-7.693,2.647c-2.802,0-5.494-0.933-7.693-2.647
	c-3.061,1.532-5.057,4.7-5.057,8.163V56.518z M16.483,49.021H0.298v-5.285c0-5.159,3.257-9.84,8.105-11.647l0.994-0.371l0.774,0.725
	c1.677,1.568,3.857,2.432,6.14,2.432c1.683,0,3.33-0.475,4.761-1.374l2.16-1.355l0.438,2.513c0.165,0.944,0.494,1.864,0.979,2.733
	l0.927,1.663L23.826,39.8c-2.089,0.892-3.885,2.339-5.194,4.188c-0.82,1.158-1.426,2.43-1.8,3.778L16.483,49.021z M3.724,45.596
	h10.213c0.471-1.266,1.106-2.469,1.898-3.587c1.334-1.885,3.064-3.444,5.062-4.577c-0.001-0.004-0.003-0.008-0.005-0.013
	c-1.452,0.58-3.005,0.881-4.582,0.881c-2.772,0-5.433-0.92-7.607-2.61c-3.015,1.516-4.98,4.638-4.98,8.047V45.596z M51.573,8.675V0
	h-6.345v8.675H36.8v6.239h8.429V23.2h6.345v-8.286H60V8.675H51.573z"/>
</svg>
