<?xml version="1.0" encoding="utf-8"?>
<!-- Generator: Adobe Illustrator 16.0.0, SVG Export Plug-In . SVG Version: 6.00 Build 0)  -->
<!DOCTYPE svg PUBLIC "-//W3C//DTD SVG 1.1//EN" "http://www.w3.org/Graphics/SVG/1.1/DTD/svg11.dtd">
<svg version="1.1" id="Layer_1" xmlns="http://www.w3.org/2000/svg" xmlns:xlink="http://www.w3.org/1999/xlink" x="0px" y="0px"
	 width="60px" height="60px" viewBox="0 0 60 60" enable-background="new 0 0 60 60" xml:space="preserve">
<g>
	<g id="Layer_1_1_">
		<polygon points="23.218,17.792 2.204,38.807 11.209,38.807 11.209,47.812 35.227,47.812 35.227,38.807 44.232,38.807 		"/>
		<path d="M11.209,50.812h24.018v6.006H11.209V50.812z"/>
	</g>
</g>
<g>
	<g>
		<path d="M59.454,0.791c-0.665-0.578-1.671-0.51-2.251,0.154l-9.282,11.216l-3.179-2.773c-0.664-0.579-1.671-0.51-2.25,0.154
			s-0.51,1.67,0.153,2.25l4.355,3.798c0.009,0.008,0.015,0.017,0.023,0.025c0.332,0.29,0.751,0.417,1.159,0.389
			c0.408-0.025,0.807-0.208,1.097-0.542c0.008-0.01,0.014-0.022,0.022-0.033L59.607,3.042C60.185,2.378,60.117,1.371,59.454,0.791z"
			/>
		<path d="M58.453,9.974c-0.551,0-1.446,0.446-1.446,0.997v0.988v0.374v5.402c0,1.761-1.428,3.189-3.188,3.189H42.266
			c-1.762,0-3.188-1.428-3.188-3.189V6.182c0-1.761,1.427-3.189,3.188-3.189h5.393c0,0,0.001,0,0.002,0h1.362
			c0.552,0,0.997-0.896,0.997-1.446C50.02,0.997,49.572,0,49.022,0h-0.98H47.66h-7.591c-2.201,0-3.985,1.785-3.985,3.986v15.944
			c0,2.202,1.784,3.986,3.985,3.986h15.944c2.201,0,3.986-1.784,3.986-3.986v-7.599v-0.374V10.97
			C60,10.419,59.003,9.974,58.453,9.974z"/>
	</g>
</g>
</svg>
