<?xml version="1.0" encoding="utf-8"?>
<!-- Generator: Adobe Illustrator 16.0.0, SVG Export Plug-In . SVG Version: 6.00 Build 0)  -->
<!DOCTYPE svg PUBLIC "-//W3C//DTD SVG 1.1//EN" "http://www.w3.org/Graphics/SVG/1.1/DTD/svg11.dtd">
<svg version="1.1" id="Layer_1" xmlns="http://www.w3.org/2000/svg" xmlns:xlink="http://www.w3.org/1999/xlink" x="0px" y="0px"
	 width="60px" height="60px" viewBox="0 0 60 60" enable-background="new 0 0 60 60" xml:space="preserve">
<g>
	<polygon points="51.562,8.688 51.562,0 45.209,0 45.209,8.688 36.771,8.688 36.771,14.934 45.209,14.934 45.209,23.229 
		51.562,23.229 51.562,14.934 60,14.934 60,8.688 	"/>
	<g>
		<polygon points="54,32.348 54,50.141 6,50.141 6,17.86 20.21,17.86 27.1,23.748 27.1,23.752 32.828,23.752 32.828,17.752 
			28.76,17.752 22.875,11.868 22.875,11.86 4,11.86 0,11.86 0,15.86 0,52.141 0,56.141 4,56.141 56,56.141 60,56.141 60,52.141 
			60,32.348 		"/>
	</g>
</g>
</svg>
