<?xml version="1.0" encoding="utf-8"?>
<!-- Generator: Adobe Illustrator 16.0.0, SVG Export Plug-In . SVG Version: 6.00 Build 0)  -->
<!DOCTYPE svg PUBLIC "-//W3C//DTD SVG 1.1//EN" "http://www.w3.org/Graphics/SVG/1.1/DTD/svg11.dtd">
<svg version="1.1" id="Layer_1" xmlns="http://www.w3.org/2000/svg" xmlns:xlink="http://www.w3.org/1999/xlink" x="0px" y="0px"
	 width="60px" height="60px" viewBox="0 0 60 60" enable-background="new 0 0 60 60" xml:space="preserve">
<g>
	<polygon points="51.573,8.675 45.229,8.675 36.8,8.675 36.8,14.914 45.229,14.914 51.573,14.914 60,14.914 60,8.675 	"/>
</g>
<path d="M23.452,15.854l7.491,13.762l15.557,2.79L35.573,43.698l2.123,15.486l-14.244-6.781l-14.245,6.78l2.125-15.485L0.404,32.405
	l15.557-2.791L23.452,15.854z"/>
<g display="none">
	<polygon display="inline" points="51.573,8.675 51.573,0 45.229,0 45.229,8.675 36.8,8.675 36.8,14.914 45.229,14.914 45.229,23.2 
		51.573,23.2 51.573,14.914 60,14.914 60,8.675 	"/>
</g>
</svg>
