<?xml version="1.0" encoding="utf-8"?>
<!-- Generator: Adobe Illustrator 16.0.0, SVG Export Plug-In . SVG Version: 6.00 Build 0)  -->
<!DOCTYPE svg PUBLIC "-//W3C//DTD SVG 1.1//EN" "http://www.w3.org/Graphics/SVG/1.1/DTD/svg11.dtd">
<svg version="1.1" id="Layer_1" xmlns="http://www.w3.org/2000/svg" xmlns:xlink="http://www.w3.org/1999/xlink" x="0px" y="0px"
	 width="60px" height="60px" viewBox="0 0 60 60" enable-background="new 0 0 60 60" xml:space="preserve">
<g>
	<polygon points="51.562,8.688 51.562,0 45.209,0 45.209,8.688 36.771,8.688 36.771,14.934 45.209,14.934 45.209,23.229 
		51.562,23.229 51.562,14.934 60,14.934 60,8.688 	"/>
	<path d="M45.85,31.167v23.751H5.151V17.639h9.767c2.366,0,4.521-2.15,4.521-4.509V5.114h13.727V0H16.802
		c-0.532,0-1.046,0.016-1.513,0.255c-0.402,0.207-0.757,0.366-1.062,0.701L0.756,13.564c-0.242,0.287-0.451,0.621-0.562,1.084
		C0.065,15.174,0,15.588,0,16.162v39.712C0,58.009,1.417,60,3.413,60h43.772C49.182,60,51,58.009,51,55.874V31.167H45.85z"/>
</g>
</svg>
