<?xml version="1.0" encoding="utf-8"?>
<!-- Generator: Adobe Illustrator 16.0.0, SVG Export Plug-In . SVG Version: 6.00 Build 0)  -->
<!DOCTYPE svg PUBLIC "-//W3C//DTD SVG 1.1//EN" "http://www.w3.org/Graphics/SVG/1.1/DTD/svg11.dtd">
<svg version="1.1" id="Layer_1" xmlns="http://www.w3.org/2000/svg" xmlns:xlink="http://www.w3.org/1999/xlink" x="0px" y="0px"
	 width="60px" height="60px" viewBox="0 0 60 60" enable-background="new 0 0 60 60" xml:space="preserve">
<g>
	<g>
		<path d="M40.309,20.115c-1.146-0.998-2.883-0.88-3.882,0.265l-16.01,19.345l-5.483-4.783c-1.145-0.998-2.882-0.879-3.88,0.266
			c-0.999,1.145-0.879,2.881,0.264,3.881l7.512,6.551c0.015,0.014,0.026,0.029,0.041,0.043c0.573,0.5,1.295,0.719,1.999,0.67
			c0.704-0.043,1.391-0.359,1.891-0.934c0.014-0.018,0.023-0.039,0.039-0.057l17.772-21.365
			C41.568,22.851,41.452,21.114,40.309,20.115z"/>
		<path d="M39.531,35.952c-0.949,0-1.719,0.769-1.719,1.719v1.704v0.645v11.043c0,3.037-2.463,5.5-5.5,5.5H8.938
			c-3.038,0-5.5-2.463-5.5-5.5V27.688c0-3.038,2.462-5.5,5.5-5.5h11.026c0,0,0.001,0,0.003,0h2.35c0.95,0,1.719-0.769,1.719-1.719
			c0-0.949-0.77-1.719-1.719-1.719h-1.691h-0.659H6.875C3.078,18.75,0,21.829,0,25.625v27.5C0,56.923,3.078,60,6.875,60h27.5
			c3.796,0,6.875-3.077,6.875-6.875V40.02v-0.645v-1.704C41.25,36.721,40.48,35.952,39.531,35.952z"/>
	</g>
</g>
<path d="M53.828,14.9h-8.691c-2.534,0-4.732-1.536-5.712-3.725c-0.341-0.775-0.537-1.631-0.534-2.523l0.001-2.444h3.726
	l-0.002,2.446c0.002,1.366,1.158,2.522,2.522,2.522h8.694c1.365,0,2.443-1.156,2.443-2.522V6.17
	c-0.001-1.367-1.078-2.444-2.445-2.445l-0.038,0h-1.273C52.084,1.32,50.066,0,50.066,0h3.764C57.261,0.002,60,2.738,60,6.17
	l-0.002,2.482C59.998,12.084,57.26,14.9,53.828,14.9z M37.642,11.176h-1.195c-1.368,0-2.522-1.155-2.522-2.522V6.17
	c0-1.366,1.156-2.444,2.522-2.445h8.652h0.039c1.364,0,2.444,1.078,2.444,2.445v2.484c0,0.015,0,0.023,0.001,0.039h3.726
	c-0.001-0.016-0.001-0.023-0.001-0.039V6.17c0-0.87-0.178-1.7-0.497-2.445C49.872,1.528,47.697,0,45.138,0l-8.691,0
	C33.016,0,30.197,2.74,30.197,6.17v2.482c0,3.432,2.816,6.248,6.249,6.248h3.685C40.131,14.902,38.13,13.583,37.642,11.176z"/>
</svg>
