<?xml version="1.0" encoding="utf-8"?>
<!-- Generator: Adobe Illustrator 16.0.0, SVG Export Plug-In . SVG Version: 6.00 Build 0)  -->
<!DOCTYPE svg PUBLIC "-//W3C//DTD SVG 1.1//EN" "http://www.w3.org/Graphics/SVG/1.1/DTD/svg11.dtd">
<svg version="1.1" id="Layer_2" xmlns="http://www.w3.org/2000/svg" xmlns:xlink="http://www.w3.org/1999/xlink" x="0px" y="0px"
	 width="60px" height="60px" viewBox="0 0 60 60" enable-background="new 0 0 60 60" xml:space="preserve">
<path d="M58.866,27.333L32.67,1.182c-1.509-1.506-3.954-1.506-5.464,0l-5.439,5.432l6.9,6.89c1.604-0.542,3.443-0.179,4.721,1.099
	c1.283,1.282,1.645,3.135,1.088,4.741l6.653,6.64c1.608-0.555,3.466-0.195,4.747,1.088c1.797,1.793,1.797,4.697,0,6.49
	c-1.795,1.795-4.704,1.795-6.503,0c-1.349-1.351-1.685-3.33-1.001-4.992l-6.202-6.19l0.001,16.292
	c0.438,0.219,0.852,0.506,1.217,0.868c1.797,1.793,1.797,4.696,0,6.491c-1.797,1.791-4.707,1.791-6.5,0
	c-1.797-1.795-1.797-4.698,0-6.491c0.443-0.443,0.956-0.777,1.504-1.001V22.091c-0.549-0.223-1.062-0.555-1.504-1.001
	c-1.361-1.357-1.688-3.352-0.99-5.02l-6.803-6.791L1.132,27.211c-1.508,1.508-1.508,3.949,0,5.458l26.197,26.147
	c1.508,1.508,3.954,1.508,5.465,0l26.073-26.027C60.377,31.283,60.377,28.838,58.866,27.333z"/>
</svg>
