<?xml version="1.0" encoding="utf-8"?>
<!-- Generator: Adobe Illustrator 16.0.0, SVG Export Plug-In . SVG Version: 6.00 Build 0)  -->
<!DOCTYPE svg PUBLIC "-//W3C//DTD SVG 1.1//EN" "http://www.w3.org/Graphics/SVG/1.1/DTD/svg11.dtd">
<svg version="1.1" id="Layer_2" xmlns="http://www.w3.org/2000/svg" xmlns:xlink="http://www.w3.org/1999/xlink" x="0px" y="0px"
	 width="60px" height="60px" viewBox="0 0 60 60" enable-background="new 0 0 60 60" xml:space="preserve">
<g>
	<path d="M37.277,26.506c0-3.942-3.198-7.14-7.143-7.14c-3.942,0-7.14,3.197-7.14,7.14c0,3.944,3.197,7.143,7.14,7.143
		C34.08,33.646,37.277,30.45,37.277,26.506z"/>
	<path d="M14.281,26.356c3.943,0,7.141-3.196,7.141-7.141c0-3.943-3.195-7.14-7.141-7.14c-3.943,0-7.141,3.196-7.141,7.14
		C7.141,23.16,10.337,26.356,14.281,26.356z"/>
	<path d="M45.721,26.356c3.943,0,7.141-3.196,7.141-7.141c0-3.943-3.195-7.14-7.141-7.14c-3.943,0-7.141,3.196-7.141,7.14
		C38.579,23.16,41.775,26.356,45.721,26.356z"/>
	<path d="M37.436,34.325c-1.912,1.789-4.475,2.891-7.298,2.891c-2.824,0-5.386-1.102-7.3-2.891
		c-4.071,1.517-6.979,5.431-6.979,10.028v3.569H44.42v-3.569C44.419,39.756,41.509,35.844,37.436,34.325z"/>
	<path d="M53.02,27.037c-1.912,1.787-4.477,2.889-7.299,2.889c-1.98,0-3.83-0.542-5.42-1.483c-0.213,1.113-0.604,2.163-1.143,3.122
		c2.376,1.01,4.41,2.646,5.914,4.766c0.937,1.322,1.627,2.773,2.051,4.306H60v-3.571C60,32.466,57.091,28.553,53.02,27.037z"/>
	<path d="M15.202,36.33c1.503-2.12,3.539-3.757,5.914-4.768c-0.562-1-0.964-2.104-1.169-3.271c-1.643,1.032-3.582,1.635-5.668,1.635
		c-2.823,0-5.385-1.103-7.299-2.89C2.907,28.554,0,32.467,0,37.064v3.57h13.15C13.576,39.104,14.266,37.65,15.202,36.33z"/>
</g>
</svg>
