<?xml version="1.0" encoding="utf-8"?>
<!-- Generator: Adobe Illustrator 16.0.0, SVG Export Plug-In . SVG Version: 6.00 Build 0)  -->
<!DOCTYPE svg PUBLIC "-//W3C//DTD SVG 1.1//EN" "http://www.w3.org/Graphics/SVG/1.1/DTD/svg11.dtd">
<svg version="1.1" id="Layer_2" xmlns="http://www.w3.org/2000/svg" xmlns:xlink="http://www.w3.org/1999/xlink" x="0px" y="0px"
	 width="60px" height="60px" viewBox="0 0 60 60" enable-background="new 0 0 60 60" xml:space="preserve">
<g>
	<g>
		<path d="M29.871,31.777c-4.013,0-7.278-3.264-7.278-7.275c0-4.012,3.265-7.277,7.278-7.277s7.277,3.265,7.277,7.277
			C37.148,28.514,33.884,31.777,29.871,31.777z M29.871,20.955c-1.957,0-3.548,1.591-3.548,3.547c0,1.956,1.592,3.546,3.548,3.546
			c1.957,0,3.549-1.591,3.549-3.546C33.42,22.546,31.828,20.955,29.871,20.955z"/>
	</g>
	<g>
		<path d="M14.363,22.954c-3.843,0-6.97-3.126-6.97-6.97c0-3.843,3.127-6.969,6.97-6.969c3.844,0,6.971,3.126,6.971,6.969
			C21.333,19.827,18.207,22.954,14.363,22.954z M14.363,12.607c-1.862,0-3.377,1.515-3.377,3.376c0,1.862,1.515,3.377,3.377,3.377
			c1.863,0,3.378-1.515,3.378-3.377C17.741,14.122,16.226,12.607,14.363,12.607z"/>
	</g>
	<g>
		<path d="M46.098,51.311H13.646v-5.649c0-5.266,3.325-10.044,8.274-11.892l1.231-0.459l0.96,0.896
			c1.576,1.473,3.622,2.283,5.76,2.283c2.141,0,4.186-0.811,5.759-2.282l0.959-0.896l1.231,0.457
			c4.953,1.843,8.279,6.622,8.277,11.894V51.311z M17.892,47.064h23.959v-1.403c0.002-3.109-1.74-5.962-4.434-7.423
			c-2.179,1.619-4.81,2.498-7.547,2.498c-2.734,0-5.365-0.878-7.544-2.497c-2.693,1.464-4.435,4.316-4.435,7.422V47.064z"/>
	</g>
	<g>
		<path d="M13.757,37.328H-0.004v-3.471c0-4.416,2.788-8.42,6.937-9.966l1.042-0.389l0.812,0.761
			c1.311,1.228,3.015,1.903,4.801,1.903c1.318,0,2.605-0.372,3.723-1.076l2.269-1.429l0.459,2.642
			c0.128,0.741,0.385,1.458,0.762,2.131l0.979,1.747l-1.842,0.784c-1.55,0.66-5.002,4.045-5.68,5.38L13.757,37.328z M3.589,33.736
			h8.081c0.929-1.289,2.479-2.91,4.014-4.187c-2.906,0.587-6.022-0.105-8.409-1.876C5.071,28.876,3.634,31.196,3.589,33.736z"/>
	</g>
	<g>
		<path d="M46.598,22.954c-3.844,0-6.97-3.126-6.97-6.97c0-3.843,3.126-6.969,6.97-6.969s6.97,3.126,6.97,6.969
			C53.567,19.827,50.441,22.954,46.598,22.954z M46.598,12.607c-1.862,0-3.378,1.515-3.378,3.376c0,1.862,1.516,3.377,3.378,3.377
			s3.378-1.515,3.378-3.377C49.976,14.122,48.46,12.607,46.598,12.607z"/>
	</g>
	<g>
		<path d="M59.966,37.328H46.207l-0.5-0.981c-0.679-1.335-4.132-4.721-5.683-5.381l-1.842-0.784l0.979-1.747
			c0.377-0.672,0.634-1.39,0.763-2.132l0.458-2.639l2.268,1.426c1.119,0.704,2.407,1.075,3.725,1.075
			c1.786,0,3.49-0.676,4.801-1.902l0.812-0.76l1.042,0.388c4.15,1.544,6.938,5.549,6.938,9.965V37.328z M48.293,33.736h8.08
			c-0.044-2.541-1.481-4.861-3.687-6.063c-1.822,1.352-4.022,2.085-6.312,2.085c-0.708,0-1.411-0.071-2.098-0.21
			C45.812,30.825,47.363,32.446,48.293,33.736z"/>
	</g>
</g>
</svg>
