<?xml version="1.0" encoding="utf-8"?>
<!-- Generator: Adobe Illustrator 16.0.0, SVG Export Plug-In . SVG Version: 6.00 Build 0)  -->
<!DOCTYPE svg PUBLIC "-//W3C//DTD SVG 1.1//EN" "http://www.w3.org/Graphics/SVG/1.1/DTD/svg11.dtd">
<svg version="1.1" id="Layer_2" xmlns="http://www.w3.org/2000/svg" xmlns:xlink="http://www.w3.org/1999/xlink" x="0px" y="0px"
	 width="60px" height="60px" viewBox="0 0 60 60" enable-background="new 0 0 60 60" xml:space="preserve">
<g>
	<path d="M35.246,40.697H23.619v-2.834c0-5.754,3.279-9.276,7.846-12.334c4.801-3.213,5.604-5.092,5.604-7.043
		c0-3.909-3.248-6.857-7.561-6.857c-3.973,0-6.955,3.312-8.308,6.148l-10.287-4.721C13.917,6.745,20.488,0,29.921,0
		c10.75,0,19.166,8.072,19.166,18.381c0,7.977-5.28,11.545-11.247,15.152c-2.383,1.589-2.6,2.933-2.6,5.17v1.994H35.246
		L35.246,40.697L35.246,40.697L35.246,40.697z"/>
	<rect x="23.641" y="47.835" width="12.721" height="12.165"/>
</g>
</svg>
