<?xml version="1.0" encoding="utf-8"?>
<!-- Generator: Adobe Illustrator 16.0.0, SVG Export Plug-In . SVG Version: 6.00 Build 0)  -->
<!DOCTYPE svg PUBLIC "-//W3C//DTD SVG 1.1//EN" "http://www.w3.org/Graphics/SVG/1.1/DTD/svg11.dtd">
<svg version="1.1" id="Layer_1" xmlns="http://www.w3.org/2000/svg" xmlns:xlink="http://www.w3.org/1999/xlink" x="0px" y="0px"
	 width="60px" height="60px" viewBox="0 0 60 60" enable-background="new 0 0 60 60" xml:space="preserve">
<path d="M59.998,25.133c-1.979,4.726-6.644,9.652-11.47,12.097c-0.747,0.384-1.414,0.808-1.475,0.948
	c-0.04,0.142,0.081,1.293,0.303,2.565c0.404,2.402-0.323,6.583-1.231,5.734c-0.93-0.848-1.857-1.676-2.101-1.817
	c-0.525-0.363-1.029-0.182-1.211,0.384c-0.121,0.364,0.202,0.748,1.857,2.303l0.403,1.878c-4.411,0.02-9.691-1.5-12.879-3.652v9.959
	c0,1.212-0.983,2.194-2.195,2.194s-2.195-0.982-2.195-2.194v-9.94c-1.388,0.895-3.615,1.939-5.388,2.482
	c-2.12,0.667-5.654,1.191-7.532,1.111l-0.014-1.178c3.776-3.413,4.18-3.958,3.271-4.442c-0.484-0.263-0.626-0.161-4.786,3.655
	c-1.797,1.636-1.137-3.892-0.692-6.436c0.202-1.293,0.343-2.464,0.303-2.605c-0.061-0.142-0.727-0.565-1.474-0.948
	C6.646,34.786,2,29.879,0.021,25.114c-0.282-0.687,2.262,0.059,4.686,0.807c2.423,0.727,9.733,3.009,9.733,3.009
	c1.575,0.484,2.928,0.909,2.969,0.969c0.061,0.061-0.727,0.666-1.717,1.373c-1.797,1.231-1.959,1.434-1.717,2.08
	c0.242,0.605,1.05,0.323,3.271-1.191c1.232-0.828,2.363-1.515,2.524-1.515c0.283,0,8.179,2.384,8.461,2.545
	c0.081,0.061-0.888,1.05-2.16,2.221c-1.272,1.191-2.323,2.262-2.323,2.403c0,0.303,0.545,0.909,0.808,0.909
	c0.202,0,2.747-2.141,3.211-2.706c0.161-0.182,0.545-0.524,0.868-0.747l0.566-0.404v4.847v3.527C29.635,42.964,30,42.8,30,42.8
	s0.376,0.169,0.817,0.452v-3.519c0-2.665,0.04-4.847,0.101-4.847s6.038,4.987,6.26,4.987c0.565,0,0.949-0.524,0.727-0.989
	c-0.101-0.202-6.077-5.513-6.077-5.593c0-0.162,7.976-2.646,8.44-2.646c0.162,0,1.272,0.687,2.505,1.515
	c2.241,1.535,2.706,1.717,3.15,1.272c0.505-0.506,0.202-0.93-1.596-2.161c-0.989-0.708-1.776-1.313-1.716-1.374
	c0.04-0.061,1.373-0.485,2.947-0.969l2.868-0.889C48.427,28.041,60.16,24.729,59.998,25.133z M35.826,17.357
	c0.485,0.101,0.788,0.707,0.525,1.111c-0.121,0.202-1.413,1.07-2.888,1.959l-2.646,1.595v4.807c0,2.666,0.061,4.827,0.161,4.827
	c0.081,0,2.12-0.605,4.523-1.333l4.402-1.353l1.07-2.747c0.969-2.484,1.11-2.747,1.596-2.807c1.01-0.121,1.05,0.485,0.182,2.706
	c-0.425,1.111-0.747,2.04-0.707,2.081c0.04,0.04,1.394-0.324,2.989-0.808c0,0,7.27-2.241,9.895-3.049
	c0.054-0.017,0.106-0.033,0.158-0.049c2.531-0.785,4.949-1.436,2.79-2.536c-1.555-0.788-3.836-1.575-5.855-2.04
	c-2.141-0.485-6.645-0.707-8.684-0.424c-1.252,0.182-1.555,0.182-1.817-0.061c-0.162-0.162-0.444-1.232-0.627-2.383
	c-0.949-5.574-3.312-10.399-6.744-13.772C33.362,2.293,32.292,1.364,31.767,1l-0.949-0.667v16.7v3.089l2.343-1.414
	C34.453,17.942,35.645,17.316,35.826,17.357z M14.966,27.394c1.615,0.485,2.968,0.848,3.008,0.808
	c0.041-0.04-0.282-0.969-0.707-2.06c-0.646-1.595-0.747-2.06-0.565-2.383c0.142-0.283,0.363-0.383,0.727-0.343
	c0.484,0.061,0.646,0.324,1.615,2.807l1.07,2.747l4.402,1.354c2.403,0.727,4.443,1.333,4.543,1.333c0.081,0,0.142-2.162,0.142-4.827
	v-4.807l-2.645-1.595c-1.474-0.889-2.767-1.757-2.888-1.959c-0.263-0.404,0.04-1.01,0.525-1.111
	c0.182-0.041,1.373,0.586,2.666,1.353l2.342,1.414v-3.089v-3.11v-1.857V6.21c0-3.23-0.02-5.856-0.06-5.855
	c-0.02,0-0.788,0.586-1.696,1.293c-4.281,3.392-7.229,8.784-8.32,15.206c-0.182,1.151-0.465,2.222-0.626,2.383
	c-0.263,0.242-0.565,0.242-1.817,0.061c-2.039-0.283-6.542-0.061-8.684,0.424c-2.019,0.464-4.301,1.252-5.856,2.04
	C-0.038,22.872,14.966,27.394,14.966,27.394z"/>
</svg>
