<?xml version="1.0" encoding="utf-8"?>
<!-- Generator: Adobe Illustrator 16.0.0, SVG Export Plug-In . SVG Version: 6.00 Build 0)  -->
<!DOCTYPE svg PUBLIC "-//W3C//DTD SVG 1.1//EN" "http://www.w3.org/Graphics/SVG/1.1/DTD/svg11.dtd">
<svg version="1.1" id="Layer_2" xmlns="http://www.w3.org/2000/svg" xmlns:xlink="http://www.w3.org/1999/xlink" x="0px" y="0px"
	 width="60px" height="60px" viewBox="0 0 60 60" enable-background="new 0 0 60 60" xml:space="preserve">
<path d="M57.121,0.061C55.827-0.62,44.811,4.433,39.76,13.067c-0.64,1.05-0.683,1.144-1.254,2.019
	c-0.06,0.092-0.278,5.258-0.278,5.258s-0.813-3.574-0.871-3.506c-2.105,2.468-2.72,3.703-2.72,3.703s-0.202,5.424,0.197,6.778
	c-0.692-1.11-1.085-5.306-1.085-5.306s-5.862,10.545-6.551,15.164c-0.689,4.62,1.952,9.939,1.952,9.939l-2.624,5.894
	c-1.409-2.717-3.009-5.842-2.98-5.978c0.233-0.285,1.227-2.786,1.142-5.207c-0.094-2.675-1.28-5.279-1.28-5.279s0.285,4.676-1,6.404
	c0.514-3.928,0.308-9.894-2.71-16.057c-1.844-3.766-5.437-8.363-5.437-8.363s0.166,1.68-0.368,3.409
	c-0.122-4.409-0.592-6.295-0.592-6.295S5.724,5.065,3.157,6.64c-1.06,0.55-2.808,10.293,0.627,17.706
	c0.406,0.918,0.364,0.8,0.685,1.591c0.034,0.083,3.48,2.83,3.48,2.83s-2.775-1.122-2.757-1.051c0.674,2.562,1.162,3.425,1.162,3.425
	s3.596,2.789,4.69,3.152C9.977,34.24,6.98,32.547,6.98,32.547s4.338,8.848,7.115,11.464s7.575,3.325,7.575,3.325l4.337,6.842
	L23.414,60l1.182-0.321c0,0,0.113-0.336,0.177-0.508c0.458-1.246,1.136-2.636,1.874-3.984l2.453,3.202l0.944,0.207
	c0,0-2.059-2.784-2.872-4.346c1.667-2.906,3.438-5.395,3.594-5.461c0.451,0.035,3.659-0.714,6.033-2.492
	c2.623-1.963,4.413-4.976,4.413-4.976s-4.501,3.555-7.137,3.47c4.307-2.228,10.161-6.604,14.247-13.946
	c2.497-4.487,4.607-11.311,4.607-11.311s-1.573,1.341-3.685,2.013c4.348-3.205,5.915-4.995,5.915-4.995S60.498,1.541,57.121,0.061z
	 M16.458,38.25C14.684,35.503,7.399,18.904,6.33,13.875c0,0,10.345,23.64,11.323,25.086c0.937,1.387,2.466,4.042,2.946,4.588
	C20.675,43.62,17.986,40.615,16.458,38.25z M34.979,36.771c-0.146,0.376-2.448,5.65-2.448,5.65s1.438-4.906,2.469-7.609
	c1.427-3.741,13.643-24.155,17.951-28.745C52.951,6.067,35.75,34.777,34.979,36.771z"/>
</svg>
