<?xml version="1.0" encoding="utf-8"?>
<!-- Generator: Adobe Illustrator 16.0.0, SVG Export Plug-In . SVG Version: 6.00 Build 0)  -->
<!DOCTYPE svg PUBLIC "-//W3C//DTD SVG 1.1//EN" "http://www.w3.org/Graphics/SVG/1.1/DTD/svg11.dtd">
<svg version="1.1" id="Layer_1" xmlns="http://www.w3.org/2000/svg" xmlns:xlink="http://www.w3.org/1999/xlink" x="0px" y="0px"
	 width="60px" height="60px" viewBox="0 0 60 60" enable-background="new 0 0 60 60" xml:space="preserve">
<path d="M60,32.914V30.44v-1.618V15.546c0-1.128-0.917-2.046-2.046-2.046c-1.128,0-2.047,0.917-2.047,2.046v13.276h-1.96h2.187
	h-1.875H38.015l6.091-6.095c0.799-0.795,0.799-2.094,0-2.893c-0.801-0.797-2.095-0.797-2.895,0l-9.583,9.59
	c-0.012,0.012-0.021,0.024-0.031,0.037c-0.082,0.086-0.158,0.174-0.224,0.272c-0.042,0.062-0.072,0.132-0.106,0.195
	c-0.024,0.051-0.059,0.101-0.081,0.154c-0.033,0.081-0.056,0.169-0.078,0.253c-0.013,0.042-0.028,0.081-0.037,0.128
	c-0.027,0.133-0.042,0.268-0.042,0.403c0,0.087,0.015,0.174,0.024,0.261c0.007,0.047,0.007,0.095,0.018,0.142
	c0.01,0.05,0.027,0.095,0.042,0.143c0.021,0.081,0.042,0.161,0.072,0.24c0.027,0.06,0.062,0.113,0.092,0.17
	c0.032,0.06,0.06,0.124,0.1,0.181c0.064,0.101,0.144,0.191,0.225,0.277c0.011,0.011,0.018,0.022,0.027,0.035
	c0.001,0.001,0.003,0.001,0.003,0.001l9.582,9.583c0.798,0.799,2.095,0.799,2.894,0c0.799-0.802,0.799-2.096,0-2.895l-6.092-6.092
	h16.157h-0.311H60z"/>
<path d="M3.877,16.426L0.14,20.157l9.831,9.876L0,39.98l3.67,3.663l9.903-9.951l9.904,9.808l3.743-3.729l-9.911-9.74l9.977-10.083
	l-3.668-3.591l-10.045,9.879L3.877,16.426z"/>
</svg>
