<?xml version="1.0" encoding="utf-8"?>
<!-- Generator: Adobe Illustrator 16.0.0, SVG Export Plug-In . SVG Version: 6.00 Build 0)  -->
<!DOCTYPE svg PUBLIC "-//W3C//DTD SVG 1.1//EN" "http://www.w3.org/Graphics/SVG/1.1/DTD/svg11.dtd">
<svg version="1.1" id="Layer_2" xmlns="http://www.w3.org/2000/svg" xmlns:xlink="http://www.w3.org/1999/xlink" x="0px" y="0px"
	 width="60px" height="60px" viewBox="0 0 60 60" enable-background="new 0 0 60 60" xml:space="preserve">
<g>
	<path d="M42.262,39.154c-3.418,2.601-7.652,5.34-12.261,5.34c-4.607,0-8.846-2.739-12.26-5.337
		C10.696,43.387,5.962,51.126,5.962,60h48.077C54.039,51.126,49.305,43.387,42.262,39.154z"/>
	<g>
		<path d="M28.653,10.939c-0.008,0.017-0.023,0.026-0.034,0.041L30,11.766l1.382-0.785c-0.01-0.014-0.023-0.024-0.033-0.041
			c-0.146-0.262-0.061-0.586,0.188-0.748h-3.069C28.712,10.354,28.799,10.678,28.653,10.939z"/>
		<path d="M54.039,15.844c0,0-5.422,1.985-11.271-8.203c-5.848-10.188-19.69-10.188-25.539,0C11.38,17.828,5.96,15.844,5.96,15.844
			v7.674h6.46C13.487,32.755,20.942,42.73,30,42.73c9.055,0,16.504-9.989,17.575-19.213h6.463v-7.674H54.039z M30,3.277
			c1.64,0,2.97,1.343,2.97,2.998c0,1.015-0.504,1.908-1.268,2.451v1.396c0.238-0.062,0.498,0.034,0.625,0.263
			c0.072,0.135,0.088,0.283,0.055,0.418c0.131,0.043,0.252,0.131,0.326,0.264c0.152,0.273,0.057,0.619-0.215,0.772
			c-0.273,0.153-0.615,0.056-0.766-0.218c-0.012-0.016-0.012-0.034-0.02-0.053l-1.027,0.584l1.027,0.582
			c0.008-0.017,0.008-0.035,0.02-0.051c0.15-0.273,0.494-0.371,0.766-0.218c0.27,0.155,0.363,0.5,0.215,0.772
			c-0.074,0.133-0.195,0.223-0.326,0.264c0.033,0.135,0.02,0.286-0.055,0.418c-0.15,0.273-0.494,0.371-0.766,0.217
			c-0.27-0.154-0.367-0.5-0.217-0.773c0.012-0.016,0.025-0.025,0.037-0.041L30,12.54l-1.382,0.785
			c0.011,0.015,0.024,0.024,0.034,0.041c0.152,0.272,0.057,0.62-0.215,0.772c-0.271,0.153-0.613,0.057-0.767-0.217
			c-0.073-0.132-0.085-0.283-0.051-0.418c-0.134-0.042-0.254-0.131-0.327-0.263c-0.152-0.273-0.057-0.619,0.215-0.773
			c0.27-0.153,0.612-0.056,0.766,0.218c0.011,0.018,0.011,0.035,0.017,0.051l1.028-0.582l-1.028-0.584
			c-0.006,0.019-0.006,0.037-0.017,0.053c-0.15,0.273-0.494,0.37-0.766,0.218c-0.271-0.153-0.367-0.5-0.215-0.772
			c0.073-0.133,0.193-0.223,0.327-0.264c-0.034-0.136-0.022-0.285,0.051-0.418c0.128-0.228,0.386-0.322,0.626-0.263V8.729
			c-0.764-0.543-1.268-1.437-1.268-2.451C27.03,4.62,28.36,3.277,30,3.277z M19.647,30.32c-2.28,0-4.129-1.866-4.129-4.17
			c0-2.303,1.849-4.168,4.129-4.168c2.283,0,4.131,1.865,4.131,4.168C23.778,28.454,21.93,30.32,19.647,30.32z M30,32.66
			c-1.448,0-2.622-1.186-2.622-2.646c0-1.462,1.174-0.287,2.622-0.287c1.449,0,2.623-1.175,2.623,0.287
			C32.623,31.475,31.449,32.66,30,32.66z M40.354,30.32c-2.281,0-4.133-1.867-4.133-4.17s1.852-4.168,4.133-4.168
			s4.131,1.865,4.131,4.168C44.482,28.453,42.635,30.32,40.354,30.32z"/>
	</g>
	<g>
		<path d="M28.68,6.46c0.465,0,0.842,0.382,0.842,0.853c0,0.47-0.377,0.851-0.842,0.851c-0.467,0-0.844-0.381-0.844-0.851
			C27.837,6.842,28.213,6.46,28.68,6.46z"/>
		<path d="M31.318,6.46c0.467,0,0.846,0.382,0.846,0.853c0,0.47-0.379,0.851-0.846,0.851c-0.465,0-0.841-0.381-0.841-0.851
			C30.477,6.842,30.854,6.46,31.318,6.46z"/>
	</g>
</g>
</svg>
