<?xml version="1.0" encoding="utf-8"?>
<!-- Generator: Adobe Illustrator 16.0.0, SVG Export Plug-In . SVG Version: 6.00 Build 0)  -->
<!DOCTYPE svg PUBLIC "-//W3C//DTD SVG 1.1//EN" "http://www.w3.org/Graphics/SVG/1.1/DTD/svg11.dtd">
<svg version="1.1" id="Layer_2" xmlns="http://www.w3.org/2000/svg" xmlns:xlink="http://www.w3.org/1999/xlink" x="0px" y="0px"
	 width="60px" height="60px" viewBox="0 0 60 60" enable-background="new 0 0 60 60" xml:space="preserve">
<path d="M52.512,59.986H20.13c-4.09,0-7.417-3.327-7.417-7.416v-9.768c-0.045,0.032-0.093,0.067-0.143,0.104l-0.12,0.084
	c-1.275,0.822-2.64,1.239-4.058,1.239c-4.587,0-8.32-4.542-8.32-10.125S3.806,23.98,8.393,23.98c1.542,0,3.022,0.503,4.319,1.463
	V20.07c0-4.09,3.327-7.417,7.417-7.417h7.493c-0.032-0.045-0.067-0.093-0.105-0.143l-0.084-0.12
	c-0.822-1.274-1.239-2.639-1.239-4.057c0-4.587,4.542-8.32,10.126-8.32c5.583,0,10.125,3.732,10.125,8.32
	c0,1.543-0.503,3.024-1.46,4.32h7.526c4.089,0,7.416,3.327,7.416,7.417v7.253c0,2.25-1.425,3.883-3.387,3.883
	c-0.769,0-1.581-0.255-2.413-0.759l-0.285-0.208c-0.475-0.417-1.248-0.915-2.235-0.915c-2.584,0-4.319,2.086-4.319,5.19
	c0,3.105,1.735,5.191,4.319,5.191c0.608,0,1.23-0.183,1.852-0.544c1.129-0.844,2.16-1.254,3.15-1.254
	c1.923,0,3.318,1.598,3.318,3.798V52.57C59.928,56.659,56.601,59.986,52.512,59.986z M13.378,38.42c1.933,0,3.335,1.603,3.335,3.811
	v10.34c0,1.884,1.533,3.416,3.417,3.416h32.382c1.884,0,3.416-1.532,3.416-3.416v-10.26c-0.043,0.031-0.088,0.064-0.135,0.101
	l-0.179,0.122c-1.283,0.777-2.631,1.172-4.007,1.172c-4.82,0-8.319-3.865-8.319-9.191c0-5.325,3.499-9.19,8.319-9.19
	c1.542,0,3.023,0.503,4.32,1.462V20.07c0-1.884-1.532-3.417-3.416-3.417h-8.066c-1.542,0-2.842-0.672-3.475-1.798
	c-0.373-0.664-0.823-2.067,0.356-4.008l0.206-0.281c0.416-0.474,0.912-1.246,0.912-2.233c0-2.342-2.805-4.32-6.125-4.32
	c-3.321,0-6.126,1.978-6.126,4.32c0,0.617,0.19,1.234,0.567,1.835c1.58,2.131,1.371,3.67,0.913,4.589
	c-0.592,1.187-1.892,1.896-3.48,1.896h-8.065c-1.884,0-3.417,1.533-3.417,3.417v5.911c0,2.25-1.424,3.884-3.387,3.884
	c-0.771,0-1.584-0.257-2.418-0.764l-0.283-0.208c-0.474-0.417-1.246-0.914-2.231-0.914c-2.342,0-4.32,2.805-4.32,6.125
	s1.978,6.125,4.32,6.125c0.618,0,1.235-0.19,1.836-0.567C11.357,38.827,12.388,38.42,13.378,38.42z"/>
</svg>
