<?xml version="1.0" encoding="utf-8"?>
<!-- Generator: Adobe Illustrator 16.0.0, SVG Export Plug-In . SVG Version: 6.00 Build 0)  -->
<!DOCTYPE svg PUBLIC "-//W3C//DTD SVG 1.1//EN" "http://www.w3.org/Graphics/SVG/1.1/DTD/svg11.dtd">
<svg version="1.1" id="Layer_2" xmlns="http://www.w3.org/2000/svg" xmlns:xlink="http://www.w3.org/1999/xlink" x="0px" y="0px"
	 width="60px" height="60px" viewBox="0 0 60 60" enable-background="new 0 0 60 60" xml:space="preserve">
<path d="M30,59.4c-12.983,0-26.127-3.621-26.127-10.543V18.679l4.287,2.89c4.259,2.871,12.22,4.518,21.84,4.518
	c9.623,0,17.583-1.646,21.839-4.518l4.288-2.893v30.182C56.127,55.779,42.982,59.4,30,59.4z M9.373,28.355v20.502
	C9.748,50.344,17.222,53.9,30,53.9c12.779,0,20.253-3.558,20.63-5.074l-0.002-20.471C45.402,30.457,38.284,31.587,30,31.587
	C21.717,31.587,14.6,30.457,9.373,28.355z M30,21.683c-12.271,0-25.479-3.299-25.479-10.541C4.521,3.897,17.729,0.597,30,0.597
	c12.271,0,25.479,3.299,25.479,10.544C55.479,18.384,42.271,21.683,30,21.683z M30,6.097c-12.645,0-19.831,3.582-19.979,5.046
	c0.158,1.46,7.355,5.04,19.979,5.04c12.63,0,19.823-3.58,19.979-5.044C49.827,9.678,42.639,6.097,30,6.097z M33.331,35.05
	c-0.394-0.163-0.756-0.274-1.058-0.353c-0.51-0.129-1.698-0.156-1.698-0.156h-1.133H24.38v0.48v0.888v0.396h0.906h0.168h4.109h0.883
	c0,0,0.926,0.021,1.322,0.12c0.234,0.06,0.52,0.146,0.822,0.273c1.416,0.585,3.34,2.02,3.34,5.491c0,3.471-1.922,4.985-3.338,5.631
	c-0.307,0.141-0.588,0.238-0.822,0.309c-0.396,0.116-1.324,0.148-1.324,0.148h-0.882h-4.11h-0.168H24.38v0.396v0.89v0.479h5.063
	h1.133c0,0,1.188-0.042,1.699-0.191c0.302-0.091,0.664-0.22,1.058-0.397c1.819-0.835,4.288-2.796,4.288-7.291
	C37.621,37.663,35.15,35.807,33.331,35.05z"/>
</svg>
