<?xml version="1.0" encoding="utf-8"?>
<!-- Generator: Adobe Illustrator 16.0.0, SVG Export Plug-In . SVG Version: 6.00 Build 0)  -->
<!DOCTYPE svg PUBLIC "-//W3C//DTD SVG 1.1//EN" "http://www.w3.org/Graphics/SVG/1.1/DTD/svg11.dtd">
<svg version="1.1" id="Layer_2" xmlns="http://www.w3.org/2000/svg" xmlns:xlink="http://www.w3.org/1999/xlink" x="0px" y="0px"
	 width="60px" height="60px" viewBox="0 0 60 60" enable-background="new 0 0 60 60" xml:space="preserve">
<path d="M38.958,59.085l-0.752-1.374c-0.437-0.797-0.97-1.521-1.583-2.149c-1.783-1.812-4.158-2.813-6.681-2.813
	s-4.895,1-6.68,2.817c-0.595,0.607-1.121,1.32-1.563,2.118l-0.756,1.366l-1.458-0.556c-3.174-1.209-6.072-2.91-8.612-5.055
	l-1.156-0.977l0.763-1.306c0.467-0.799,0.814-1.627,1.033-2.463c1.358-5.156-1.646-10.468-6.697-11.842
	c-0.774-0.214-1.593-0.321-2.441-0.321L0.73,36.547l-0.249-1.524c-0.295-1.805-0.439-3.447-0.439-5.02
	c0-1.588,0.145-3.234,0.441-5.033l0.251-1.525l1.675,0.02c0.85,0,1.673-0.107,2.445-0.32c5.053-1.378,8.058-6.692,6.701-11.847
	c-0.221-0.842-0.571-1.677-1.042-2.48L9.75,7.51l1.158-0.976c2.517-2.122,5.406-3.813,8.589-5.027l1.46-0.557l0.756,1.368
	c0.432,0.783,0.954,1.486,1.55,2.091c1.788,1.821,4.161,2.822,6.684,2.822c2.523,0,4.896-1.001,6.683-2.819
	c0.602-0.615,1.131-1.332,1.571-2.128l0.753-1.362l1.456,0.549c3.192,1.204,6.102,2.896,8.646,5.027l1.172,0.981l-0.779,1.315
	c-0.46,0.774-0.809,1.603-1.037,2.462c-1.353,5.151,1.653,10.465,6.701,11.842c0.784,0.211,1.601,0.318,2.419,0.318l1.733-0.03
	l0.251,1.538c0.301,1.838,0.445,3.502,0.442,5.087c0,1.574-0.146,3.231-0.444,5.062l-0.251,1.536l-1.721-0.028
	c-0.812,0-1.615,0.105-2.391,0.315c-5.047,1.374-8.052,6.688-6.695,11.846c0.223,0.835,0.569,1.662,1.029,2.453l0.76,1.308
	l-1.157,0.974c-2.539,2.136-5.454,3.836-8.666,5.054L38.958,59.085z M29.942,49.149c3.495,0,6.78,1.383,9.25,3.894
	c0.475,0.486,0.912,1.011,1.31,1.567c1.854-0.816,3.581-1.822,5.159-3.006c-0.279-0.635-0.508-1.283-0.684-1.94
	c-1.858-7.066,2.283-14.349,9.231-16.24c0.642-0.174,1.297-0.296,1.958-0.367c0.13-1.077,0.193-2.084,0.193-3.049
	c0.001-0.971-0.062-1.982-0.19-3.065c-0.674-0.071-1.342-0.195-1.998-0.372c-6.951-1.895-11.093-9.177-9.239-16.234
	c0.179-0.673,0.411-1.33,0.692-1.967c-1.576-1.176-3.295-2.175-5.135-2.982c-0.395,0.551-0.826,1.066-1.291,1.542
	c-2.472,2.516-5.757,3.899-9.252,3.899s-6.78-1.383-9.249-3.896c-0.457-0.464-0.881-0.968-1.27-1.507
	C17.6,6.236,15.896,7.232,14.339,8.4c0.289,0.65,0.521,1.313,0.697,1.983c1.857,7.055-2.283,14.337-9.23,16.232
	c-0.639,0.175-1.3,0.3-1.977,0.373c-0.126,1.055-0.188,2.05-0.188,3.015c0,0.957,0.062,1.95,0.188,3.009
	c0.663,0.073,1.311,0.197,1.938,0.37c6.942,1.89,11.084,9.169,9.226,16.227c-0.174,0.663-0.405,1.321-0.69,1.966
	c1.572,1.184,3.283,2.188,5.111,3c0.393-0.549,0.821-1.061,1.281-1.529C23.163,50.532,26.447,49.149,29.942,49.149z M30,15.4
	c-7.925,0-14.348,6.533-14.348,14.599C15.652,38.064,22.075,44.6,30,44.6c7.926,0,14.35-6.533,14.348-14.601
	C44.348,21.934,37.923,15.4,30,15.4z M30,40.869c-5.898,0-10.68-4.866-10.68-10.87c0-6.003,4.781-10.866,10.68-10.866
	c5.896,0,10.68,4.864,10.68,10.866C40.682,36.003,35.898,40.869,30,40.869z"/>
</svg>
