<?xml version="1.0" encoding="utf-8"?>
<!-- Generator: Adobe Illustrator 16.0.0, SVG Export Plug-In . SVG Version: 6.00 Build 0)  -->
<!DOCTYPE svg PUBLIC "-//W3C//DTD SVG 1.1//EN" "http://www.w3.org/Graphics/SVG/1.1/DTD/svg11.dtd">
<svg version="1.1" id="Layer_2" xmlns="http://www.w3.org/2000/svg" xmlns:xlink="http://www.w3.org/1999/xlink" x="0px" y="0px"
	 width="60px" height="60px" viewBox="0 0 60 60" enable-background="new 0 0 60 60" xml:space="preserve">
<path d="M30,3C15.014,3,3,15.149,3,30c0,14.848,12.014,27,27,27c14.985,0,27-12.152,27-27C57,15.149,44.848,3,30,3z M30,51.598
	C18.122,51.598,8.399,41.882,8.399,30C8.399,18.122,18.122,8.399,30,8.399c11.882,0,21.598,9.722,21.598,21.601
	C51.598,41.882,41.882,51.598,30,51.598z M39.451,27.299c2.292,0,4.049-1.753,4.049-4.049s-1.757-4.049-4.049-4.049
	c-2.299,0-4.049,1.753-4.049,4.049S37.152,27.299,39.451,27.299z M20.549,27.299c2.295,0,4.052-1.753,4.052-4.049
	s-1.757-4.049-4.052-4.049c-2.295,0-4.049,1.753-4.049,4.049S18.253,27.299,20.549,27.299z M30,44.848
	c6.348,0,11.61-3.911,13.771-9.445H16.229C18.39,40.937,23.656,44.848,30,44.848z"/>
</svg>
