<?xml version="1.0" encoding="utf-8"?>
<!-- Generator: Adobe Illustrator 16.0.0, SVG Export Plug-In . SVG Version: 6.00 Build 0)  -->
<!DOCTYPE svg PUBLIC "-//W3C//DTD SVG 1.1//EN" "http://www.w3.org/Graphics/SVG/1.1/DTD/svg11.dtd">
<svg version="1.1" id="Layer_1" xmlns="http://www.w3.org/2000/svg" xmlns:xlink="http://www.w3.org/1999/xlink" x="0px" y="0px"
	 width="60px" height="60px" viewBox="0 0 60 60" enable-background="new 0 0 60 60" xml:space="preserve">
<path fill="#DC4A38" d="M30,0C13.431,0,0,13.432,0,30c0,16.568,13.431,30,30,30c16.569,0,30-13.432,30-30C60,13.432,46.566,0,30,0z"
	/>
<g>
	<g>
		<path fill="#FFFFFF" d="M31.408,32.626l-1.737-1.349c-0.529-0.438-1.252-1.019-1.252-2.077c0-1.064,0.724-1.741,1.352-2.367
			c2.021-1.593,4.043-3.287,4.043-6.858c0-3.672-2.311-5.604-3.417-6.52h2.986l3.135-1.969h-9.495c-2.605,0-6.359,0.616-9.108,2.885
			c-2.072,1.787-3.083,4.251-3.083,6.471c0,3.766,2.892,7.584,7.998,7.584c0.482,0,1.009-0.048,1.541-0.097
			c-0.238,0.58-0.479,1.063-0.479,1.883c0,1.496,0.769,2.413,1.446,3.282c-2.17,0.148-6.221,0.39-9.207,2.225
			c-2.843,1.691-3.708,4.152-3.708,5.891c0,3.574,3.37,6.906,10.359,6.906c8.286,0,12.673-4.586,12.673-9.125
			C35.455,36.055,33.527,34.412,31.408,32.626z M25.095,27.073c-4.146,0-6.023-5.36-6.023-8.594c0-1.259,0.238-2.56,1.058-3.574
			c0.773-0.967,2.12-1.595,3.376-1.595c3.996,0,6.069,5.408,6.069,8.886c0,0.87-0.095,2.412-1.204,3.527
			C27.597,26.497,26.299,27.073,25.095,27.073z M25.143,46.491c-5.155,0-8.479-2.468-8.479-5.896c0-3.43,3.083-4.589,4.143-4.973
			c2.023-0.682,4.626-0.775,5.061-0.775c0.481,0,0.722,0,1.106,0.049c3.665,2.607,5.254,3.908,5.254,6.377
			C32.229,44.264,29.771,46.491,25.143,46.491z"/>
		<polygon fill="#FFFFFF" points="43.577,26.999 43.577,22.17 41.191,22.17 41.191,26.999 36.372,26.999 36.372,29.41 41.191,29.41 
			41.191,34.268 43.577,34.268 43.577,29.41 48.422,29.41 48.422,26.999 		"/>
	</g>
</g>
</svg>
