<?xml version="1.0" encoding="utf-8"?>
<!-- Generator: Adobe Illustrator 16.0.0, SVG Export Plug-In . SVG Version: 6.00 Build 0)  -->
<!DOCTYPE svg PUBLIC "-//W3C//DTD SVG 1.1//EN" "http://www.w3.org/Graphics/SVG/1.1/DTD/svg11.dtd">
<svg version="1.1" id="Layer_1" xmlns="http://www.w3.org/2000/svg" xmlns:xlink="http://www.w3.org/1999/xlink" x="0px" y="0px"
	 width="60px" height="60px" viewBox="0 0 60 60" enable-background="new 0 0 60 60" xml:space="preserve">
<path fill="#01AFEC" d="M44.599,45.016H33.017c-8.241,0-9.555-3.646-9.555-7.027c0-1.604,0.101-4.249,0.199-7.489h19.353
	c2.894,0,8.42-1.188,8.42-6.485c0-5.293-2.551-8.764-5.969-8.764H23.901C23.879,7.611,23.381,0,15.92,0
	c-3.086,0-5.589,1.267-6.646,4.415c-1.386,4.136-1.019,8.978-1.001,13.283c0.005,0.818,0.008,1.641,0.011,2.461
	c0.01,2.82,0.067,5.658,0.08,8.492c0.007,3.051,0.011,6.103,0.011,9.15c0,17.082,15.525,21.922,18.503,21.922
	c2.98,0,14.645,0.276,16.749,0.276c2.109,0,8.155-0.559,8.155-6.675S47.492,45.016,44.599,45.016z"/>
</svg>
