<?xml version="1.0" encoding="utf-8"?>
<!-- Generator: Adobe Illustrator 16.0.0, SVG Export Plug-In . SVG Version: 6.00 Build 0)  -->
<!DOCTYPE svg PUBLIC "-//W3C//DTD SVG 1.1//EN" "http://www.w3.org/Graphics/SVG/1.1/DTD/svg11.dtd">
<svg version="1.1" id="Layer_1" xmlns="http://www.w3.org/2000/svg" xmlns:xlink="http://www.w3.org/1999/xlink" x="0px" y="0px"
	 width="60px" height="60px" viewBox="0 0 60 60" enable-background="new 0 0 60 60" xml:space="preserve">
<g>
	<path fill="#DC4A38" d="M58.127,0.671H1.872C0.838,0.671,0,1.509,0,2.542v54.913c0,1.036,0.838,1.874,1.872,1.874h56.255
		c1.035,0,1.873-0.839,1.873-1.874V2.543C60,1.509,59.161,0.671,58.127,0.671z"/>
	<g>
		<path fill="#FFFFFF" d="M31.497,32.862l-1.894-1.47c-0.576-0.479-1.365-1.109-1.365-2.265c0-1.16,0.789-1.897,1.474-2.58
			c2.204-1.736,4.407-3.583,4.407-7.477c0-4.003-2.518-6.108-3.726-7.107h3.255l3.416-2.146h-10.35c-2.84,0-6.933,0.672-9.929,3.146
			c-2.259,1.948-3.36,4.635-3.36,7.054c0,4.105,3.152,8.268,8.719,8.268c0.525,0,1.101-0.052,1.68-0.105
			c-0.26,0.632-0.522,1.159-0.522,2.053c0,1.631,0.838,2.63,1.576,3.577c-2.365,0.163-6.781,0.425-10.036,2.426
			c-3.1,1.844-4.043,4.526-4.043,6.42c0,3.898,3.674,7.529,11.293,7.529c9.034,0,13.816-4.999,13.816-9.947
			C35.909,36.6,33.809,34.81,31.497,32.862z M24.615,26.809c-4.52,0-6.566-5.843-6.566-9.368c0-1.373,0.26-2.79,1.153-3.896
			c0.843-1.054,2.311-1.738,3.681-1.738c4.356,0,6.616,5.896,6.616,9.687c0,0.948-0.104,2.63-1.312,3.845
			C27.342,26.181,25.928,26.809,24.615,26.809z M24.667,47.978c-5.62,0-9.244-2.688-9.244-6.427c0-3.737,3.36-5.001,4.517-5.42
			c2.205-0.742,5.043-0.846,5.517-0.846c0.524,0,0.787,0,1.206,0.053c3.995,2.844,5.729,4.261,5.729,6.952
			C32.392,45.55,29.712,47.978,24.667,47.978z"/>
		<polygon fill="#FFFFFF" points="44.763,26.729 44.763,21.465 42.162,21.465 42.162,26.729 36.908,26.729 36.908,29.356 
			42.162,29.356 42.162,34.652 44.763,34.652 44.763,29.356 50.044,29.356 50.044,26.729 		"/>
	</g>
</g>
</svg>
