<?xml version="1.0" encoding="utf-8"?>
<!-- Generator: Adobe Illustrator 16.0.0, SVG Export Plug-In . SVG Version: 6.00 Build 0)  -->
<!DOCTYPE svg PUBLIC "-//W3C//DTD SVG 1.1//EN" "http://www.w3.org/Graphics/SVG/1.1/DTD/svg11.dtd">
<svg version="1.1" id="Layer_1" xmlns="http://www.w3.org/2000/svg" xmlns:xlink="http://www.w3.org/1999/xlink" x="0px" y="0px"
	 width="60px" height="60px" viewBox="0 0 60 60" enable-background="new 0 0 60 60" xml:space="preserve">
<path fill="#FF7F00" d="M30,0C13.432,0,0,13.432,0,30c0,16.568,13.432,30,30,30s30-13.432,30-30C60,13.432,46.566,0,30,0z"/>
<path fill="#FFFFFF" d="M17.064,30.943c3.731,0,7.239,1.457,9.875,4.107c2.641,2.651,4.095,6.182,4.095,9.941h5.749
	c0-10.918-8.845-19.799-19.719-19.799V30.943L17.064,30.943z M17.073,20.75c13.299,0,24.116,10.879,24.116,24.25h5.75
	c0-16.543-13.398-30-29.868-30v5.75H17.073z M25.024,40.982c0,2.199-1.783,3.982-3.983,3.982s-3.982-1.783-3.982-3.982
	S18.841,37,21.041,37S25.024,38.782,25.024,40.982z"/>
</svg>
