<?xml version="1.0" encoding="utf-8"?>
<!-- Generator: Adobe Illustrator 16.0.0, SVG Export Plug-In . SVG Version: 6.00 Build 0)  -->
<!DOCTYPE svg PUBLIC "-//W3C//DTD SVG 1.1//EN" "http://www.w3.org/Graphics/SVG/1.1/DTD/svg11.dtd">
<svg version="1.1" id="Layer_1" xmlns="http://www.w3.org/2000/svg" xmlns:xlink="http://www.w3.org/1999/xlink" x="0px" y="0px"
	 width="60px" height="60px" viewBox="0 0 60 60" enable-background="new 0 0 60 60" xml:space="preserve">
<g>
	<path fill="#007BB6" d="M32.265,27.062v-0.094c-0.02,0.031-0.041,0.063-0.061,0.094H32.265z"/>
	<path fill="#007BB6" d="M55.565,0H4.433C1.985,0,0,1.925,0,4.299v51.402C0,58.073,1.985,60,4.433,60h51.133
		C58.015,60,60,58.073,60,55.701V4.299C60,1.925,58.015,0,55.565,0z M18.187,50.226H9.124V23.134h9.062V50.226z M13.656,19.434
		h-0.061c-3.04,0-5.007-2.081-5.007-4.68c0-2.658,2.028-4.681,5.127-4.681c3.1,0,5.008,2.023,5.068,4.681
		C18.784,17.353,16.815,19.434,13.656,19.434z M50.864,50.226h-9.061V35.729c0-3.641-1.311-6.125-4.592-6.125
		c-2.503,0-3.992,1.675-4.65,3.293c-0.239,0.579-0.297,1.387-0.297,2.197v15.13h-9.062c0,0,0.118-24.552,0-27.092h9.062v3.835
		c1.204-1.846,3.358-4.474,8.168-4.474c5.963,0,10.432,3.873,10.432,12.196V50.226z"/>
</g>
</svg>
