<?xml version="1.0" encoding="utf-8"?>
<!-- Generator: Adobe Illustrator 16.0.0, SVG Export Plug-In . SVG Version: 6.00 Build 0)  -->
<!DOCTYPE svg PUBLIC "-//W3C//DTD SVG 1.1//EN" "http://www.w3.org/Graphics/SVG/1.1/DTD/svg11.dtd">
<svg version="1.1" id="Layer_1" xmlns="http://www.w3.org/2000/svg" xmlns:xlink="http://www.w3.org/1999/xlink" x="0px" y="0px"
	 width="60px" height="60px" viewBox="0 0 60 60" enable-background="new 0 0 60 60" xml:space="preserve">
<path fill="#007BB6" d="M30,0C13.432,0,0,13.432,0,30c0,16.568,13.432,30,30,30s30-13.432,30-30C60,13.432,46.566,0,30,0z"/>
<g>
	<path fill="#FFFFFF" d="M31.91,27.679v-0.071c-0.016,0.023-0.031,0.048-0.047,0.071H31.91z"/>
	<path fill="#FFFFFF" d="M21.324,45.098h-6.815V24.725h6.814L21.324,45.098L21.324,45.098z M17.917,21.942h-0.045
		c-2.286,0-3.766-1.564-3.766-3.52c0-1.998,1.525-3.52,3.855-3.52c2.331,0,3.766,1.521,3.811,3.52
		C21.772,20.378,20.292,21.942,17.917,21.942z M45.895,45.098h-6.812V34.195c0-2.738-0.984-4.605-3.453-4.605
		c-1.881,0-3.001,1.26-3.496,2.477c-0.18,0.437-0.224,1.043-0.224,1.652v11.377h-6.813c0,0,0.088-18.463,0-20.372h6.813v2.883
		c0.905-1.388,2.524-3.363,6.143-3.363c4.483,0,7.845,2.912,7.845,9.171v11.683H45.895z"/>
</g>
</svg>
