<?xml version="1.0" encoding="utf-8"?>
<!-- Generator: Adobe Illustrator 16.0.0, SVG Export Plug-In . SVG Version: 6.00 Build 0)  -->
<!DOCTYPE svg PUBLIC "-//W3C//DTD SVG 1.1//EN" "http://www.w3.org/Graphics/SVG/1.1/DTD/svg11.dtd">
<svg version="1.1" id="Layer_2" xmlns="http://www.w3.org/2000/svg" xmlns:xlink="http://www.w3.org/1999/xlink" x="0px" y="0px"
	 width="60px" height="60px" viewBox="0 0 60 60" enable-background="new 0 0 60 60" xml:space="preserve">
<g>
	<g>
		<path fill="#6F5C9F" d="M33.799,55.989C33.798,55.989,33.799,55.989,33.799,55.989c-1.533,0-3.053-0.044-4.519-0.132
			c-1.953-0.118-3.9-0.915-5.783-1.687c-1.53-0.627-3.111-1.274-4.204-1.297L0.498,55.983V23.197l18.035,1.796
			c1.058-0.111,2.669-1.191,4.346-2.92c3.025-3.109,5.137-8.938,5.137-14.178c0-0.536-0.009-1.023-0.017-1.464
			c-0.038-2.038-0.068-3.647,1.12-4.808c0.734-0.73,1.718-1.122,2.833-1.122c3.236,0,6.978,3.417,8.005,7.313
			c1.072,4.055,0.608,7.542,0.199,10.619c-0.018,0.133-0.035,0.266-0.053,0.396h12.461c3.827,0,6.94,3.114,6.94,6.942
			c0,1.919-0.779,3.691-2.084,4.965c0.783,1.087,1.229,2.408,1.243,3.811c0,1.964-0.883,3.797-2.322,5.029
			c0.208,0.645,0.314,1.32,0.314,2.01c0,2.004-0.888,3.838-2.366,5.062c0.144,0.543,0.217,1.104,0.217,1.671
			c0,4.791-4.429,5.831-6.557,6.33C45.312,55.267,40.023,55.989,33.799,55.989z M19.236,48.874c1.882,0,3.863,0.811,5.778,1.596
			c1.582,0.647,3.217,1.317,4.506,1.396c1.385,0.082,2.825,0.124,4.278,0.124c5.884,0,10.808-0.665,13.236-1.235
			c3.471-0.814,3.471-1.529,3.471-2.436c0-0.5-0.14-0.972-0.415-1.403l-1.303-2.04l2.249-0.895c0.983-0.391,1.618-1.331,1.618-2.395
			c0-0.558-0.181-1.098-0.523-1.561l-1.561-2.108l2.446-0.946c0.984-0.381,1.646-1.348,1.646-2.404
			c-0.01-0.96-0.58-1.873-1.454-2.306l-4.395-2.177l4.664-1.517c1.211-0.394,2.025-1.518,2.025-2.796
			c0-1.622-1.319-2.942-2.94-2.942H35.696l0.174-2.16c0.072-0.909,0.192-1.81,0.319-2.764c0.378-2.841,0.769-5.78-0.102-9.07
			c-0.658-2.496-2.989-4.262-4.072-4.333c-0.045,0.408-0.031,1.168-0.019,1.854c0.009,0.463,0.018,0.975,0.018,1.538
			c0,6.295-2.519,13.113-6.268,16.966c-2.577,2.658-4.989,4.05-7.167,4.138l-0.14,0.005L4.498,27.615v23.651L19.236,48.874z"/>
	</g>
</g>
</svg>
