<?xml version="1.0" encoding="utf-8"?>
<!-- Generator: Adobe Illustrator 16.0.0, SVG Export Plug-In . SVG Version: 6.00 Build 0)  -->
<!DOCTYPE svg PUBLIC "-//W3C//DTD SVG 1.1//EN" "http://www.w3.org/Graphics/SVG/1.1/DTD/svg11.dtd">
<svg version="1.1" id="Layer_2" xmlns="http://www.w3.org/2000/svg" xmlns:xlink="http://www.w3.org/1999/xlink" x="0px" y="0px"
	 width="60px" height="60px" viewBox="0 0 60 60" enable-background="new 0 0 60 60" xml:space="preserve">
<g id="Layer_2_1_">
	<path fill="#45B29D" d="M37.412,52.512l-14.943,0.031c-0.834,0-2.051-1.219-2.051-2.975c0-1.758,1.215-2.976,2.051-2.976h14.943
		c0.832,0,2.174,1.173,2.174,3.056S38.238,52.512,37.412,52.512z"/>
	<path fill="#45B29D" d="M23.21,55.926c0.62,1.451,2.18,4.57,6.791,4.57c4.61,0,6.146-3.111,6.526-4.58L23.21,55.926z"/>
	<path fill="#45B29D" d="M30,0.496c-12.196,0-19.601,7.893-19.601,17.249s5.677,12.716,7.941,16.312
		c2.268,3.601,2.102,4.668,2.396,5.945c0.291,1.281,0.88,2.99,3.004,2.99c2.125,0,10.394,0,12.521,0c2.118,0,2.706-1.709,3.002-2.99
		c0.297-1.277,0.135-2.346,2.396-5.945c2.266-3.598,7.94-7.392,7.94-16.312S42.198,0.496,30,0.496z M38.582,30.805
		c-1.664,2.648-1.544,3.438-1.764,4.375c-0.217,0.942-0.649,2.2-2.209,2.2c-1.564,0-7.649,0-9.214,0c-1.562,0-1.996-1.258-2.209-2.2
		c-0.218-0.938-0.096-1.728-1.764-4.375c-1.667-2.646-5.844-5.117-5.844-12.001c0-6.886,5.447-12.695,14.423-12.695
		c8.978,0,14.425,6.13,14.425,12.693C44.427,25.365,40.249,28.157,38.582,30.805z"/>
</g>
</svg>
