<?xml version="1.0" encoding="utf-8"?>
<!-- Generator: Adobe Illustrator 16.0.0, SVG Export Plug-In . SVG Version: 6.00 Build 0)  -->
<!DOCTYPE svg PUBLIC "-//W3C//DTD SVG 1.1//EN" "http://www.w3.org/Graphics/SVG/1.1/DTD/svg11.dtd">
<svg version="1.1" id="Layer_2" xmlns="http://www.w3.org/2000/svg" xmlns:xlink="http://www.w3.org/1999/xlink" x="0px" y="0px"
	 width="60px" height="60px" viewBox="0 0 60 60" enable-background="new 0 0 60 60" xml:space="preserve">
<g id="Layer_2_1_">
	<path d="M36.261,42.496c2.12,0,2.708-1.709,3.002-2.99c0.297-1.277,0.135-2.346,2.396-5.945c2.266-3.598,7.942-7.392,7.942-16.312
		S42.198,0,30,0C17.803,0,10.399,7.892,10.399,17.249s5.677,12.716,7.942,16.312c2.267,3.598,2.101,4.668,2.396,5.945
		c0.291,1.281,0.88,2.99,3.004,2.99C25.866,42.496,34.135,42.496,36.261,42.496z"/>
	<path d="M37.412,52.016l-14.943,0.031c-0.834,0-2.051-1.219-2.051-2.975c0-1.758,1.215-2.975,2.051-2.975h14.943
		c0.832,0,2.174,1.172,2.174,3.055S38.239,52.016,37.412,52.016z"/>
	<path d="M23.21,55.43c0.62,1.451,2.18,4.57,6.791,4.57s6.146-3.111,6.527-4.58L23.21,55.43z"/>
</g>
</svg>
