<?xml version="1.0" encoding="utf-8"?>
<!-- Generator: Adobe Illustrator 16.0.0, SVG Export Plug-In . SVG Version: 6.00 Build 0)  -->
<!DOCTYPE svg PUBLIC "-//W3C//DTD SVG 1.1//EN" "http://www.w3.org/Graphics/SVG/1.1/DTD/svg11.dtd">
<svg version="1.1" id="Layer_2" xmlns="http://www.w3.org/2000/svg" xmlns:xlink="http://www.w3.org/1999/xlink" x="0px" y="0px"
	 width="60px" height="60px" viewBox="0 0 60 60" enable-background="new 0 0 60 60" xml:space="preserve">
<path d="M60,11.684c-2.207,0.963-4.58,1.613-7.07,1.907c2.543-1.5,4.494-3.874,5.412-6.704c-2.379,1.391-5.012,2.397-7.818,2.941
	C48.281,7.473,45.082,6,41.541,6c-6.797,0-12.31,5.425-12.31,12.118c0,0.95,0.107,1.875,0.319,2.761
	c-10.229-0.505-19.3-5.329-25.373-12.66c-1.059,1.789-1.665,3.871-1.665,6.092c0,4.203,2.172,7.912,5.475,10.086
	c-2.019-0.063-3.916-0.608-5.575-1.517c-0.001,0.052-0.001,0.103-0.001,0.153c0,5.871,4.244,10.769,9.873,11.88
	c-1.032,0.277-2.12,0.426-3.242,0.426c-0.792,0-1.562-0.076-2.316-0.217c1.566,4.812,6.112,8.316,11.5,8.414
	c-4.213,3.252-9.521,5.188-15.287,5.188c-0.994,0-1.976-0.059-2.938-0.17C5.448,51.992,11.918,54,18.871,54
	c22.639,0,35.022-18.467,35.022-34.48c0-0.525-0.014-1.047-0.037-1.566C56.262,16.247,58.35,14.114,60,11.684z"/>
</svg>
