<?xml version="1.0" encoding="utf-8"?>
<!-- Generator: Adobe Illustrator 16.0.0, SVG Export Plug-In . SVG Version: 6.00 Build 0)  -->
<!DOCTYPE svg PUBLIC "-//W3C//DTD SVG 1.1//EN" "http://www.w3.org/Graphics/SVG/1.1/DTD/svg11.dtd">
<svg version="1.1" id="Layer_2" xmlns="http://www.w3.org/2000/svg" xmlns:xlink="http://www.w3.org/1999/xlink" x="0px" y="0px"
	 width="60px" height="60px" viewBox="0 0 60 60" enable-background="new 0 0 60 60" xml:space="preserve">
<path d="M56.49,50.236c-3.201,3.389-7.006,5.865-11.411,7.418C40.674,59.221,36.023,60,31.137,60c-4.675,0-8.933-0.738-12.763-2.225
	c-3.83-1.473-7.112-3.537-9.815-6.176c-2.719-2.637-4.82-5.799-6.322-9.479C0.736,38.436,0,34.418,0,30.066
	c0-4.299,0.816-8.276,2.451-11.935c1.634-3.655,3.857-6.83,6.684-9.521c2.825-2.692,6.12-4.795,9.91-6.336
	C22.809,0.764,26.854,0,31.139,0c3.694,0,7.285,0.535,10.754,1.607c3.482,1.072,6.562,2.692,9.254,4.834
	c2.69,2.156,4.834,4.834,6.441,8.062S60,21.521,60,25.875c0,3.229-0.443,6.08-1.342,8.543c-0.896,2.479-2.086,4.541-3.588,6.214
	c-1.5,1.675-3.202,2.92-5.129,3.752c-1.93,0.829-3.95,1.245-6.067,1.245c-2.17,0-3.908-0.511-5.222-1.527
	c-1.301-1.018-1.955-2.316-1.955-3.871h-0.403c-0.815,1.287-2.062,2.52-3.749,3.67c-1.688,1.154-3.75,1.742-6.201,1.742
	c-3.695,0-6.549-1.205-8.558-3.629c-2.009-2.425-3.015-5.561-3.015-9.443c0-2.262,0.375-4.486,1.138-6.695s1.848-4.166,3.254-5.895
	c1.407-1.713,3.093-3.106,5.048-4.151c1.957-1.045,4.125-1.565,6.523-1.565c2.062,0,3.804,0.428,5.223,1.285
	c1.404,0.858,2.331,1.916,2.771,3.146h0.08l0.656-3.227h7.26l-3.203,15.256c-0.104,0.748-0.254,1.58-0.441,2.504
	c-0.188,0.91-0.281,1.768-0.281,2.584c0,0.91,0.174,1.676,0.536,2.304c0.349,0.616,1.046,0.925,2.077,0.925
	c2.115,0,3.87-1.124,5.263-3.389c1.38-2.264,2.077-5.291,2.077-9.107c0-3.227-0.55-6.093-1.636-8.585
	c-1.083-2.504-2.597-4.593-4.525-6.294c-1.929-1.688-4.231-2.973-6.885-3.831c-2.666-0.856-5.571-1.286-8.718-1.286
	c-3.43,0-6.562,0.604-9.415,1.809c-2.854,1.205-5.29,2.879-7.298,4.996c-2.01,2.129-3.575,4.621-4.688,7.5
	c-1.125,2.866-1.688,5.974-1.688,9.309c0,3.548,0.59,6.749,1.754,9.604c1.166,2.853,2.813,5.275,4.931,7.297
	c2.115,2.023,4.647,3.562,7.581,4.637c2.932,1.07,6.172,1.604,9.693,1.604c4.406,0,8.197-0.695,11.371-2.101
	c3.174-1.396,6.096-3.336,8.758-5.813L56.49,50.236z M30.979,20.891c-1.299,0-2.451,0.375-3.43,1.125s-1.808,1.7-2.49,2.867
	c-0.684,1.151-1.192,2.438-1.555,3.83c-0.348,1.393-0.536,2.746-0.536,4.031c0,0.643,0.067,1.326,0.2,2.062
	c0.133,0.721,0.402,1.394,0.818,2.021c0.4,0.614,0.936,1.125,1.593,1.526c0.655,0.403,1.526,0.604,2.61,0.604
	c1.474,0,2.719-0.362,3.752-1.084c1.029-0.726,1.873-1.638,2.529-2.746c0.655-1.099,1.125-2.304,1.434-3.589
	c0.295-1.287,0.441-2.479,0.441-3.55c0-0.856-0.08-1.7-0.242-2.544c-0.158-0.83-0.44-1.579-0.855-2.262
	c-0.4-0.67-0.962-1.222-1.673-1.648C32.877,21.105,32.009,20.891,30.979,20.891z"/>
</svg>
