<?xml version="1.0" encoding="utf-8"?>
<!-- Generator: Adobe Illustrator 16.0.0, SVG Export Plug-In . SVG Version: 6.00 Build 0)  -->
<!DOCTYPE svg PUBLIC "-//W3C//DTD SVG 1.1//EN" "http://www.w3.org/Graphics/SVG/1.1/DTD/svg11.dtd">
<svg version="1.1" id="Layer_1" xmlns="http://www.w3.org/2000/svg" xmlns:xlink="http://www.w3.org/1999/xlink" x="0px" y="0px"
	 width="60px" height="60px" viewBox="0 0 60 60" enable-background="new 0 0 60 60" xml:space="preserve">
<path d="M31.001,53V11.828l11.435,11.436c0.781,0.781,2.047,0.781,2.828,0s0.781-2.048,0-2.828L30.417,5.588
	c-0.001,0-0.001-0.001-0.002-0.002c-0.011-0.011-0.022-0.017-0.033-0.027c-0.084-0.08-0.173-0.156-0.271-0.221
	c-0.057-0.038-0.118-0.064-0.177-0.097c-0.056-0.029-0.108-0.063-0.167-0.088c-0.076-0.031-0.154-0.05-0.233-0.072
	c-0.047-0.013-0.091-0.031-0.14-0.041c-0.046-0.01-0.093-0.01-0.14-0.016C29.17,5.014,29.086,5,29,5
	c-0.132,0-0.264,0.014-0.394,0.04c-0.044,0.009-0.084,0.025-0.126,0.037c-0.083,0.022-0.167,0.044-0.247,0.077
	c-0.053,0.021-0.101,0.053-0.151,0.079c-0.064,0.034-0.131,0.063-0.192,0.104c-0.096,0.064-0.183,0.139-0.266,0.218
	c-0.012,0.011-0.025,0.019-0.037,0.03L12.736,20.435c-0.781,0.781-0.781,2.047,0,2.828s2.049,0.781,2.828,0l11.437-11.436V53
	c0,1.105,0.896,2,2,2S31.001,54.105,31.001,53z"/>
</svg>
