<?xml version="1.0" encoding="utf-8"?>
<!-- Generator: Adobe Illustrator 16.0.0, SVG Export Plug-In . SVG Version: 6.00 Build 0)  -->
<!DOCTYPE svg PUBLIC "-//W3C//DTD SVG 1.1//EN" "http://www.w3.org/Graphics/SVG/1.1/DTD/svg11.dtd">
<svg version="1.1" id="Layer_2" xmlns="http://www.w3.org/2000/svg" xmlns:xlink="http://www.w3.org/1999/xlink" x="0px" y="0px"
	 width="60px" height="60px" viewBox="0 0 60 60" enable-background="new 0 0 60 60" xml:space="preserve">
<g>
	<path d="M19.912,24.219l-3.974,3.931l12.113,12.499L57.628,11.2l-3.898-3.784L28.214,32.557L19.912,24.219z"/>
	<path d="M51.513,28.71l-4.724,4.723c-1.312,9.656-9.566,17.105-19.583,17.105c-10.929,0-19.791-8.859-19.791-19.789
		c0-10.929,8.861-19.791,19.791-19.791c2.772,0,5.409,0.573,7.802,1.603l3.775-3.776c-3.457-1.829-7.394-2.871-11.578-2.871
		c-13.715,0-24.834,11.119-24.834,24.834c0,13.715,11.119,24.834,24.834,24.834c13.714,0,24.834-11.119,24.834-24.834
		c0-0.815-0.043-1.618-0.118-2.412L51.513,28.71z"/>
</g>
</svg>
