<?xml version="1.0" encoding="utf-8"?>
<!-- Generator: Adobe Illustrator 16.0.0, SVG Export Plug-In . SVG Version: 6.00 Build 0)  -->
<!DOCTYPE svg PUBLIC "-//W3C//DTD SVG 1.1//EN" "http://www.w3.org/Graphics/SVG/1.1/DTD/svg11.dtd">
<svg version="1.1" id="Layer_1" xmlns="http://www.w3.org/2000/svg" xmlns:xlink="http://www.w3.org/1999/xlink" x="0px" y="0px"
	 width="60px" height="60px" viewBox="0 0 60 60" enable-background="new 0 0 60 60" xml:space="preserve">
<path d="M7,32.001h41.172L36.736,43.436c-0.781,0.781-0.781,2.047,0,2.828s2.048,0.781,2.828,0l14.848-14.847
	c0-0.001,0.001-0.001,0.002-0.002c0.011-0.011,0.017-0.022,0.027-0.032c0.08-0.084,0.156-0.174,0.221-0.271
	c0.038-0.057,0.064-0.117,0.097-0.177c0.029-0.056,0.063-0.108,0.088-0.167c0.031-0.076,0.05-0.154,0.072-0.232
	c0.013-0.048,0.031-0.092,0.041-0.141c0.01-0.046,0.01-0.093,0.016-0.139C54.986,30.17,55,30.085,55,30
	c0-0.132-0.014-0.264-0.04-0.394c-0.009-0.044-0.025-0.083-0.037-0.125c-0.022-0.083-0.044-0.167-0.077-0.247
	c-0.021-0.053-0.053-0.101-0.079-0.151c-0.034-0.064-0.063-0.131-0.104-0.192c-0.064-0.096-0.139-0.183-0.218-0.266
	c-0.011-0.012-0.019-0.025-0.03-0.037L39.565,13.736c-0.781-0.781-2.047-0.781-2.828,0s-0.781,2.049,0,2.828l11.436,11.437H7
	c-1.105,0-2,0.896-2,2C5,31.105,5.895,32.001,7,32.001z"/>
</svg>
