<?xml version="1.0" encoding="utf-8"?>
<!-- Generator: Adobe Illustrator 16.0.0, SVG Export Plug-In . SVG Version: 6.00 Build 0)  -->
<!DOCTYPE svg PUBLIC "-//W3C//DTD SVG 1.1//EN" "http://www.w3.org/Graphics/SVG/1.1/DTD/svg11.dtd">
<svg version="1.1" id="Layer_2" xmlns="http://www.w3.org/2000/svg" xmlns:xlink="http://www.w3.org/1999/xlink" x="0px" y="0px"
	 width="60px" height="60px" viewBox="0 0 60 60" enable-background="new 0 0 60 60" xml:space="preserve">
<path d="M44.396,9.599c-1.323,0-2.398,1.074-2.397,2.399v19.447v11.75v0.002c0,6.627-5.373,12-12,12c-6.628,0-12-5.373-12-11.998
	c0-0.004,0-0.006,0-0.008V31.445v-9.863V12c0-3.979,3.224-7.201,7.2-7.199c3.978-0.001,7.199,3.223,7.199,7.199l-0.002,9.583v14.833
	l0.002,6.783c0,1.322-1.076,2.4-2.399,2.4c-1.324,0-2.399-1.078-2.399-2.4v-6.783V14.4c0-1.325-1.076-2.399-2.398-2.399
	c-1.325,0-2.4,1.074-2.401,2.399L22.8,43.199c0,3.977,3.225,7.197,7.2,7.199c3.976-0.002,7.199-3.225,7.199-7.199V12V12
	C37.199,5.372,31.828,0,25.201,0C18.571,0,13.2,5.371,13.2,11.999c0,0.004,0,0.007,0,0.011v31.178c0,0.004,0,0.008,0,0.012
	C13.2,52.479,20.722,60,30,60c9.28,0,16.8-7.52,16.8-16.801V12C46.797,10.673,45.724,9.599,44.396,9.599z"/>
</svg>
