<?xml version="1.0" encoding="utf-8"?>
<!-- Generator: Adobe Illustrator 16.0.0, SVG Export Plug-In . SVG Version: 6.00 Build 0)  -->
<!DOCTYPE svg PUBLIC "-//W3C//DTD SVG 1.1//EN" "http://www.w3.org/Graphics/SVG/1.1/DTD/svg11.dtd">
<svg version="1.1" id="Layer_2" xmlns="http://www.w3.org/2000/svg" xmlns:xlink="http://www.w3.org/1999/xlink" x="0px" y="0px"
	 width="60px" height="60px" viewBox="0 0 60 60" enable-background="new 0 0 60 60" xml:space="preserve">
<path d="M46.5,8c0,2.761-2.238,5-5,5H5c-2.761,0-5-2.239-5-5l0,0c0-2.761,2.239-5,5-5h36.5C44.262,3,46.5,5.239,46.5,8L46.5,8z"/>
<path d="M60,30c0,2.762-2.238,5-5,5H5c-2.761,0-5-2.238-5-5l0,0c0-2.761,2.239-5,5-5h50C57.762,25,60,27.239,60,30L60,30z"/>
<path d="M35,52c0,2.762-2.238,5-5,5H5c-2.761,0-5-2.238-5-5l0,0c0-2.762,2.239-5,5-5h25C32.762,47,35,49.238,35,52L35,52z"/>
</svg>
