<?xml version="1.0" encoding="utf-8"?>
<!-- Generator: Adobe Illustrator 16.0.0, SVG Export Plug-In . SVG Version: 6.00 Build 0)  -->
<!DOCTYPE svg PUBLIC "-//W3C//DTD SVG 1.1//EN" "http://www.w3.org/Graphics/SVG/1.1/DTD/svg11.dtd">
<svg version="1.1" id="Layer_2" xmlns="http://www.w3.org/2000/svg" xmlns:xlink="http://www.w3.org/1999/xlink" x="0px" y="0px"
	 width="60px" height="60px" viewBox="0 0 60 60" enable-background="new 0 0 60 60" xml:space="preserve">
<path d="M55,17.855l-14.318-6.857c-0.006,0.004-0.008,0.011-0.014,0.016c0.005-0.129,0.021-0.256,0.021-0.387
	C40.688,4.758,35.902,0,30,0S19.312,4.758,19.312,10.626c0,0.124,0.015,0.244,0.019,0.367L5,17.855V41.8l14.348,6.871
	c-0.016,0.233-0.037,0.464-0.037,0.701c0,5.87,4.787,10.628,10.688,10.628c5.903,0,10.688-4.758,10.688-10.628
	c0-0.237-0.021-0.468-0.035-0.701L54.999,41.8L55,17.855L55,17.855z M30,5.809c2.676,0,4.848,2.157,4.848,4.817
	S32.676,15.445,30,15.445s-4.846-2.158-4.846-4.819S27.324,5.809,30,5.809z M30,54.191c-2.676,0-4.846-2.158-4.846-4.819
	s2.17-4.817,4.846-4.817s4.848,2.156,4.848,4.817S32.676,54.191,30,54.191z M48.566,38.719l-9.738,4.665
	c-1.926-2.799-5.16-4.638-8.828-4.638s-6.902,1.839-8.828,4.638l-9.74-4.665V20.936l9.572-4.584c1.9,2.945,5.217,4.902,8.996,4.902
	c3.785,0,7.104-1.963,9.003-4.915c0.001,0.005,0,0.011,0.001,0.015l9.562,4.582V38.719L48.566,38.719z"/>
</svg>
