<?xml version="1.0" encoding="utf-8"?>
<!-- Generator: Adobe Illustrator 16.0.0, SVG Export Plug-In . SVG Version: 6.00 Build 0)  -->
<!DOCTYPE svg PUBLIC "-//W3C//DTD SVG 1.1//EN" "http://www.w3.org/Graphics/SVG/1.1/DTD/svg11.dtd">
<svg version="1.1" id="Layer_1" xmlns="http://www.w3.org/2000/svg" xmlns:xlink="http://www.w3.org/1999/xlink" x="0px" y="0px"
	 width="60px" height="60px" viewBox="0 0 60 60" enable-background="new 0 0 60 60" xml:space="preserve">
<path d="M27.999,7v41.172L16.564,36.736c-0.781-0.781-2.047-0.781-2.828,0s-0.781,2.048,0,2.828l14.848,14.848
	c0,0,0,0.001,0.002,0.002c0.01,0.011,0.021,0.017,0.032,0.027c0.084,0.08,0.173,0.156,0.271,0.221
	c0.057,0.038,0.118,0.064,0.178,0.097c0.055,0.029,0.107,0.063,0.166,0.088c0.076,0.031,0.154,0.05,0.233,0.072
	c0.047,0.013,0.091,0.031,0.14,0.041c0.047,0.01,0.094,0.01,0.14,0.016C29.83,54.986,29.914,55,30,55
	c0.133,0,0.264-0.014,0.395-0.04c0.043-0.009,0.083-0.025,0.125-0.037c0.083-0.022,0.167-0.044,0.247-0.077
	c0.053-0.021,0.101-0.053,0.151-0.079c0.064-0.034,0.131-0.063,0.192-0.104c0.096-0.064,0.183-0.139,0.266-0.218
	c0.012-0.011,0.025-0.019,0.037-0.03l14.851-14.849c0.781-0.781,0.781-2.047,0-2.828s-2.049-0.781-2.828,0L31.999,48.173V7
	c0-1.105-0.896-2-1.999-2C28.895,5,27.999,5.895,27.999,7z"/>
</svg>
