<?xml version="1.0" encoding="utf-8"?>
<!-- Generator: Adobe Illustrator 16.0.0, SVG Export Plug-In . SVG Version: 6.00 Build 0)  -->
<!DOCTYPE svg PUBLIC "-//W3C//DTD SVG 1.1//EN" "http://www.w3.org/Graphics/SVG/1.1/DTD/svg11.dtd">
<svg version="1.1" id="Layer_2" xmlns="http://www.w3.org/2000/svg" xmlns:xlink="http://www.w3.org/1999/xlink" x="0px" y="0px"
	 width="60px" height="60px" viewBox="0 0 60 60" enable-background="new 0 0 60 60" xml:space="preserve">
<path d="M33.167,2.8v6.638c0,1.781-1.442,3.226-3.224,3.226c-1.779,0-3.223-1.442-3.223-3.226V2.813C11.695,4.216,0,15.145,0,28.421
	C0,39.979,8.548,53.245,20.75,56.51c2.824,0.756,6.137,0.688,9.25,0.688c2.686,0,5.773,0,8.25-0.568
	C51.057,53.691,60,40.348,60,28.422C60,15.112,48.246,4.16,33.167,2.8z M40.375,41.68h-20.75c-7.318,0-13.25-5.938-13.25-13.257
	c0-7.32,5.932-13.258,13.25-13.258h20.75c7.316,0,13.25,5.938,13.25,13.258C53.625,35.742,47.691,41.68,40.375,41.68z
	 M20.521,19.671c-0.83,0-1.5,0.672-1.5,1.501V33.93c0,0.829,0.67,1.502,1.5,1.502c0.828,0,1.5-0.673,1.5-1.502V21.172
	C22.021,20.343,21.35,19.671,20.521,19.671z M40.505,19.655c-0.828,0-1.5,0.672-1.5,1.502v12.757c0,0.829,0.672,1.501,1.5,1.501
	s1.5-0.672,1.5-1.501V21.157C42.005,20.328,41.333,19.655,40.505,19.655z"/>
</svg>
