<?xml version="1.0" encoding="utf-8"?>
<!-- Generator: Adobe Illustrator 16.0.0, SVG Export Plug-In . SVG Version: 6.00 Build 0)  -->
<!DOCTYPE svg PUBLIC "-//W3C//DTD SVG 1.1//EN" "http://www.w3.org/Graphics/SVG/1.1/DTD/svg11.dtd">
<svg version="1.1" id="Layer_2" xmlns="http://www.w3.org/2000/svg" xmlns:xlink="http://www.w3.org/1999/xlink" x="0px" y="0px"
	 width="60px" height="60px" viewBox="0 0 60 60" enable-background="new 0 0 60 60" xml:space="preserve">
<path d="M15.002,18.6c4.709,0,8.52-2.236,8.52-4.998s-3.812-5-8.52-5c-4.704,0-8.521,2.237-8.521,5
	C6.479,16.361,10.296,18.6,15.002,18.6z M30.068,10c4.707,0,8.52-2.236,8.52-4.999c0-2.762-3.812-5.001-8.52-5.001
	c-4.702,0-8.521,2.238-8.521,5.001C21.549,7.762,25.366,10,30.068,10z M45.002,18.6c4.71,0,8.518-2.236,8.518-4.998
	s-3.812-5-8.518-5c-4.701,0-8.521,2.237-8.521,5C36.48,16.361,40.301,18.6,45.002,18.6z M30.066,27.077
	c4.707,0,8.52-2.238,8.52-4.999c0-2.762-3.814-5-8.52-5c-4.703,0-8.522,2.236-8.522,5C21.545,24.839,25.363,27.077,30.066,27.077z
	 M30.001,33.364L0,16.264v26.401L30.001,60L60,42.665V16.264L30.001,33.364z M27.134,52.629L4.889,39.867V25.009l22.245,12.749
	V52.629z"/>
</svg>
