<?xml version="1.0" encoding="utf-8"?>
<!-- Generator: Adobe Illustrator 16.0.0, SVG Export Plug-In . SVG Version: 6.00 Build 0)  -->
<!DOCTYPE svg PUBLIC "-//W3C//DTD SVG 1.1//EN" "http://www.w3.org/Graphics/SVG/1.1/DTD/svg11.dtd">
<svg version="1.1" id="Layer_2" xmlns="http://www.w3.org/2000/svg" xmlns:xlink="http://www.w3.org/1999/xlink" x="0px" y="0px"
	 width="60px" height="60px" viewBox="0 0 60 60" enable-background="new 0 0 60 60" xml:space="preserve">
<g>
	<path d="M51.25,4.838l-5.29,5.155H16.249H14.04L8.75,4.838L0,12.193l7.416,6.862v2.222l0.001-0.001v29.018
		c0,2.688,2.247,4.868,5.019,4.868h35.13c2.771,0,5.018-2.18,5.018-4.868V19.056L60,12.193L51.25,4.838z M30,46.593l-9.5-10.229
		h4.072v-4.385h10.856v4.385H39.5L30,46.593z M24.572,30.517v-2.924h10.856v2.924H24.572z M13,17.588l3.451-4.332h27.101
		l3.449,4.332H13z"/>
</g>
</svg>
