<?xml version="1.0" encoding="utf-8"?>
<!-- Generator: Adobe Illustrator 16.0.0, SVG Export Plug-In . SVG Version: 6.00 Build 0)  -->
<!DOCTYPE svg PUBLIC "-//W3C//DTD SVG 1.1//EN" "http://www.w3.org/Graphics/SVG/1.1/DTD/svg11.dtd">
<svg version="1.1" id="Layer_2" xmlns="http://www.w3.org/2000/svg" xmlns:xlink="http://www.w3.org/1999/xlink" x="0px" y="0px"
	 width="60px" height="60px" viewBox="0 0 60 60" enable-background="new 0 0 60 60" xml:space="preserve">
<path d="M48.145,16.261c-1.418-1.235-3.568-1.089-4.805,0.328L24.522,35.534l-6.788-5.922c-1.417-1.236-3.567-1.088-4.803,0.328
	c-1.236,1.417-1.088,3.567,0.328,4.804l9.299,8.11c0.019,0.017,0.031,0.036,0.05,0.052c0.709,0.619,1.604,0.892,2.474,0.83
	c0.871-0.055,1.721-0.445,2.341-1.155c0.017-0.021,0.03-0.048,0.049-0.069l21.001-21.448C49.707,19.647,49.561,17.497,48.145,16.261
	z"/>
<path d="M50,0H10C4.477,0,0,4.477,0,10v40c0,5.522,4.477,10,10,10h40c5.522,0,10-4.478,10-10V10C60,4.477,55.522,0,50,0z M55,47.5
	c0,4.143-3.357,7.5-7.5,7.5h-35C8.358,55,5,51.643,5,47.5v-35C5,8.358,8.358,5,12.5,5h35c4.143,0,7.5,3.358,7.5,7.5V47.5z"/>
</svg>
