<?xml version="1.0" encoding="utf-8"?>
<!-- Generator: Adobe Illustrator 16.0.0, SVG Export Plug-In . SVG Version: 6.00 Build 0)  -->
<!DOCTYPE svg PUBLIC "-//W3C//DTD SVG 1.1//EN" "http://www.w3.org/Graphics/SVG/1.1/DTD/svg11.dtd">
<svg version="1.1" id="Layer_2" xmlns="http://www.w3.org/2000/svg" xmlns:xlink="http://www.w3.org/1999/xlink" x="0px" y="0px"
	 width="60px" height="60px" viewBox="0 0 60 60" enable-background="new 0 0 60 60" xml:space="preserve">
<g>
	<path fill="none" d="M47,25.266c0-7.25-1.953-12.531-5.781-15.766c-3.547-3.016-8.047-3.641-11.188-3.641S22.391,6.484,18.812,9.5
		c-3.844,3.25-5.797,8.562-5.797,15.812c0,7.969-0.844,13.266-2.719,17.219C9.312,44.625,8.094,46.094,6.75,47.5h46.547
		C49.328,43.594,47,38.359,47,25.266z"/>
	<path d="M60,51.547c-5.906-5.016-10.359-6.938-10.359-24.719c0-15.25-8.203-20.438-15.875-21.594c0-0.078,0.016-0.156,0.016-0.25
		c0-1.922-1.703-3.453-3.781-3.453s-3.719,1.531-3.719,3.453c0,0.094,0,0.172,0.016,0.25c-7.688,1.172-15.938,6.375-15.938,21.625
		c0,17.781-4.422,19.688-10.359,24.688h21.373c0.619,3.749,4.244,6.922,8.628,6.922c4.383,0,7.993-3.173,8.626-6.922H60z"/>
</g>
</svg>
