<?xml version="1.0" encoding="utf-8"?>
<!-- Generator: Adobe Illustrator 16.0.0, SVG Export Plug-In . SVG Version: 6.00 Build 0)  -->
<!DOCTYPE svg PUBLIC "-//W3C//DTD SVG 1.1//EN" "http://www.w3.org/Graphics/SVG/1.1/DTD/svg11.dtd">
<svg version="1.1" id="Layer_1" xmlns="http://www.w3.org/2000/svg" xmlns:xlink="http://www.w3.org/1999/xlink" x="0px" y="0px"
	 width="60px" height="60px" viewBox="0 0 60 60" enable-background="new 0 0 60 60" xml:space="preserve">
<path d="M27.515,0C20.547,0,14.155,2.423,9.079,6.452L2.667,0v20h19.879l-7.11-7.154c3.414-2.438,7.573-3.887,12.079-3.887
	c11.551,0,20.913,9.42,20.913,21.041c0,11.62-9.362,21.04-20.913,21.04c-5.772,0-10.999-2.354-14.782-6.16l-6.299,6.338
	C11.827,56.642,19.281,60,27.515,60c16.469,0,29.818-13.434,29.818-30.001C57.333,13.43,43.98,0,27.515,0z"/>
</svg>
