<?xml version="1.0" encoding="utf-8"?>
<!-- Generator: Adobe Illustrator 16.0.0, SVG Export Plug-In . SVG Version: 6.00 Build 0)  -->
<!DOCTYPE svg PUBLIC "-//W3C//DTD SVG 1.1//EN" "http://www.w3.org/Graphics/SVG/1.1/DTD/svg11.dtd">
<svg version="1.1" id="Layer_2" xmlns="http://www.w3.org/2000/svg" xmlns:xlink="http://www.w3.org/1999/xlink" x="0px" y="0px"
	 width="60px" height="60px" viewBox="0 0 60 60" enable-background="new 0 0 60 60" xml:space="preserve">
<path d="M60,51.547c-5.906-5.016-10.359-6.938-10.359-24.719c0-15.25-8.203-20.438-15.875-21.594c0-0.078,0.017-0.156,0.017-0.25
	c0-1.922-1.703-3.453-3.781-3.453s-3.719,1.531-3.719,3.453c0,0.094,0,0.172,0.016,0.25C18.61,6.406,10.36,11.609,10.36,26.859
	c0,17.782-4.422,19.688-10.359,24.688h21.373c0.619,3.749,4.244,6.922,8.628,6.922c4.383,0,7.993-3.173,8.626-6.922H60z
	 M15.515,27.043c0-6.185,1.666-10.716,4.945-13.488c3.053-2.573,6.892-3.106,9.571-3.106c2.679,0,6.518,0.533,9.545,3.106
	c3.264,2.759,4.93,7.265,4.93,13.449c0,11.17,0.608,15.635,3.994,18.968H12.169C13.316,44.772,15.515,33.843,15.515,27.043z"/>
</svg>
