<?xml version="1.0" encoding="utf-8"?>
<!-- Generator: Adobe Illustrator 16.0.0, SVG Export Plug-In . SVG Version: 6.00 Build 0)  -->
<!DOCTYPE svg PUBLIC "-//W3C//DTD SVG 1.1//EN" "http://www.w3.org/Graphics/SVG/1.1/DTD/svg11.dtd">
<svg version="1.1" id="Layer_1" xmlns="http://www.w3.org/2000/svg" xmlns:xlink="http://www.w3.org/1999/xlink" x="0px" y="0px"
	 width="60px" height="60px" viewBox="0 0 60 60" enable-background="new 0 0 60 60" xml:space="preserve">
<g>
	<path d="M15.003,12.884c2.37,0,4.286-1.912,4.286-4.278V4.327c0-2.365-1.916-4.278-4.286-4.278c-2.373,0-4.287,1.913-4.287,4.278
		v4.279C10.716,10.972,12.632,12.884,15.003,12.884z"/>
	<path d="M45,12.884c2.371,0,4.287-1.912,4.287-4.278V4.327c0-2.365-1.916-4.278-4.287-4.278c-2.372,0-4.287,1.913-4.287,4.278
		v4.279C40.713,10.972,42.628,12.884,45,12.884z"/>
	<path d="M58.929,4.326H51.43v5.442c0,3.008-3.109,5.254-6.323,5.254c-3.215,0-6.531-2.246-6.531-5.254V4.326H21.43v5.442
		c0,3.008-3.213,5.254-6.426,5.254c-3.217,0-6.429-2.246-6.429-5.254V4.326h-7.5C0.482,4.326,0,4.808,0,5.395v53.486
		c0,0.588,0.482,1.07,1.075,1.07h57.851c0.589,0,1.074-0.484,1.074-1.07V5.395C60.002,4.808,59.518,4.326,58.929,4.326z
		 M53.574,53.533h-0.003H6.431V19.301h47.143V53.533L53.574,53.533z"/>
</g>
</svg>
