<?xml version="1.0" encoding="utf-8"?>
<!-- Generator: Adobe Illustrator 16.0.0, SVG Export Plug-In . SVG Version: 6.00 Build 0)  -->
<!DOCTYPE svg PUBLIC "-//W3C//DTD SVG 1.1//EN" "http://www.w3.org/Graphics/SVG/1.1/DTD/svg11.dtd">
<svg version="1.1" id="Layer_2" xmlns="http://www.w3.org/2000/svg" xmlns:xlink="http://www.w3.org/1999/xlink" x="0px" y="0px"
	 width="60px" height="60px" viewBox="0 0 60 60" enable-background="new 0 0 60 60" xml:space="preserve">
<path fill="none" stroke="#000000" stroke-width="3.9748" stroke-miterlimit="10" d="M2.158,36.773c0,5.148,4.6,9.561,10.191,9.561
	h34.354c6.152,0,11.138-4.74,11.138-10.387c0-4.494-3.153-8.121-7.53-9.504c-0.598-3.209-3.644-5.898-7.322-5.898
	c-1.203,0-2.322,0.26-3.329,0.727c-2.313-4.434-7.245-7.597-12.975-7.597c-7.957,0-14.52,6-14.52,13.289
	c0,0.137,0.025,0.272,0.025,0.409C6.559,27.383,2.158,31.604,2.158,36.773z"/>
</svg>
