<?xml version="1.0" encoding="utf-8"?>
<!-- Generator: Adobe Illustrator 16.0.0, SVG Export Plug-In . SVG Version: 6.00 Build 0)  -->
<!DOCTYPE svg PUBLIC "-//W3C//DTD SVG 1.1//EN" "http://www.w3.org/Graphics/SVG/1.1/DTD/svg11.dtd">
<svg version="1.1" id="Layer_2" xmlns="http://www.w3.org/2000/svg" xmlns:xlink="http://www.w3.org/1999/xlink" x="0px" y="0px"
	 width="60px" height="60px" viewBox="0 0 60 60" enable-background="new 0 0 60 60" xml:space="preserve">
<g>
	<path d="M47.771,29.714c1.547-1.558,1.547-4.071,0-5.603c-1.545-1.557-4.109-1.557-5.653,0l-8.361,8.306V3.973
		C33.756,1.772,32.14,0,29.955,0c-2.188,0-3.804,1.772-3.804,3.974v28.47l-8.313-8.332c-1.545-1.557-4.062-1.557-5.606,0
		c-1.545,1.555-1.545,4.068-0.023,5.603l14.99,15.084c0,0,0,0,0,0.025c0.164,0.166,0.355,0.334,0.568,0.451
		c0.027,0.027,0.049,0.027,0.073,0.049c0.071,0.049,0.165,0.098,0.237,0.146c0.025,0.023,0.046,0.023,0.072,0.045
		c0.094,0.049,0.189,0.096,0.309,0.146l0,0c0.094,0.047,0.189,0.07,0.286,0.096c0.024,0,0.046,0.021,0.071,0.021
		c0.047,0,0.07,0.023,0.117,0.023c0.334,0.098,0.689,0.146,1.024,0.146c0.333,0,0.688-0.049,1.019-0.146
		c0.049,0,0.071-0.023,0.119-0.023c0.024,0,0.049-0.021,0.07-0.021c0.096-0.025,0.189-0.07,0.286-0.096l0,0
		c0.096-0.051,0.218-0.098,0.31-0.146c0.023-0.021,0.047-0.021,0.096-0.045c0.07-0.047,0.164-0.098,0.235-0.146
		c0.024-0.021,0.05-0.021,0.072-0.049c0.097-0.072,0.19-0.143,0.285-0.215l0,0c0.095-0.07,0.19-0.168,0.286-0.264
		c0,0,0.023,0,0.023-0.021L47.771,29.714z"/>
	<path d="M51.519,57.566c0,1.346-1.08,2.434-2.414,2.434H10.896c-1.334,0-2.414-1.088-2.414-2.434l0,0
		c0-1.344,1.08-2.432,2.414-2.432h38.209C50.437,55.135,51.519,56.225,51.519,57.566L51.519,57.566z"/>
</g>
</svg>
