<?xml version="1.0" encoding="utf-8"?>
<!-- Generator: Adobe Illustrator 16.0.0, SVG Export Plug-In . SVG Version: 6.00 Build 0)  -->
<!DOCTYPE svg PUBLIC "-//W3C//DTD SVG 1.1//EN" "http://www.w3.org/Graphics/SVG/1.1/DTD/svg11.dtd">
<svg version="1.1" id="Layer_2" xmlns="http://www.w3.org/2000/svg" xmlns:xlink="http://www.w3.org/1999/xlink" x="0px" y="0px"
	 width="60px" height="60px" viewBox="0 0 60 60" enable-background="new 0 0 60 60" xml:space="preserve">
<g>
	<path d="M0,56.999L0,56.999C0,58.657,1.343,60,3,60h17h1.5h11.781V44.125c0-1.657,1.344-3,3-3h7.438c1.656,0,3,1.343,3,3V60H57
		c1.656,0,3-1.343,3-3V8c0-1.657-1.344-3-3-3H23c-1.657,0-3,1.343-3,3v45.999h-9.784c0.018-0.109,0.033-0.219,0.033-0.333v-7.352
		c2.521-0.865,4.334-3.251,4.334-6.064c0,0-2.873-19.251-6.417-19.251S1.749,40.25,1.749,40.25c0,2.813,1.813,5.198,4.333,6.064
		v7.352c0,0.114,0.016,0.224,0.033,0.333H3C1.343,53.999,0,55.342,0,56.999z M44.5,29.833c0-1.657,1.344-3,3-3h2
		c1.656,0,3,1.343,3,3v2c0,1.657-1.344,3.001-3,3.001h-2c-1.656,0-3-1.344-3-3.001V29.833z M44.5,14.833c0-1.657,1.344-3,3-3h2
		c1.656,0,3,1.343,3,3v2c0,1.657-1.344,3-3,3h-2c-1.656,0-3-1.344-3-3V14.833z M27.5,29.833c0-1.657,1.344-3,3-3h2
		c1.656,0,3,1.343,3,3v2c0,1.657-1.344,3.001-3,3.001h-2c-1.656,0-3-1.344-3-3.001V29.833z M27.5,14.833c0-1.657,1.344-3,3-3h2
		c1.656,0,3,1.343,3,3v2c0,1.657-1.344,3-3,3h-2c-1.656,0-3-1.344-3-3V14.833z"/>
</g>
</svg>
