<?xml version="1.0" encoding="utf-8"?>
<!-- Generator: Adobe Illustrator 16.0.0, SVG Export Plug-In . SVG Version: 6.00 Build 0)  -->
<!DOCTYPE svg PUBLIC "-//W3C//DTD SVG 1.1//EN" "http://www.w3.org/Graphics/SVG/1.1/DTD/svg11.dtd">
<svg version="1.1" id="Layer_2" xmlns="http://www.w3.org/2000/svg" xmlns:xlink="http://www.w3.org/1999/xlink" x="0px" y="0px"
	 width="60px" height="60px" viewBox="0 0 60 60" enable-background="new 0 0 60 60" xml:space="preserve">
<path d="M0,37.462C0,43.137,4.955,48,10.982,48H48c6.629,0,12-5.227,12-11.45c0-4.95-3.402-8.95-8.116-10.475
	c-0.643-3.538-3.924-6.5-7.889-6.5c-1.3,0-2.504,0.286-3.589,0.8C37.915,15.486,32.598,12,26.424,12
	c-8.57,0-15.643,6.613-15.643,14.65c0,0.149,0.027,0.299,0.027,0.449C4.741,27.113,0,31.764,0,37.462z"/>
</svg>
