<?xml version="1.0" encoding="utf-8"?>
<!-- Generator: Adobe Illustrator 16.0.0, SVG Export Plug-In . SVG Version: 6.00 Build 0)  -->
<!DOCTYPE svg PUBLIC "-//W3C//DTD SVG 1.1//EN" "http://www.w3.org/Graphics/SVG/1.1/DTD/svg11.dtd">
<svg version="1.1" id="Layer_2" xmlns="http://www.w3.org/2000/svg" xmlns:xlink="http://www.w3.org/1999/xlink" x="0px" y="0px"
	 width="60px" height="60px" viewBox="0 0 60 60" enable-background="new 0 0 60 60" xml:space="preserve">
<g>
	<path d="M6,37H4c-2.209,0-4,1.791-4,4s1.791,4,4,4h2v6c0,4.418,3.582,8,8,8h38c4.418,0,8-3.582,8-8V9c0-4.418-3.582-8-8-8H14
		C9.582,1,6,4.582,6,9v6H4c-2.209,0-4,1.791-4,4s1.791,4,4,4h2 M11,23h4v-8h-4v-4.445c0-2.209,1.791-4,4-4h36c2.209,0,4,1.791,4,4
		v38.888c0,2.209-1.791,4-4,4H15c-2.209,0-4-1.791-4-4V45h4v-8h-4"/>
	<path d="M48.667,40.689v3.333H22.001v-3.333c0-4.295,2.713-7.949,6.517-9.363c1.786,1.667,4.177,2.695,6.815,2.695
		s5.028-1.028,6.814-2.695C45.952,32.74,48.667,36.393,48.667,40.689z M35.333,30.467c4.045,0,7.325-3.279,7.325-7.325
		c0-4.045-3.28-7.324-7.325-7.324s-7.323,3.28-7.323,7.324C28.01,27.186,31.288,30.467,35.333,30.467z"/>
</g>
</svg>
