<?xml version="1.0" encoding="utf-8"?>
<!-- Generator: Adobe Illustrator 16.0.0, SVG Export Plug-In . SVG Version: 6.00 Build 0)  -->
<!DOCTYPE svg PUBLIC "-//W3C//DTD SVG 1.1//EN" "http://www.w3.org/Graphics/SVG/1.1/DTD/svg11.dtd">
<svg version="1.1" id="Layer_2" xmlns="http://www.w3.org/2000/svg" xmlns:xlink="http://www.w3.org/1999/xlink" x="0px" y="0px"
	 width="60px" height="60px" viewBox="0 0 60 60" enable-background="new 0 0 60 60" xml:space="preserve">
<path d="M54,28.348h6v19.792v4h-4H4H0v-4V11.86v-4h4h24.875v0.008l2.932,2.931l0.006,7.639L27.21,13.86H6v32.281h48V28.348z
	 M38.605,18.856c0.696-0.582,1.438-1.012,2.229-1.401c0.791-0.387,1.597-0.69,2.415-0.909c0.818-0.217,1.43-0.38,2.172-0.489
	c0.743-0.109,1.418-0.176,2.023-0.199c0.604-0.024,0.883-0.036,1.25-0.036v6.18L60,13.495L48.695,4.86v5.595
	c-1.457,0.066-2.537,0.268-3.666,0.604c-1.127,0.336-1.942,0.757-2.789,1.263c-0.848,0.506-1.57,1.075-2.172,1.704
	c-0.603,0.631-1.103,1.267-1.498,1.91c-0.938,1.517-1.524,3.164-1.762,5.056C37.311,20.15,37.91,19.437,38.605,18.856z"/>
</svg>
