<?xml version="1.0" encoding="utf-8"?>
<!-- Generator: Adobe Illustrator 16.0.0, SVG Export Plug-In . SVG Version: 6.00 Build 0)  -->
<!DOCTYPE svg PUBLIC "-//W3C//DTD SVG 1.1//EN" "http://www.w3.org/Graphics/SVG/1.1/DTD/svg11.dtd">
<svg version="1.1" id="Layer_2" xmlns="http://www.w3.org/2000/svg" xmlns:xlink="http://www.w3.org/1999/xlink" x="0px" y="0px"
	 width="60px" height="60px" viewBox="0 0 60 60" enable-background="new 0 0 60 60" xml:space="preserve">
<path d="M14.648,7.193c-0.463,0.111-0.797,0.32-1.084,0.562L0.956,21.227c-0.335,0.305-0.494,0.66-0.701,1.062
	C0.016,22.756,0,23.27,0,23.802v25.384C0,51.182,1.529,53,3.648,53h52.226C58.009,53,60,51.182,60,49.186V10.413
	C60,8.417,58.009,7,55.874,7H16.162C15.588,7,15.174,7.064,14.648,7.193z M54.918,12.15V47.85H5.114V26.44h8.016
	c2.359,0,4.509-2.156,4.509-4.522V12.15H54.918L54.918,12.15z"/>
</svg>
