<?xml version="1.0" encoding="utf-8"?>
<!-- Generator: Adobe Illustrator 16.0.0, SVG Export Plug-In . SVG Version: 6.00 Build 0)  -->
<!DOCTYPE svg PUBLIC "-//W3C//DTD SVG 1.1//EN" "http://www.w3.org/Graphics/SVG/1.1/DTD/svg11.dtd">
<svg version="1.1" id="Layer_2" xmlns="http://www.w3.org/2000/svg" xmlns:xlink="http://www.w3.org/1999/xlink" x="0px" y="0px"
	 width="60px" height="60px" viewBox="0 0 60 60" enable-background="new 0 0 60 60" xml:space="preserve">
<polyline points="31.807,10.799 28.875,7.868 28.875,7.86 4,7.86 0,7.86 0,11.86 0,48.141 0,52.141 4,52.141 56,52.141 60,52.141 
	60,48.141 60,28.348 54,28.348 54,46.141 6,46.141 6,13.86 27.21,13.86 31.812,18.438 "/>
<path d="M38.57,18.936c0.396-0.643,0.896-1.279,1.498-1.91c0.602-0.629,1.324-1.198,2.172-1.704
	c0.847-0.506,1.662-0.927,2.789-1.263c1.129-0.336,2.209-0.538,3.666-0.604V7.86L60,16.495l-11.305,8.507v-6.18
	c-0.367,0-0.645,0.012-1.25,0.036c-0.605,0.023-1.28,0.09-2.023,0.199c-0.742,0.109-1.354,0.272-2.172,0.489
	c-0.818,0.219-1.624,0.522-2.415,0.909c-0.792,0.389-1.533,0.819-2.229,1.401c-0.696,0.581-1.295,1.294-1.797,2.136
	C37.046,22.1,37.633,20.453,38.57,18.936z"/>
</svg>
