<?xml version="1.0" encoding="utf-8"?>
<!-- Generator: Adobe Illustrator 16.0.0, SVG Export Plug-In . SVG Version: 6.00 Build 0)  -->
<!DOCTYPE svg PUBLIC "-//W3C//DTD SVG 1.1//EN" "http://www.w3.org/Graphics/SVG/1.1/DTD/svg11.dtd">
<svg version="1.1" id="Layer_2" xmlns="http://www.w3.org/2000/svg" xmlns:xlink="http://www.w3.org/1999/xlink" x="0px" y="0px"
	 width="60px" height="60px" viewBox="0 0 60 60" enable-background="new 0 0 60 60" xml:space="preserve">
<g>
	<g>
		<polyline points="31.807,10.799 28.875,7.868 28.875,7.86 4,7.86 0,7.86 0,11.86 0,48.141 0,52.141 4,52.141 56,52.141 60,52.141 
			60,48.141 60,28.348 54,28.348 54,46.141 6,46.141 6,13.86 27.21,13.86 31.812,18.438 		"/>
	</g>
	<path d="M54.998,24.137h-7.045c-2.057,0-3.837-1.245-4.63-3.02c-0.277-0.627-0.437-1.321-0.435-2.043v-1.983h3.021v1.983
		c0,1.108,0.938,2.045,2.044,2.045h7.048c1.104,0,1.979-0.938,1.979-2.045v-2.013c0-1.108-0.873-1.981-1.981-1.983h-0.03h-1.031
		c-0.354-1.95-1.987-3.018-1.987-3.018h3.052c2.777,0,4.999,2.219,4.999,5v2.014C60,21.854,57.777,24.137,54.998,24.137z
		 M41.878,21.12h-0.969c-1.108,0-2.046-0.938-2.046-2.046v-2.012c0-1.107,0.938-1.982,2.046-1.983h7.014h0.03
		c1.105,0,1.98,0.875,1.982,1.983v2.013c-0.002,0.013-0.002,0.018,0,0.032h3.02c-0.001-0.014,0-0.019-0.001-0.032V17.06
		c0-0.705-0.146-1.376-0.401-1.981c-0.763-1.781-2.523-3.019-4.6-3.019h-7.045c-2.78,0-5.064,2.22-5.064,5v2.014
		c0,2.78,2.284,5.063,5.065,5.063h2.985C43.895,24.138,42.273,23.069,41.878,21.12z"/>
</g>
</svg>
