<?xml version="1.0" encoding="utf-8"?>
<!-- Generator: Adobe Illustrator 16.0.0, SVG Export Plug-In . SVG Version: 6.00 Build 0)  -->
<!DOCTYPE svg PUBLIC "-//W3C//DTD SVG 1.1//EN" "http://www.w3.org/Graphics/SVG/1.1/DTD/svg11.dtd">
<svg version="1.1" id="Layer_2" xmlns="http://www.w3.org/2000/svg" xmlns:xlink="http://www.w3.org/1999/xlink" x="0px" y="0px"
	 width="60px" height="60px" viewBox="0 0 60 60" enable-background="new 0 0 60 60" xml:space="preserve">
<rect x="15.8" y="16.35" width="28.112" height="8.9"/>
<rect x="15.8" y="39.2" width="28.112" height="4.7"/>
<rect x="15.8" y="29.65" width="12" height="4.699"/>
<path d="M51.587,6.5H8.814C6.818,6.5,5,8.491,5,10.626v3.124v10.912V46.25v3.124C5,51.509,6.417,53.5,8.413,53.5h42.772
	c1.996,0,3.814-1.991,3.814-4.126V46.25v2.088V13.75v-3.124C55,8.491,53.583,6.5,51.587,6.5z M49.85,43.86v4.558H10.151V29.139
	l0-0.127v-17.43H49.85v2.168V43.86z"/>
<rect x="31.913" y="29.65" width="12" height="4.699"/>
</svg>
