<?xml version="1.0" encoding="utf-8"?>
<!-- Generator: Adobe Illustrator 16.0.0, SVG Export Plug-In . SVG Version: 6.00 Build 0)  -->
<!DOCTYPE svg PUBLIC "-//W3C//DTD SVG 1.1//EN" "http://www.w3.org/Graphics/SVG/1.1/DTD/svg11.dtd">
<svg version="1.1" id="Layer_2" xmlns="http://www.w3.org/2000/svg" xmlns:xlink="http://www.w3.org/1999/xlink" x="0px" y="0px"
	 width="60px" height="60px" viewBox="0 0 60 60" enable-background="new 0 0 60 60" xml:space="preserve">
<g>
	<path d="M51.186,0H21.802c-0.532,0-1.046,0.016-1.513,0.255c-0.402,0.207-0.757,0.366-1.062,0.701L5.756,13.564
		c-0.242,0.287-0.451,0.621-0.562,1.084C5.065,15.174,5,15.588,5,16.162v39.712C5,58.009,6.417,60,8.413,60h42.772
		C53.182,60,55,58.009,55,55.874V3.648C55,1.529,53.182,0,51.186,0z M10.151,17.639h9.767c2.366,0,4.521-2.15,4.521-4.509V5.114
		h25.41V31.5H10.151V17.639z M15.617,41.293V38.75h10.661v1.193c0,0.168-0.027,0.336-0.083,0.498
		c-0.056,0.164-0.132,0.314-0.231,0.461l-6.689,9.557h6.788V53H15.069v-1.271c0-0.15,0.026-0.297,0.078-0.443
		c0.052-0.146,0.124-0.283,0.216-0.406l6.709-9.586H15.617z M28.086,53V38.75h3.326V53H28.086z M34.173,53V38.75H39.2
		c1.004,0,1.866,0.119,2.587,0.355c0.719,0.238,1.312,0.564,1.779,0.982s0.811,0.91,1.031,1.479s0.334,1.18,0.336,1.842
		c0,0.709-0.115,1.361-0.343,1.957c-0.229,0.59-0.577,1.1-1.048,1.521c-0.47,0.424-1.062,0.756-1.784,0.994
		c-0.722,0.236-1.573,0.357-2.559,0.357h-1.72V53H34.173z"/>
	<path d="M41.059,45.127c0.377-0.41,0.565-0.984,0.566-1.723c0-0.328-0.048-0.623-0.146-0.893c-0.098-0.266-0.246-0.498-0.444-0.689
		c-0.199-0.189-0.449-0.34-0.755-0.443c-0.303-0.104-0.662-0.154-1.079-0.154h-1.722v4.518H39.2
		C40.061,45.742,40.68,45.537,41.059,45.127z"/>
</g>
</svg>
