<?xml version="1.0" encoding="utf-8"?>
<!-- Generator: Adobe Illustrator 16.0.0, SVG Export Plug-In . SVG Version: 6.00 Build 0)  -->
<!DOCTYPE svg PUBLIC "-//W3C//DTD SVG 1.1//EN" "http://www.w3.org/Graphics/SVG/1.1/DTD/svg11.dtd">
<svg version="1.1" id="Layer_2" xmlns="http://www.w3.org/2000/svg" xmlns:xlink="http://www.w3.org/1999/xlink" x="0px" y="0px"
	 width="60px" height="60px" viewBox="0 0 60 60" enable-background="new 0 0 60 60" xml:space="preserve">
<path d="M33.739,33.537h-3.854V32.6c0-1.901,1.087-3.065,2.601-4.078c1.593-1.062,1.859-1.683,1.859-2.328
	c0-1.293-1.077-2.268-2.507-2.268c-1.318,0-2.308,1.096-2.756,2.033l-3.41-1.562c0.997-2.086,3.177-4.316,6.303-4.316
	c3.562,0,6.354,2.668,6.354,6.077c0,2.638-1.752,3.816-3.729,5.01c-0.789,0.523-0.862,0.971-0.862,1.709v0.659L33.739,33.537
	L33.739,33.537z M29.892,35.896h4.217v4.022h-4.217V35.896z M14.648,7.193c-0.463,0.111-0.797,0.32-1.084,0.562L0.956,21.227
	c-0.335,0.305-0.494,0.66-0.701,1.062C0.016,22.756,0,23.27,0,23.802v25.384C0,51.182,1.529,53,3.648,53h52.226
	C58.009,53,60,51.182,60,49.186V10.413C60,8.417,58.009,7,55.874,7H16.162C15.588,7,15.174,7.064,14.648,7.193z M54.918,12.15V47.85
	H5.114V26.44h8.016c2.359,0,4.509-2.156,4.509-4.522V12.15H54.918L54.918,12.15z"/>
</svg>
