<?xml version="1.0" encoding="utf-8"?>
<!-- Generator: Adobe Illustrator 16.0.0, SVG Export Plug-In . SVG Version: 6.00 Build 0)  -->
<!DOCTYPE svg PUBLIC "-//W3C//DTD SVG 1.1//EN" "http://www.w3.org/Graphics/SVG/1.1/DTD/svg11.dtd">
<svg version="1.1" id="Layer_2" xmlns="http://www.w3.org/2000/svg" xmlns:xlink="http://www.w3.org/1999/xlink" x="0px" y="0px"
	 width="60px" height="60px" viewBox="0 0 60 60" enable-background="new 0 0 60 60" xml:space="preserve">
<path d="M39.023,1.972c-1.523-0.635-2.926-1.069-4.091-1.367C32.957,0.104,28.355,0,28.355,0h-4.388H4.374v1.862v3.432v1.533h3.507
	h0.651h15.906h3.417c0,0,3.582,0.08,5.116,0.466c0.913,0.23,2.006,0.565,3.185,1.06c5.483,2.263,12.921,7.812,12.921,21.254
	c0,13.439-7.435,19.302-12.914,21.798c-1.186,0.541-2.275,0.92-3.188,1.188c-1.537,0.455-5.119,0.579-5.119,0.579h-3.414H8.532
	H7.881H4.374v1.534v3.433V60h19.598h4.388c0,0,4.602-0.162,6.576-0.748c1.165-0.345,2.571-0.841,4.095-1.541
	c7.042-3.229,16.596-10.818,16.596-28.218C55.626,12.086,46.065,4.901,39.023,1.972z"/>
</svg>
