<?xml version="1.0" encoding="utf-8"?>
<!-- Generator: Adobe Illustrator 16.0.0, SVG Export Plug-In . SVG Version: 6.00 Build 0)  -->
<!DOCTYPE svg PUBLIC "-//W3C//DTD SVG 1.1//EN" "http://www.w3.org/Graphics/SVG/1.1/DTD/svg11.dtd">
<svg version="1.1" id="Layer_2" xmlns="http://www.w3.org/2000/svg" xmlns:xlink="http://www.w3.org/1999/xlink" x="0px" y="0px"
	 width="60px" height="60px" viewBox="0 0 60 60" enable-background="new 0 0 60 60" xml:space="preserve">
<path d="M6,23H4c-2.209,0-4-1.791-4-4l0,0c0-2.209,1.791-4,4-4h2V23z"/>
<path d="M6,37h8v8H6v6c0,4.418,3.582,8,8,8h38c4.418,0,8-3.582,8-8V9c0-4.418-3.582-8-8-8H14C9.582,1,6,4.582,6,9v6h8v8H6
	 M34.999,15.988c4.009,0,7.26,3.25,7.26,7.259c0,4.01-3.251,7.259-7.26,7.259s-7.258-3.251-7.258-7.259S30.99,15.988,34.999,15.988z
	 M48.33,44.014H21.67V40.68c0-4.294,2.712-7.945,6.517-9.36c1.785,1.668,4.176,2.695,6.812,2.695c2.639,0,5.028-1.027,6.812-2.695
	c3.803,1.415,6.519,5.066,6.519,9.36V44.014z"/>
<path d="M6,45H4c-2.209,0-4-1.791-4-4l0,0c0-2.209,1.791-4,4-4h2V45z"/>
</svg>
