<?xml version="1.0" encoding="utf-8"?>
<!-- Generator: Adobe Illustrator 16.0.0, SVG Export Plug-In . SVG Version: 6.00 Build 0)  -->
<!DOCTYPE svg PUBLIC "-//W3C//DTD SVG 1.1//EN" "http://www.w3.org/Graphics/SVG/1.1/DTD/svg11.dtd">
<svg version="1.1" id="Layer_2" xmlns="http://www.w3.org/2000/svg" xmlns:xlink="http://www.w3.org/1999/xlink" x="0px" y="0px"
	 width="60px" height="60px" viewBox="0 0 60 60" enable-background="new 0 0 60 60" xml:space="preserve">
<path d="M14.5,31.667c0,0.735-0.597,1.333-1.333,1.333H9.833C9.097,33,8.5,32.402,8.5,31.667v-3.333C8.5,27.597,9.097,27,9.833,27
	h3.333c0.736,0,1.333,0.597,1.333,1.333V31.667z"/>
<path d="M51.5,31.667c0,0.735-0.598,1.333-1.333,1.333h-3.334c-0.735,0-1.333-0.598-1.333-1.333v-3.333
	c0-0.736,0.598-1.333,1.333-1.333h3.334c0.735,0,1.333,0.597,1.333,1.333V31.667z"/>
<path d="M33,31.667C33,32.402,32.402,33,31.667,33h-3.333C27.597,33,27,32.402,27,31.667v-3.333C27,27.597,27.597,27,28.333,27
	h3.333C32.402,27,33,27.597,33,28.333V31.667z"/>
</svg>
