<?xml version="1.0" encoding="utf-8"?>
<!-- Generator: Adobe Illustrator 16.0.0, SVG Export Plug-In . SVG Version: 6.00 Build 0)  -->
<!DOCTYPE svg PUBLIC "-//W3C//DTD SVG 1.1//EN" "http://www.w3.org/Graphics/SVG/1.1/DTD/svg11.dtd">
<svg version="1.1" id="Layer_2" xmlns="http://www.w3.org/2000/svg" xmlns:xlink="http://www.w3.org/1999/xlink" x="0px" y="0px"
	 width="60px" height="60px" viewBox="0 0 60 60" enable-background="new 0 0 60 60" xml:space="preserve">
<path d="M32.78,43.5c1.224,0,2.22,0.996,2.22,2.22v5.561c0,1.224-0.996,2.22-2.22,2.22h-5.558C25.996,53.5,25,52.504,25,51.28
	v-5.556c0-1.229,0.996-2.224,2.222-2.224L32.78,43.5L32.78,43.5z"/>
<path d="M32.78,6.5C34.004,6.5,35,7.496,35,8.722v5.557c0,1.226-0.996,2.222-2.22,2.222h-5.558C25.996,16.5,25,15.504,25,14.278
	V8.722C25,7.496,25.996,6.5,27.223,6.5H32.78z"/>
<path d="M32.78,25c1.224,0,2.22,0.996,2.22,2.222v5.554C35,34.004,34.004,35,32.78,35h-5.558C25.996,35,25,34.004,25,32.78v-5.558
	C25,25.996,25.996,25,27.222,25H32.78z"/>
</svg>
