<?xml version="1.0" encoding="utf-8"?>
<!-- Generator: Adobe Illustrator 16.0.0, SVG Export Plug-In . SVG Version: 6.00 Build 0)  -->
<!DOCTYPE svg PUBLIC "-//W3C//DTD SVG 1.1//EN" "http://www.w3.org/Graphics/SVG/1.1/DTD/svg11.dtd">
<svg version="1.1" id="Layer_2" xmlns="http://www.w3.org/2000/svg" xmlns:xlink="http://www.w3.org/1999/xlink" x="0px" y="0px"
	 width="60px" height="60px" viewBox="0 0 60 60" enable-background="new 0 0 60 60" xml:space="preserve">
<g>
	<rect x="23.119" y="29.786" transform="matrix(-0.7071 0.7071 -0.7071 -0.7071 97.4092 34.2855)" width="36.969" height="15.063"/>
	<polygon points="18.922,60 30.125,60 19.564,49.271 	"/>
</g>
<path d="M4.65,49.589V20.441h9.723c2.136,0,4.083-1.94,4.083-4.07V4.618h22.041V15.63h4.651V3.294C45.148,1.38,43.506,0,41.704,0
	H15.171c-0.48,0-0.944,0.016-1.366,0.23c-0.363,0.187-0.684,0.33-0.959,0.633L0.683,14.055c-0.218,0.258-0.407,0.561-0.508,0.979
	C0.059,15.507,0,15.881,0,16.4v34.052c0,1.928,1.279,3.726,3.082,3.726h10.205v-4.589H4.65z"/>
</svg>
