<?xml version="1.0" encoding="utf-8"?>
<!-- Generator: Adobe Illustrator 16.0.0, SVG Export Plug-In . SVG Version: 6.00 Build 0)  -->
<!DOCTYPE svg PUBLIC "-//W3C//DTD SVG 1.1//EN" "http://www.w3.org/Graphics/SVG/1.1/DTD/svg11.dtd">
<svg version="1.1" id="Layer_1" xmlns="http://www.w3.org/2000/svg" xmlns:xlink="http://www.w3.org/1999/xlink" x="0px" y="0px"
	 width="60px" height="60px" viewBox="0 0 60 60" enable-background="new 0 0 60 60" xml:space="preserve">
<g>
	<polygon points="51.573,8.675 51.573,0 45.229,0 45.229,8.675 36.8,8.675 36.8,14.914 45.229,14.914 45.229,23.2 51.573,23.2 
		51.573,14.914 60,14.914 60,8.675 	"/>
	<path d="M23,14L3,25.5v23L23,60l20-11.5v-23L23,14z M20.366,53.848L6.98,46.203V30.195l13.386,7.699V53.848z M9.04,26.695
		l13.985-8.034l13.338,7.671l-13.937,8.062L9.04,26.695z M39.125,40.536c0.204,0.099,0.432,0.138,0.671,0.132
		c-0.146,0.543-0.317,1.096-0.537,1.664c-0.215,0.562-0.463,1.113-0.729,1.654c-0.234-0.004-0.486,0.035-0.76,0.133
		c-1.615,0.568-3.273,2.749-3.707,4.873c-0.074,0.361-0.103,0.699-0.101,1.006c-0.828,0.705-1.683,1.259-2.521,1.65
		c0.002-0.317-0.027-0.616-0.104-0.887c-0.431-1.551-2.09-1.551-3.707,0c-0.273,0.266-0.527,0.561-0.763,0.871
		c-0.54-0.393-0.966-0.947-1.257-1.648c0.24-0.31,0.467-0.643,0.672-1.012c1.181-2.117,1.183-4.303-0.002-4.871
		c-0.197-0.095-0.422-0.134-0.656-0.133c0.146-0.533,0.316-1.083,0.529-1.642c0.212-0.562,0.46-1.111,0.722-1.646
		c0.233,0.004,0.49-0.035,0.767-0.134c1.614-0.567,3.271-2.751,3.707-4.872c0.075-0.367,0.104-0.707,0.101-1.02
		c0.821-0.696,1.661-1.246,2.504-1.637c-0.004,0.308,0.026,0.6,0.098,0.861c0.435,1.555,2.093,1.555,3.706,0
		c0.28-0.266,0.532-0.562,0.768-0.874c0.548,0.39,0.974,0.94,1.271,1.64c-0.241,0.31-0.469,0.646-0.67,1.014
		C37.943,37.787,37.943,39.968,39.125,40.536z"/>
</g>
</svg>
