<?xml version="1.0" encoding="utf-8"?>
<!-- Generator: Adobe Illustrator 16.0.0, SVG Export Plug-In . SVG Version: 6.00 Build 0)  -->
<!DOCTYPE svg PUBLIC "-//W3C//DTD SVG 1.1//EN" "http://www.w3.org/Graphics/SVG/1.1/DTD/svg11.dtd">
<svg version="1.1" id="Layer_1" xmlns="http://www.w3.org/2000/svg" xmlns:xlink="http://www.w3.org/1999/xlink" x="0px" y="0px"
	 width="60px" height="60px" viewBox="0 0 60 60" enable-background="new 0 0 60 60" xml:space="preserve">
<g>
	<circle cx="22.521" cy="28.036" r="10.261"/>
	<path d="M33.068,38.598c-2.765,2.582-6.465,4.174-10.546,4.174c-4.082,0-7.782-1.592-10.547-4.174
		C6.09,40.788,1.89,46.44,1.89,53.086v5.159h41.264v-5.159C43.154,46.44,38.954,40.788,33.068,38.598z"/>
</g>
<g>
	<polygon points="51.573,8.675 51.573,0 45.229,0 45.229,8.675 36.8,8.675 36.8,14.914 45.229,14.914 45.229,23.2 51.573,23.2 
		51.573,14.914 60,14.914 60,8.675 	"/>
</g>
</svg>
