<?xml version="1.0" encoding="utf-8"?>
<!-- Generator: Adobe Illustrator 16.0.0, SVG Export Plug-In . SVG Version: 6.00 Build 0)  -->
<!DOCTYPE svg PUBLIC "-//W3C//DTD SVG 1.1//EN" "http://www.w3.org/Graphics/SVG/1.1/DTD/svg11.dtd">
<svg version="1.1" id="Layer_1" xmlns="http://www.w3.org/2000/svg" xmlns:xlink="http://www.w3.org/1999/xlink" x="0px" y="0px"
	 width="60px" height="60px" viewBox="0 0 60 60" enable-background="new 0 0 60 60" xml:space="preserve">
<path d="M51.573,8.675V0h-6.345v8.675H36.8v6.239h8.429V23.2h6.345v-8.286H60V8.675H51.573z M43.121,58.225H1.989v-5.49
	c0-6.545,4.129-12.479,10.275-14.767l0.802-0.298l0.625,0.584c2.421,2.262,5.569,3.508,8.863,3.508c3.293,0,6.44-1.246,8.864-3.509
	l0.624-0.583l0.802,0.298c6.146,2.287,10.277,8.222,10.277,14.767V58.225z M4.755,55.459h35.601v-2.725
	c0-5.124-3.071-9.794-7.723-11.867c-2.835,2.366-6.381,3.66-10.079,3.66c-3.699,0-7.245-1.293-10.079-3.66
	c-4.649,2.073-7.72,6.744-7.72,11.867V55.459z M22.555,17.655c-5.694,0-10.312,4.62-10.312,10.314
	c0,5.697,4.618,10.314,10.312,10.314c5.697,0,10.314-4.617,10.314-10.314C32.869,22.273,28.251,17.655,22.555,17.655z
	 M22.555,34.918c-3.837,0-6.949-3.109-6.949-6.949c0-3.838,3.111-6.949,6.949-6.949c3.838,0,6.95,3.111,6.95,6.949
	C29.504,31.809,26.393,34.918,22.555,34.918z"/>
</svg>
