<?xml version="1.0" encoding="utf-8"?>
<!-- Generator: Adobe Illustrator 16.0.0, SVG Export Plug-In . SVG Version: 6.00 Build 0)  -->
<!DOCTYPE svg PUBLIC "-//W3C//DTD SVG 1.1//EN" "http://www.w3.org/Graphics/SVG/1.1/DTD/svg11.dtd">
<svg version="1.1" id="Layer_1" xmlns="http://www.w3.org/2000/svg" xmlns:xlink="http://www.w3.org/1999/xlink" x="0px" y="0px"
	 width="60px" height="60px" viewBox="0 0 60 60" enable-background="new 0 0 60 60" xml:space="preserve">
<g>
	<polygon points="51.573,8.675 51.573,0 45.229,0 45.229,8.675 36.8,8.675 36.8,14.914 45.229,14.914 45.229,23.2 51.573,23.2 
		51.573,14.914 60,14.914 60,8.675 	"/>
</g>
<g id="Layer_1_2_">
	<path d="M22.979,18.588c9.908,0,17.943,2.754,17.943,6.152c0,3.399-8.032,6.153-17.943,6.153c-9.909,0-17.942-2.755-17.942-6.153
		C5.037,21.343,13.071,18.588,22.979,18.588z"/>
	<path d="M22.979,34.439c-7.73,0-14.521-1.286-18.455-3.938v22.945l0,0c0,3.397,8.547,6.153,18.455,6.153
		c9.908,0,18.455-2.757,18.455-6.153l0,0V30.501C37.5,33.153,30.709,34.439,22.979,34.439z"/>
</g>
</svg>
