<?xml version="1.0" encoding="utf-8"?>
<!-- Generator: Adobe Illustrator 16.0.0, SVG Export Plug-In . SVG Version: 6.00 Build 0)  -->
<!DOCTYPE svg PUBLIC "-//W3C//DTD SVG 1.1//EN" "http://www.w3.org/Graphics/SVG/1.1/DTD/svg11.dtd">
<svg version="1.1" id="Layer_1" xmlns="http://www.w3.org/2000/svg" xmlns:xlink="http://www.w3.org/1999/xlink" x="0px" y="0px"
	 width="60px" height="60px" viewBox="0 0 60 60" enable-background="new 0 0 60 60" xml:space="preserve">
<g>
	<polygon points="51.526,14.671 60,6.199 53.802,0 45.328,8.473 37.093,0.24 31,6.334 39.234,14.569 31.14,22.664 37.338,28.86 
		45.434,20.768 53.661,28.999 59.755,22.902 	"/>
</g>
<path d="M0,55.185c0-1.361,0.47-2.512,1.417-3.441c0.945-0.946,2.102-1.418,3.468-1.418c1.335,0,2.466,0.472,3.396,1.418
	c0.945,0.93,1.416,2.077,1.416,3.441c0,1.334-0.471,2.476-1.416,3.423C7.351,59.534,6.22,60,4.885,60
	c-1.366,0-2.525-0.466-3.468-1.393C0.472,57.679,0,56.54,0,55.185 M0.009,41.713c10.169,0,18.429,8.069,18.429,18.249h7.14
	c0-14.579-11.001-25.549-25.569-25.549L0.009,41.713L0.009,41.713z M0.022,18.875l-0.013,6.848
	c18.111,0,34.263,16.123,34.263,34.239l6.854-0.012C41.125,37.271,22.693,18.875,0.022,18.875L0.022,18.875z"/>
</svg>
