<?xml version="1.0" encoding="utf-8"?>
<!-- Generator: Adobe Illustrator 16.0.0, SVG Export Plug-In . SVG Version: 6.00 Build 0)  -->
<!DOCTYPE svg PUBLIC "-//W3C//DTD SVG 1.1//EN" "http://www.w3.org/Graphics/SVG/1.1/DTD/svg11.dtd">
<svg version="1.1" id="Layer_1" xmlns="http://www.w3.org/2000/svg" xmlns:xlink="http://www.w3.org/1999/xlink" x="0px" y="0px"
	 width="60px" height="60px" viewBox="0 0 60 60" enable-background="new 0 0 60 60" xml:space="preserve">
<path d="M43.684,0l14.018,14.014l-5.709,5.71L37.975,5.711L43.684,0z M54.248,21.678L60,16.018v6.006L54.248,21.678z M38.266,20.367
	H10.933C9.424,20.367,8.2,21.59,8.2,23.1v21.183c0,1.51,1.224,2.732,2.733,2.732h16.969l7.973,5.522l-0.57-5.522h2.961
	c1.512,0,2.734-1.224,2.734-2.732V23.1C41,21.59,39.775,20.367,38.266,20.367z M37.583,42.232c0,0.754-0.61,1.367-1.367,1.367
	H12.983c-0.754,0-1.366-0.613-1.366-1.367V25.15c0-0.754,0.612-1.367,1.366-1.367h23.233c0.757,0,1.367,0.612,1.367,1.367V42.232z
	 M16.058,27.77h17.083v4.099H16.058V27.77z M16.058,35.971h9.567v4.1h-9.567V35.971z M23.233,49.521v0.17
	c0,0.757-0.612,1.367-1.366,1.367H4.783c-0.755,0-1.367-0.61-1.367-1.367V38.76c0-0.754,0.612-1.365,1.367-1.365h0.228v-3.418H2.733
	C1.224,33.977,0,35.199,0,36.711v15.032c0,1.51,1.224,2.733,2.733,2.733h2.962L5.125,60l7.973-5.523h10.818
	c1.51,0,2.734-1.224,2.734-2.732v-2.221h-3.417V49.521z"/>
</svg>
