<?xml version="1.0" encoding="utf-8"?>
<!-- Generator: Adobe Illustrator 16.0.0, SVG Export Plug-In . SVG Version: 6.00 Build 0)  -->
<!DOCTYPE svg PUBLIC "-//W3C//DTD SVG 1.1//EN" "http://www.w3.org/Graphics/SVG/1.1/DTD/svg11.dtd">
<svg version="1.1" id="Layer_1" xmlns="http://www.w3.org/2000/svg" xmlns:xlink="http://www.w3.org/1999/xlink" x="0px" y="0px"
	 width="60px" height="60px" viewBox="0 0 60 60" enable-background="new 0 0 60 60" xml:space="preserve">
<g>
	<path d="M46.657,33.188c0-4.933-3.999-8.933-8.935-8.933c-4.934,0-8.935,4.001-8.935,8.933c0,4.938,4.001,8.938,8.935,8.938
		C42.658,42.127,46.657,38.127,46.657,33.188z"/>
	<path d="M17.882,33.003c4.936,0,8.934-4,8.934-8.933c0-4.938-3.998-8.938-8.934-8.938c-4.935,0-8.936,3.999-8.936,8.938
		C8.945,29.004,12.948,33.003,17.882,33.003z"/>
	<path d="M46.855,42.977c-2.393,2.239-5.599,3.616-9.133,3.616c-3.535,0-6.74-1.377-9.138-3.616
		c-5.095,1.898-8.736,6.795-8.736,12.551V60h35.744v-4.473C55.596,49.771,51.955,44.875,46.855,42.977z"/>
	<path d="M19.034,45.484c1.879-2.654,4.426-4.7,7.399-5.965c-0.705-1.252-1.21-2.631-1.465-4.093
		c-2.055,1.291-4.482,2.046-7.089,2.046c-3.537,0-6.741-1.381-9.134-3.619c-5.099,1.901-8.736,6.797-8.736,12.553v4.468h16.458
		C17,48.956,17.863,47.139,19.034,45.484z"/>
</g>
<polygon points="51.573,8.675 45.229,8.675 36.8,8.675 36.8,14.914 45.229,14.914 51.573,14.914 60,14.914 60,8.675 "/>
</svg>
