<?xml version="1.0" encoding="utf-8"?>
<!-- Generator: Adobe Illustrator 16.0.0, SVG Export Plug-In . SVG Version: 6.00 Build 0)  -->
<!DOCTYPE svg PUBLIC "-//W3C//DTD SVG 1.1//EN" "http://www.w3.org/Graphics/SVG/1.1/DTD/svg11.dtd">
<svg version="1.1" id="Layer_1" xmlns="http://www.w3.org/2000/svg" xmlns:xlink="http://www.w3.org/1999/xlink" x="0px" y="0px"
	 width="60px" height="60px" viewBox="0 0 60 60" enable-background="new 0 0 60 60" xml:space="preserve">
<g>
	<rect x="37.927" y="5.826" transform="matrix(0.7072 0.707 -0.707 0.7072 20.981 -30.9343)" width="19.821" height="8.075"/>
	<path d="M54.248,21.678L60,16.018v6.006L54.248,21.678z"/>
</g>
<g>
	<path d="M38.266,20.367H10.933C9.424,20.367,8.2,21.59,8.2,23.1v21.183c0,1.51,1.224,2.732,2.733,2.732h16.969l7.973,5.523
		l-0.57-5.523h2.961c1.511,0,2.734-1.223,2.734-2.732V23.1C41,21.59,39.776,20.367,38.266,20.367z M37.583,42.233
		c0,0.754-0.61,1.367-1.367,1.367H12.983c-0.754,0-1.366-0.613-1.366-1.367V25.15c0-0.754,0.612-1.367,1.366-1.367h23.233
		c0.757,0,1.367,0.612,1.367,1.367V42.233z"/>
	<rect x="16.058" y="27.77" width="17.083" height="4.099"/>
	<rect x="16.058" y="35.97" opacity="0.8" enable-background="new    " width="9.567" height="4.1"/>
	<path opacity="0.8" enable-background="new    " d="M23.233,49.522v0.17c0,0.756-0.612,1.366-1.366,1.366H4.783
		c-0.755,0-1.367-0.61-1.367-1.366V38.76c0-0.754,0.612-1.366,1.367-1.366h0.228v-3.417H2.733C1.224,33.977,0,35.199,0,36.711
		v15.032c0,1.51,1.224,2.733,2.733,2.733h2.962L5.125,60l7.973-5.523h10.818c1.51,0,2.734-1.224,2.734-2.733v-2.221H23.233z"/>
</g>
</svg>
