<?xml version="1.0" encoding="utf-8"?>
<!-- Generator: Adobe Illustrator 16.0.0, SVG Export Plug-In . SVG Version: 6.00 Build 0)  -->
<!DOCTYPE svg PUBLIC "-//W3C//DTD SVG 1.1//EN" "http://www.w3.org/Graphics/SVG/1.1/DTD/svg11.dtd">
<svg version="1.1" id="Layer_1" xmlns="http://www.w3.org/2000/svg" xmlns:xlink="http://www.w3.org/1999/xlink" x="0px" y="0px"
	 width="60px" height="60px" viewBox="0 0 60 60" enable-background="new 0 0 60 60" xml:space="preserve">
<path d="M40.309,20.115c-1.146-0.998-2.883-0.88-3.882,0.265l-16.01,19.345l-5.483-4.783c-1.145-0.998-2.882-0.879-3.88,0.267
	c-0.999,1.146-0.879,2.881,0.264,3.881l7.512,6.552c0.015,0.014,0.026,0.028,0.041,0.043c0.573,0.5,1.295,0.719,1.999,0.67
	c0.704-0.043,1.391-0.359,1.891-0.935c0.014-0.019,0.023-0.039,0.039-0.058l17.773-21.364
	C41.568,22.851,41.452,21.114,40.309,20.115z M39.531,35.952c-0.949,0-1.719,0.769-1.719,1.719v1.704v0.645v11.043
	c0,3.037-2.463,5.5-5.5,5.5H8.938c-3.038,0-5.5-2.463-5.5-5.5V27.688c0-3.038,2.462-5.5,5.5-5.5h11.026c0,0,0.001,0,0.003,0h2.35
	c0.95,0,1.719-0.769,1.719-1.719c0-0.949-0.77-1.719-1.719-1.719h-1.691h-0.659H6.875C3.078,18.75,0,21.829,0,25.625v27.5
	C0,56.923,3.078,60,6.875,60h27.5c3.796,0,6.875-3.077,6.875-6.875V40.02v-0.645v-1.704C41.25,36.721,40.48,35.952,39.531,35.952z
	 M51.992,19.726L37.975,5.712l5.709-5.711l14.018,14.014L51.992,19.726z M54.248,21.678L60,16.018v6.006L54.248,21.678z"/>
</svg>
