<?xml version="1.0" encoding="utf-8"?>
<!-- Generator: Adobe Illustrator 16.0.0, SVG Export Plug-In . SVG Version: 6.00 Build 0)  -->
<!DOCTYPE svg PUBLIC "-//W3C//DTD SVG 1.1//EN" "http://www.w3.org/Graphics/SVG/1.1/DTD/svg11.dtd">
<svg version="1.1" id="Layer_1" xmlns="http://www.w3.org/2000/svg" xmlns:xlink="http://www.w3.org/1999/xlink" x="0px" y="0px"
	 width="60px" height="60px" viewBox="0 0 60 60" enable-background="new 0 0 60 60" xml:space="preserve">
<g>
	<g>
		<path fill="none" stroke="#000000" stroke-width="3.4256" stroke-miterlimit="10" d="M35.799,39.229
			c3.49,0,6.321-2.83,6.321-6.317c0-3.493-2.831-6.321-6.321-6.321c-3.488,0-6.322,2.829-6.322,6.321
			C29.477,36.398,32.309,39.229,35.799,39.229z"/>
		<path fill="none" stroke="#000000" stroke-width="3.4256" stroke-miterlimit="10" d="M17,28.34c3.464,0,6.271-2.808,6.271-6.271
			c0-3.465-2.808-6.27-6.271-6.27s-6.271,2.805-6.271,6.27C10.729,25.532,13.535,28.34,17,28.34z"/>
		<path fill="none" stroke="#000000" stroke-width="3.4256" stroke-miterlimit="10" d="M43.189,44.453
			c-1.934,1.812-4.532,2.93-7.393,2.93c-2.863,0-5.456-1.117-7.394-2.93c-4.127,1.536-7.069,5.504-7.069,10.158v3.619h28.932v-3.619
			C50.266,49.956,47.32,45.989,43.189,44.453z"/>
		<path fill="none" stroke="#000000" stroke-width="3.4256" stroke-miterlimit="10" d="M21.984,34.951
			c-1.646,1.033-3.586,1.636-5.672,1.636c-2.828,0-5.395-1.103-7.31-2.894c-4.078,1.521-6.991,5.436-6.991,10.043v3.572h13.17
			c0.426-1.533,1.116-2.986,2.053-4.311c1.504-2.124,3.543-3.76,5.92-4.773C22.596,37.225,22.188,36.121,21.984,34.951z"/>
	</g>
	<polygon points="51.573,8.675 45.229,8.675 36.8,8.675 36.8,14.914 45.229,14.914 51.573,14.914 60,14.914 60,8.675 	"/>
</g>
</svg>
