<?xml version="1.0" encoding="utf-8"?>
<!-- Generator: Adobe Illustrator 16.0.0, SVG Export Plug-In . SVG Version: 6.00 Build 0)  -->
<!DOCTYPE svg PUBLIC "-//W3C//DTD SVG 1.1//EN" "http://www.w3.org/Graphics/SVG/1.1/DTD/svg11.dtd">
<svg version="1.1" id="Layer_1" xmlns="http://www.w3.org/2000/svg" xmlns:xlink="http://www.w3.org/1999/xlink" x="0px" y="0px"
	 width="60px" height="60px" viewBox="0 0 60 60" enable-background="new 0 0 60 60" xml:space="preserve">
<g>
	<polygon points="51.573,8.675 45.229,8.675 36.8,8.675 36.8,14.914 45.229,14.914 51.573,14.914 60,14.914 60,8.675 	"/>
</g>
<g>
	<path fill="none" stroke="#000000" stroke-width="2.7652" stroke-miterlimit="10" d="M32.361,39.264
		c-2.57,2.4-6.011,3.881-9.807,3.881c-3.795,0-7.236-1.479-9.807-3.881C7.276,41.3,3.372,46.557,3.372,52.734v4.107h38.366v-4.107
		C41.738,46.557,37.834,41.3,32.361,39.264z"/>
	<path d="M22.555,17.655c-5.694,0-10.312,4.62-10.312,10.314c0,5.697,4.618,10.314,10.312,10.314
		c5.697,0,10.314-4.617,10.314-10.314C32.869,22.273,28.251,17.655,22.555,17.655z M22.555,34.918c-3.837,0-6.949-3.109-6.949-6.949
		c0-3.838,3.111-6.949,6.949-6.949c3.838,0,6.95,3.111,6.95,6.949C29.504,31.809,26.393,34.918,22.555,34.918z"/>
</g>
</svg>
