<?xml version="1.0" encoding="utf-8"?>
<!-- Generator: Adobe Illustrator 16.0.0, SVG Export Plug-In . SVG Version: 6.00 Build 0)  -->
<!DOCTYPE svg PUBLIC "-//W3C//DTD SVG 1.1//EN" "http://www.w3.org/Graphics/SVG/1.1/DTD/svg11.dtd">
<svg version="1.1" id="Layer_2" xmlns="http://www.w3.org/2000/svg" xmlns:xlink="http://www.w3.org/1999/xlink" x="0px" y="0px"
	 width="60px" height="60px" viewBox="0 0 60 60" enable-background="new 0 0 60 60" xml:space="preserve">
<path display="none" fill="#828282" d="M21.76,12.764L11,7.667c0,0-2-1.069-4.833,2.549C3.334,13.834-0.778,19.5,3.694,28.667
	l1.348-1.833c0,0-1.729-2.708-1.667-4.458c0.043-1.225-0.291-4.249,2-8c0.984-1.61,2.625-3.708,4.75-5.062
	c0.25-0.25,9.5,4.75,9.5,4.75L21.76,12.764z"/>
<g>
	<g>
		<path fill="#EFC94C" d="M59.971,28.626c-3.193-7.78-10.679-16.386-10.679-16.386c-2.851,1.271-5.501,2.88-7.579,2.997
			c-3.451,0.193-8.115-2.343-9.217-2.734c-1.862-0.659-4.613-0.004-4.727,0.182c-0.114,0.187-5.066,2.629-8.89,4
			c-3.824,1.37-2.656,2.578-2.783,2.633c-0.127,0.055,0.974,1.49,2.779,2.462c5.904,2.079,10.547-0.861,11.163-1.314
			c0.616-0.454,1.212-0.201,1.212-0.201s16.544,13.375,17.447,13.641C53.827,34.299,60.625,29.971,59.971,28.626z"/>
		<path fill="#EFC94C" d="M19.568,41.852c0,0,2.838-5.537-3.359-4.889c0,0,0.906-6.476-4.662-4.042c0,0-1.787-4.113-4.625-2.231
			c-0.651,0.523-0.966,0.744-1.423,1.154c-0.774,0.697-3.434,3.42-0.934,6.35c1.463,1.716,10.179,11.557,12.082,12.168
			c1.902,0.611,4.186-1.021,4.304-1.162c0.053-0.066,1.06-0.631,1.649-1.374c0.703-0.888,1-1.972,1-1.972
			S24.418,41.229,19.568,41.852z"/>
	</g>
	<path fill="none" stroke="#EFC94C" stroke-width="3.1483" stroke-miterlimit="10" d="M50.199,35.87c0,0,1.119,4.901-3.77,6.151
		c0,0,0.193,4.856-5.068,4.959c0,0-0.422,5.31-6.521,3.512l-1.2-0.151c0,0-2.359,5.708-10.312-0.37"/>
	<path fill="none" stroke="#EFC94C" stroke-width="3.1483" stroke-miterlimit="10" d="M19.912,13.663L8.322,9.509
		c0,0-10.495,4.539-5.057,21.095"/>
	
		<line fill="none" stroke="#EFC94C" stroke-width="3.1483" stroke-miterlimit="10" x1="31.748" y1="30.229" x2="46.396" y2="42.611"/>
	
		<line fill="none" stroke="#EFC94C" stroke-width="3.1483" stroke-miterlimit="10" x1="28.205" y1="35.968" x2="41.361" y2="46.98"/>
	
		<line fill="none" stroke="#EFC94C" stroke-width="3.1483" stroke-miterlimit="10" x1="25.772" y1="42.322" x2="33.643" y2="50.341"/>
</g>
</svg>
