<?xml version="1.0" encoding="utf-8"?>
<!-- Generator: Adobe Illustrator 16.0.0, SVG Export Plug-In . SVG Version: 6.00 Build 0)  -->
<!DOCTYPE svg PUBLIC "-//W3C//DTD SVG 1.1//EN" "http://www.w3.org/Graphics/SVG/1.1/DTD/svg11.dtd">
<svg version="1.1" id="Layer_2" xmlns="http://www.w3.org/2000/svg" xmlns:xlink="http://www.w3.org/1999/xlink" x="0px" y="0px"
	 width="60px" height="60px" viewBox="0 0 60 60" enable-background="new 0 0 60 60" xml:space="preserve">
<g>
	<path fill="none" stroke="#000000" stroke-width="3.7292" stroke-miterlimit="10" d="M35.284,24.502
		c0-2.988-2.425-5.412-5.413-5.412s-5.413,2.424-5.413,5.412c0,2.989,2.423,5.411,5.413,5.411
		C32.859,29.913,35.284,27.491,35.284,24.502z"/>
	<path fill="none" stroke="#000000" stroke-width="3.5926" stroke-miterlimit="10" d="M14.363,21.157
		c2.857,0,5.174-2.315,5.174-5.173s-2.316-5.173-5.174-5.173c-2.858,0-5.174,2.314-5.174,5.173
		C9.189,18.841,11.505,21.157,14.363,21.157z"/>
	<path fill="none" stroke="#000000" stroke-width="4.2458" stroke-miterlimit="10" d="M37.08,35.759
		c-1.888,1.766-4.421,2.854-7.209,2.854c-2.789,0-5.318-1.088-7.209-2.854c-4.022,1.501-6.893,5.364-6.893,9.902v3.527h28.206
		v-3.527C43.977,41.123,41.103,37.255,37.08,35.759z"/>
	<path fill="none" stroke="#000000" stroke-width="3.5926" stroke-miterlimit="10" d="M19.233,29.313
		c-0.463-0.826-0.797-1.735-0.965-2.702c-1.356,0.854-2.959,1.352-4.68,1.352c-2.333,0-4.449-0.909-6.029-2.389
		c-3.365,1.254-5.767,4.483-5.767,8.283v1.675h10.863C13.511,33.845,17.272,30.148,19.233,29.313z"/>
	<path fill="none" stroke="#000000" stroke-width="3.5926" stroke-miterlimit="10" d="M51.772,15.984
		c0-2.859-2.315-5.173-5.174-5.173c-2.857,0-5.174,2.314-5.174,5.173c0,2.856,2.316,5.173,5.174,5.173
		C49.457,21.157,51.772,18.84,51.772,15.984z"/>
	<path fill="none" stroke="#000000" stroke-width="3.5926" stroke-miterlimit="10" d="M47.308,35.532H58.17v-1.676
		c0-3.799-2.401-7.029-5.767-8.282c-1.58,1.479-3.696,2.388-6.029,2.388c-1.721,0-3.324-0.498-4.68-1.351
		c-0.168,0.966-0.502,1.876-0.965,2.702C42.69,30.148,46.451,33.845,47.308,35.532z"/>
</g>
</svg>
