<?xml version="1.0" encoding="utf-8"?>
<!-- Generator: Adobe Illustrator 16.0.0, SVG Export Plug-In . SVG Version: 6.00 Build 0)  -->
<!DOCTYPE svg PUBLIC "-//W3C//DTD SVG 1.1//EN" "http://www.w3.org/Graphics/SVG/1.1/DTD/svg11.dtd">
<svg version="1.1" id="Layer_2" xmlns="http://www.w3.org/2000/svg" xmlns:xlink="http://www.w3.org/1999/xlink" x="0px" y="0px"
	 width="60px" height="60px" viewBox="0 0 60 60" enable-background="new 0 0 60 60" xml:space="preserve">
<path d="M30,0.001C13.46,0.001,0,13.458,0,30c0,16.541,13.462,29.998,30.002,29.998S59.999,46.541,59.999,30
	C59.999,13.458,46.54,0.001,30,0.001z M38.499,18.898c0.17,0.577,0.537,1.211,1.113,1.92l0.23,0.315
	c0.096,0.132,0.221,0.272,0.34,0.415c-0.346-0.096-0.783-0.205-1.331-0.325L38.1,18.934C38.253,18.93,38.384,18.916,38.499,18.898z
	 M35.677,19.445l0.799,1.277l-0.064,0.008l-0.338,0.262c-0.254,0.207-2.162,0.135-2.84-0.144c-0.019-0.1-0.051-0.246-0.089-0.408
	l0.373,0.278l0.507-0.085C34.876,20.49,35.418,19.94,35.677,19.445z M30,56.727c-6.235,0-12.175-2.143-16.944-6.07
	c0.237-0.146,0.427-0.291,0.545-0.391l0.627-0.525l-0.557-1.676l0.811-2.555l0.065-0.406c0-0.973-0.386-2.1-1.416-2.301
	c-0.117-0.047-0.421-0.525-0.602-0.652c-0.512-0.375-0.918-0.926-1.416-0.926c0,0-0.002,0-0.005,0c-0.092,0-0.35,0.145-0.507,0.043
	c-0.139-0.09-0.322-0.062-0.52-0.16c-0.117-0.057-0.314-0.084-0.288-0.047c-0.19-0.279-0.446-0.686-0.679-1.277
	c-0.187-0.518-0.351-0.775-1.222-1.752c-0.572-0.652-0.709-0.793-1.237-1.041l-0.224-0.102c-0.223-0.109-0.369-0.223-0.515-0.326
	c-0.228-0.164-0.512-0.371-0.923-0.537c-0.345-0.143-0.455-0.229-0.791-0.512c-0.12-0.109-0.261-0.229-0.433-0.34
	C3.44,33.482,3.272,31.744,3.272,30l0.004-0.333c0.266-0.688,0.51-1.855,0.393-2.447c-0.008-0.147,0.087-0.615,0.143-0.89
	c0.1-0.486,0.184-0.968,0.174-1.202c0.052-0.203,0.409-0.753,0.599-1.045c0.254-0.391,0.47-0.75,0.569-0.991
	c0.101-0.244,0.655-1.1,0.99-1.611L6.7,20.607c0.148-0.23,0.486-0.77,0.357-1.366c0.632-0.446,1.446-1.027,1.553-1.115
	c0.129-0.13,1.216-1.318,0.104-3.383c-0.036-0.067,0.382-0.12,0.365-0.147c0.095-0.174,0.66-0.458,0.66-0.839v-0.087
	c0-0.735,0.286-1.311,0.933-1.311h0.399c0.143,0,0.286-0.42,0.418-0.443l0.981,0.237l2.031-0.854l0.217-0.451
	c0.002-0.002,0.216-0.416,0.669-0.738c0.674-0.483,0.878-0.789,1.192-1.31l-0.965-0.724l1.137,0.513
	c0.135-0.132,0.399-1.021,1.092-1.763c0.807-0.863,1.269-1.677,1.215-1.677h0.502l0.357,0.225c0.108-0.121,0.561-0.313,0.909-0.784
	c4.629-1.698,9.734-1.906,14.544-0.925c-0.634,0.015-1.23,0.288-2.14,0.721c-0.221,0.105-0.418,0.245-0.535,0.285
	c-0.209,0.049-0.521,0.198-0.85,0.345c-0.2,0.087-0.571,0.261-0.613,0.279c-0.82,0-1.527,0.676-2.091,1.414
	c-0.704,1.282-0.533,2.052-0.308,2.434l0.463,0.816h0.333c-0.437,0-0.843,0.64-1.097,0.86L27.32,9.32l-1.148-2.419l-2.005,1.73
	v0.897l-1.229-0.42l-1.245,2.598l1.773,2.447l0.704-0.62v0.169l1.127-0.286c-0.028,0.281-0.084,0.562,0.01,0.821l-3.295,0.766
	l0.284,1.227c0.049,0.197,0.062,0.585,0.08,0.816c-0.453,1.795-0.045,2.34,0.117,2.551l0.296,0.326
	c-0.415,0.42-0.69,0.891-0.829,1.12c-0.186,0.219-0.528,0.606-0.601,1.18c-0.108,0.136-0.349,0.356-0.52,0.47l-0.218,0.136
	c-0.789,0.483-1.527,0.968-1.9,1.588c-0.466,0.779-0.756,1.465-0.869,2.038c-0.127,0.64-0.127,1.137-0.127,1.889
	c0,0.229-0.011,0.428-0.023,0.61c-0.023,0.399-0.052,0.812,0.04,1.353c0.192,1.151,1.778,3.221,1.799,3.247
	c0.496,0.619,1.083,1.314,1.764,1.719c0.35,0.211,0.806,0.588,0.994,0.744c0.45,0.533,1.502,0.99,2.531,0.598
	c0.289-0.111,0.58-0.162,0.862-0.23c0.519-0.115,1.11-0.244,1.693-0.574c0.134-0.074,0.253-0.145,0.363-0.197
	c0.451,0.75,1.374,1.119,2.309,0.812l0.019-0.01c0.033,0.193,0.062,0.373,0.092,0.539c0.035,0.162,0.063,0.305,0.062,0.59
	c-0.02,0.408-0.057,1.168,0.566,1.793c0.121,0.125,0.305,0.27,0.501,0.436c0.083,0.062,0.209,0.162,0.306,0.252
	c0.04,0.512,0.148,1.373,0.419,1.91c0.129,0.252,0.161,0.445,0.209,0.359c-0.229,0.453-0.68,1.682-0.725,1.834
	c-0.279,1.258-0.119,1.734-0.069,1.873c0.194,0.602,0.562,1.162,1.118,1.719c0.067,0.068,0.098,0.166,0.164,0.41
	c0.076,0.277,0.18,0.658,0.443,1.01c0.105,0.15,0.35,0.768,0.47,1.141l0.15,0.834l-0.002,2.32l1.376-0.193
	c0,0,2.257-0.332,2.695-0.441c0.513-0.133,2.246-0.936,2.87-1.555c0.317-0.316,0.468-0.613,0.569-0.809
	c0.082-0.152,0.092-0.174,0.171-0.242c0.515-0.408,1.451-1.129,1.451-1.129l0.508-0.389l-0.112-1.754l0.863-1.164l0.735-0.75
	c-0.171,0.416-0.39,0.951-0.47,1.268c-0.146,0.572-0.049,1.262,0.409,1.842l0.532,0.332h0.586l0.43,0.162
	c0.447-0.148,0.801-0.369,1.15-0.701c0.105-0.102,0.206-0.146,0.27-0.195c0.658-0.432,1.291-1.537,1.445-2.129l0.415-1.539
	c0.12-0.479,0.241-1.404,0.241-1.842c0-0.434-0.114-0.914-0.139-1.01l-0.751-3.035l-2.104,3.951c-0.31,0.15-0.53,0.289-0.73,0.434
	c0.003-0.182-0.014-0.332-0.035-0.408c-0.052-0.203-0.157-1.133-0.252-1.988c0.151-0.309,0.346-0.674,0.457-0.83
	c0.197-0.262,0.31-0.523,0.398-0.73c0.109-0.252,0.162-0.369,0.336-0.518c0.648-0.537,1.08-1.133,1.4-1.568l0.251-0.334
	c0.343-0.453,0.88-1.174,1.058-1.453c0.295-0.439,0.499-1.229,0.594-1.654l0.383-1.738l-1.439,0.242
	c0.171-0.086,0.328-0.166,0.434-0.242c0.085-0.053,0.23-0.139,0.396-0.232c0.658-0.365,1.146-0.649,1.452-0.955l0.646-0.47
	c0.566-0.374,1.271-0.844,1.357-1.655c0.127,0.098,0.258,0.192,0.414,0.265c0.103,0.066,0.35,0.336,0.549,0.587
	c0.15,0.351,0.523,1.237,0.602,1.548c0.055,0.208,0.209,0.596,0.381,1.002c0.131,0.311,0.276,0.635,0.308,0.664
	c0,0.271,0.122,1.084,0.575,1.602C54.676,46.676,43.487,56.727,30,56.727z M30.383,18.375c-0.01,0-0.03,0.005-0.038,0.005
	c-0.112-0.021-0.469-0.136-0.748-0.246l-0.271-0.105l-0.287,0.025c-0.101,0.012-0.248,0.03-0.413,0.05
	c0.01-0.015,0.033-0.05,0.04-0.057c0.085-0.127,0.164-0.249,0.488-0.352c0.595-0.198,0.914-0.475,1.024-0.621
	c0.172-0.052,0.577-0.134,0.903-0.188l0.506,0.336c0.149,0.176,0.36,0.373,0.667,0.565l-1.921,0.55L30.383,18.375z"/>
</svg>
