<?xml version="1.0" encoding="utf-8"?>
<!-- Generator: Adobe Illustrator 16.0.0, SVG Export Plug-In . SVG Version: 6.00 Build 0)  -->
<!DOCTYPE svg PUBLIC "-//W3C//DTD SVG 1.1//EN" "http://www.w3.org/Graphics/SVG/1.1/DTD/svg11.dtd">
<svg version="1.1" id="Layer_2" xmlns="http://www.w3.org/2000/svg" xmlns:xlink="http://www.w3.org/1999/xlink" x="0px" y="0px"
	 width="60px" height="60px" viewBox="0 0 60 60" enable-background="new 0 0 60 60" xml:space="preserve">
<g>
	<path d="M48.431,34.139c-3.17,2.951-7.416,4.771-12.095,4.771c-4.68,0-8.925-1.82-12.097-4.771
		c-6.747,2.502-11.567,8.961-11.567,16.549v5.889H60v-5.889C60.002,43.1,55.18,36.645,48.431,34.139z M16.675,52.799
		c0.003-6.367,1.844-10.795,7.509-12.896c2.665,2.48,8.218,3.213,12.151,3.213c3.933,0,9.485-0.732,12.149-3.213
		c5.667,2.105,7.734,6.529,7.736,12.896H16.675z M36.205,34.57c6.537,0,11.832-5.276,11.832-11.781S42.74,11.01,36.205,11.01
		c-6.537,0-11.832,5.274-11.832,11.779S29.667,34.57,36.205,34.57z M36.206,15.219c4.199,0,7.604,3.39,7.604,7.57
		s-3.403,7.572-7.604,7.572c-4.202,0-7.604-3.392-7.604-7.572S32.004,15.219,36.206,15.219z"/>
	<g>
		<path d="M19.454,22.9c5.405,0,9.781-4.361,9.781-9.739c0-5.377-4.378-9.737-9.781-9.737c-5.404,0-9.781,4.36-9.781,9.737
			C9.673,18.539,14.05,22.9,19.454,22.9z M19.455,6.903c3.473,0,6.287,2.803,6.287,6.258c0,3.457-2.813,6.261-6.287,6.261
			c-3.473,0-6.286-2.804-6.286-6.261C13.169,9.706,15.982,6.903,19.455,6.903z"/>
		<path d="M9.562,22.545C3.985,24.614,0,29.952,0,36.225v4.869h12.041l2.1-3.135L3.309,37.971c0.002-5.266,1.525-8.925,6.208-10.661
			c2.203,2.051,6.793,2.656,10.045,2.656c1.573,0,3.013-0.236,3.125-0.264l-0.94-3.388c0,0-0.25,0.176-2.183,0.176
			C15.694,26.489,12.184,24.985,9.562,22.545z"/>
	</g>
</g>
</svg>
