<?xml version="1.0" encoding="utf-8"?>
<!-- Generator: Adobe Illustrator 16.0.0, SVG Export Plug-In . SVG Version: 6.00 Build 0)  -->
<!DOCTYPE svg PUBLIC "-//W3C//DTD SVG 1.1//EN" "http://www.w3.org/Graphics/SVG/1.1/DTD/svg11.dtd">
<svg version="1.1" id="Layer_2" xmlns="http://www.w3.org/2000/svg" xmlns:xlink="http://www.w3.org/1999/xlink" x="0px" y="0px"
	 width="60px" height="60px" viewBox="0 0 60 60" enable-background="new 0 0 60 60" xml:space="preserve">
<path display="none" fill="#828282" d="M21.76,12.764L11,7.667c0,0-2-1.069-4.833,2.549C3.334,13.834-0.778,19.5,3.694,28.667
	l1.348-1.833c0,0-1.729-2.708-1.667-4.458c0.043-1.225-0.291-4.249,2-8c0.984-1.61,2.625-3.708,4.75-5.062
	c0.25-0.25,9.5,4.75,9.5,4.75L21.76,12.764z"/>
<path fill="#EFC94C" d="M59.971,28.626c-3.193-7.78-10.679-16.386-10.679-16.386c-2.851,1.271-5.501,2.88-7.579,2.997
	c-3.451,0.193-8.115-2.343-9.217-2.734c-1.862-0.659-4.613-0.004-4.727,0.182c-0.114,0.187-5.066,2.629-8.89,4
	c-3.824,1.37-2.656,2.578-2.783,2.633c-0.127,0.055,0.974,1.49,2.779,2.462c5.904,2.079,10.547-0.861,11.163-1.314
	c0.616-0.454,1.212-0.201,1.212-0.201s16.544,13.375,17.447,13.641C53.827,34.299,60.625,29.971,59.971,28.626z M19.568,41.852
	c0,0,2.838-5.537-3.359-4.889c0,0,0.906-6.476-4.662-4.042c0,0-1.787-4.113-4.625-2.231c-0.651,0.523-0.966,0.744-1.423,1.154
	c-0.774,0.697-3.434,3.42-0.934,6.35c1.463,1.717,10.179,11.558,12.082,12.168c1.902,0.611,4.186-1.021,4.304-1.161
	c0.053-0.066,1.06-0.632,1.649-1.374c0.703-0.889,1-1.973,1-1.973S24.418,41.229,19.568,41.852z M29.726,54.347
	c-2.167,0-4.633-1.046-7.354-3.125l1.912-2.502c3.214,2.457,5.146,2.654,6.201,2.389c1.209-0.306,1.689-1.346,1.71-1.391
	l0.478-1.061l2.612,0.325c1.497,0.439,2.635,0.41,3.381-0.091c0.979-0.659,1.126-2.036,1.127-2.051l0.139-1.391l1.398-0.044
	c1.175-0.022,2.062-0.339,2.64-0.94c0.907-0.945,0.887-2.381,0.887-2.396l-0.027-1.249l1.211-0.325
	c3.19-0.815,2.744-3.714,2.622-4.286l3.071-0.69c0.467,2.041,0.182,6.05-3.824,7.672c-0.158,0.954-0.571,2.291-1.633,3.417
	c-0.929,0.985-2.146,1.602-3.631,1.838c-0.303,0.938-0.923,2.164-2.179,3.028c-1.539,1.059-3.54,1.249-5.946,0.563l-0.069-0.009
	c-0.57,0.755-1.553,1.689-3.106,2.108C30.825,54.277,30.285,54.347,29.726,54.347z M1.77,31.095
	c-2.996-9.121-1.306-14.857,0.639-18.063c2.179-3.592,5.163-4.913,5.289-4.967l0.571-0.247l12.176,4.364l-1.062,2.964l-10.938-3.92
	c-1.867,1.121-7.946,5.908-3.683,18.888L1.77,31.095z M45.38,43.813L30.731,31.432l2.033-2.405l14.648,12.382L45.38,43.813z
	 M40.351,48.188L27.195,37.175l2.021-2.414l13.157,11.013L40.351,48.188z M32.52,51.443l-7.871-8.019l2.247-2.205l7.87,8.019
	L32.52,51.443z"/>
</svg>
