<?xml version="1.0" encoding="utf-8"?>
<!-- Generator: Adobe Illustrator 16.0.0, SVG Export Plug-In . SVG Version: 6.00 Build 0)  -->
<!DOCTYPE svg PUBLIC "-//W3C//DTD SVG 1.1//EN" "http://www.w3.org/Graphics/SVG/1.1/DTD/svg11.dtd">
<svg version="1.1" id="Layer_2" xmlns="http://www.w3.org/2000/svg" xmlns:xlink="http://www.w3.org/1999/xlink" x="0px" y="0px"
	 width="60px" height="60px" viewBox="0 0 60 60" enable-background="new 0 0 60 60" xml:space="preserve">
<g>
	<path d="M32.992,35.4h-6.635v-1.612c0-3.274,1.871-5.278,4.478-7.019c2.739-1.828,3.198-2.896,3.198-4.006
		c0-2.225-1.854-3.902-4.314-3.902c-2.267,0-3.968,1.885-4.74,3.498l-5.869-2.687c1.715-3.591,5.464-7.429,10.845-7.429
		c6.133,0,10.935,4.593,10.935,10.458c0,4.539-3.014,6.569-6.416,8.622c-1.359,0.904-1.484,1.669-1.484,2.941V35.4H32.992
		L32.992,35.4z"/>
	<rect x="26.371" y="39.462" width="7.258" height="6.922"/>
	<path d="M30,0C13.432,0,0,13.432,0,30s13.432,30,30,30s30-13.432,30-30S46.568,0,30,0z M30,55C16.193,55,5,43.807,5,30
		S16.193,5,30,5s25,11.193,25,25C55,43.809,43.807,55,30,55z"/>
</g>
</svg>
