<?xml version="1.0" encoding="utf-8"?>
<!-- Generator: Adobe Illustrator 16.0.0, SVG Export Plug-In . SVG Version: 6.00 Build 0)  -->
<!DOCTYPE svg PUBLIC "-//W3C//DTD SVG 1.1//EN" "http://www.w3.org/Graphics/SVG/1.1/DTD/svg11.dtd">
<svg version="1.1" id="Layer_2" xmlns="http://www.w3.org/2000/svg" xmlns:xlink="http://www.w3.org/1999/xlink" x="0px" y="0px"
	 width="60px" height="60px" viewBox="0 0 60 60" enable-background="new 0 0 60 60" xml:space="preserve">
<path d="M0,52.975c0-1.986,0.686-3.666,2.066-5.021c1.379-1.381,3.067-2.069,5.061-2.069c1.946,0,3.598,0.688,4.953,2.069
	c1.379,1.354,2.066,3.031,2.066,5.021c0,1.947-0.688,3.611-2.066,4.994C10.725,59.32,9.073,60,7.127,60
	c-1.993,0-3.684-0.678-5.061-2.031C0.688,56.613,0,54.952,0,52.975 M0.012,33.32c14.838,0,26.887,11.773,26.887,26.625h10.418
	c0-21.271-16.051-37.275-37.306-37.275L0.012,33.32L0.012,33.32z M0.032,0L0.012,9.991c26.426,0,49.99,23.522,49.99,49.954
	L60,59.926C60,26.84,33.109,0,0.032,0L0.032,0z"/>
</svg>
