<?xml version="1.0" encoding="utf-8"?>
<!-- Generator: Adobe Illustrator 16.0.0, SVG Export Plug-In . SVG Version: 6.00 Build 0)  -->
<!DOCTYPE svg PUBLIC "-//W3C//DTD SVG 1.1//EN" "http://www.w3.org/Graphics/SVG/1.1/DTD/svg11.dtd">
<svg version="1.1" id="Layer_2" xmlns="http://www.w3.org/2000/svg" xmlns:xlink="http://www.w3.org/1999/xlink" x="0px" y="0px"
	 width="60px" height="60px" viewBox="0 0 60 60" enable-background="new 0 0 60 60" xml:space="preserve">
<path fill="#DF4949" d="M55.078,8.289c-5.826-5.701-15.287-5.701-21.112,0L30,12.147l-3.966-3.872c-5.84-5.7-15.287-5.7-21.113,0
	c-6.562,6.404-6.562,16.802,0,23.208L30,56l25.078-24.505C61.641,25.091,61.641,14.692,55.078,8.289z M51.648,28.67L30,49.875
	L8.352,28.659c-5.665-5.528-5.665-11.87,0-17.398c5.029-4.92,13.182-1.333,18.225,3.589L30,18.191l3.423-3.331
	c5.03-4.919,13.197-8.508,18.226-3.588C57.313,16.8,57.313,23.143,51.648,28.67z"/>
</svg>
