<?xml version="1.0" encoding="utf-8"?>
<!-- Generator: Adobe Illustrator 16.0.0, SVG Export Plug-In . SVG Version: 6.00 Build 0)  -->
<!DOCTYPE svg PUBLIC "-//W3C//DTD SVG 1.1//EN" "http://www.w3.org/Graphics/SVG/1.1/DTD/svg11.dtd">
<svg version="1.1" id="Layer_2" xmlns="http://www.w3.org/2000/svg" xmlns:xlink="http://www.w3.org/1999/xlink" x="0px" y="0px"
	 width="60px" height="60px" viewBox="0 0 60 60" enable-background="new 0 0 60 60" xml:space="preserve">
<path d="M48.431,34.139c-3.17,2.951-7.416,4.771-12.095,4.771c-4.68,0-8.926-1.82-12.097-4.771
	c-6.747,2.502-11.567,8.961-11.567,16.549v5.889H60v-5.889C60.002,43.1,55.18,36.645,48.431,34.139z M36.205,34.57
	c6.537,0,11.832-5.276,11.832-11.781S42.74,11.01,36.205,11.01c-6.537,0-11.832,5.274-11.832,11.779S29.667,34.57,36.205,34.57z"/>
<g>
	<path d="M21.726,26.363c0,0-0.277,0.034-0.416,0.048c-0.497,0.051-1.001,0.078-1.511,0.078c-3.868,0-7.379-1.505-10-3.945
		c-5.578,2.068-9.563,7.407-9.563,13.679v4.87h9.326c1.701-5.748,9.455-10.234,12.223-11.925c0.124-0.076,0.397-0.182,0.397-0.182
		L21.726,26.363z"/>
	<path d="M21.374,21.46c0-5.057,3.206-9.357,7.702-11.027c-1.186-4.048-4.935-7.009-9.385-7.009c-5.404,0-9.781,4.36-9.781,9.738
		s4.375,9.739,9.781,9.739c0.6,0,1.185-0.062,1.755-0.165C21.4,22.316,21.374,21.892,21.374,21.46z"/>
</g>
</svg>
