<?xml version="1.0" encoding="utf-8"?>
<!-- Generator: Adobe Illustrator 16.0.0, SVG Export Plug-In . SVG Version: 6.00 Build 0)  -->
<!DOCTYPE svg PUBLIC "-//W3C//DTD SVG 1.1//EN" "http://www.w3.org/Graphics/SVG/1.1/DTD/svg11.dtd">
<svg version="1.1" id="Layer_2" xmlns="http://www.w3.org/2000/svg" xmlns:xlink="http://www.w3.org/1999/xlink" x="0px" y="0px"
	 width="60px" height="60px" viewBox="0 0 60 60" enable-background="new 0 0 60 60" xml:space="preserve">
<path d="M37.328,53.814l-0.004-33.746L16.789,22.35l-0.006,5.403l6.188-0.011l0.006,26.139l-6.19,1.229V60h26.428l0.003-4.863
	L37.328,53.814z M35.209,2.409C33.675,0.958,32.18,0,30.021,0s-4.357,0.958-5.9,2.408c-1.547,1.449-2.318,3.195-2.318,5.236
	s0.771,3.78,2.318,5.217c1.543,1.438,3.396,2.156,5.554,2.156c2.158,0,4-0.718,5.535-2.156c1.531-1.437,2.297-3.176,2.297-5.217
	C37.506,5.605,36.743,3.857,35.209,2.409z"/>
</svg>
