<?xml version="1.0" encoding="utf-8"?>
<!-- Generator: Adobe Illustrator 16.0.0, SVG Export Plug-In . SVG Version: 6.00 Build 0)  -->
<!DOCTYPE svg PUBLIC "-//W3C//DTD SVG 1.1//EN" "http://www.w3.org/Graphics/SVG/1.1/DTD/svg11.dtd">
<svg version="1.1" id="Layer_2" xmlns="http://www.w3.org/2000/svg" xmlns:xlink="http://www.w3.org/1999/xlink" x="0px" y="0px"
	 width="60px" height="60px" viewBox="0 0 60 60" enable-background="new 0 0 60 60" xml:space="preserve">
<path d="M30,0C13.432,0,0,13.432,0,30c0,16.568,13.432,30,30,30c16.568,0,30-13.432,30-30C60,13.432,46.568,0,30,0z M30,57
	C15.088,57,3,44.911,3,30C3,15.088,15.088,3,30,3c14.911,0,27,12.088,27,27C57,44.913,44.911,57,30,57z"/>
<path d="M34.617,40.939c-0.43,0.121-0.814,0.182-1.153,0.182c-0.723,0-1.231-0.121-1.524-0.362s-0.441-0.694-0.441-1.36
	c0-0.262,0.046-0.652,0.137-1.168c0.089-0.517,0.191-0.976,0.307-1.376l1.395-5.005c0.137-0.458,0.229-0.964,0.279-1.514
	c0.052-0.55,0.077-0.935,0.077-1.153c0-1.053-0.365-1.912-1.097-2.571c-0.73-0.659-1.769-0.989-3.117-0.989
	c-0.749,0-1.541,0.136-2.379,0.405c-0.838,0.269-1.716,0.593-2.632,0.972l-0.374,1.547c0.272-0.104,0.598-0.212,0.978-0.327
	c0.379-0.115,0.751-0.173,1.114-0.173c0.738,0,1.236,0.126,1.498,0.379c0.261,0.252,0.392,0.699,0.392,1.34
	c0,0.355-0.043,0.748-0.128,1.177c-0.084,0.431-0.189,0.887-0.315,1.368l-1.401,5.021c-0.124,0.528-0.216,1-0.272,1.42
	c-0.056,0.418-0.085,0.827-0.085,1.229c0,1.031,0.377,1.884,1.128,2.553c0.751,0.672,1.807,1.007,3.164,1.007
	c0.883,0,1.658-0.118,2.325-0.353c0.668-0.234,1.562-0.575,2.682-1.022l0.373-1.548C35.357,40.713,35.048,40.82,34.617,40.939z
	 M34.931,17.389c-0.65-0.62-1.435-0.93-2.351-0.93s-1.702,0.31-2.358,0.93c-0.657,0.619-0.986,1.364-0.986,2.234
	c0,0.872,0.329,1.614,0.986,2.228c0.654,0.613,1.441,0.92,2.358,0.92c0.916,0,1.7-0.308,2.351-0.92
	c0.649-0.613,0.976-1.355,0.976-2.228C35.906,18.753,35.58,18.007,34.931,17.389z"/>
</svg>
