<?xml version="1.0" encoding="utf-8"?>
<!-- Generator: Adobe Illustrator 16.0.0, SVG Export Plug-In . SVG Version: 6.00 Build 0)  -->
<!DOCTYPE svg PUBLIC "-//W3C//DTD SVG 1.1//EN" "http://www.w3.org/Graphics/SVG/1.1/DTD/svg11.dtd">
<svg version="1.1" id="Layer_2" xmlns="http://www.w3.org/2000/svg" xmlns:xlink="http://www.w3.org/1999/xlink" x="0px" y="0px"
	 width="60px" height="60px" viewBox="0 0 60 60" enable-background="new 0 0 60 60" xml:space="preserve">
<path d="M55.938,28.009L42.005,41.943c-4.066,4.065-10.051,5.125-15.127,3.183c-1.791-0.694-3.473-1.752-4.902-3.183l-3.918-3.92
	l5.973-5.972l3.918,3.921c2.191,2.189,5.896,2.189,8.088,0l13.936-13.935c2.188-2.188,2.064-5.772-0.125-7.962l-3.982-3.981
	c-2.193-2.19-5.647-2.19-7.84,0l-0.062,0.062l-2.039,2.04c-4.554-3.159-9.902-2.04-9.902-2.04l6.033-6.033
	c5.498-5.497,14.279-5.499,19.778,0l3.979,3.981C61.313,13.604,61.437,22.51,55.938,28.009z M24.019,47.988l-1.916,1.916
	c-2.19,2.191-5.896,2.191-8.088,0l-3.979-3.98c-2.19-2.191-2.065-5.773,0.123-7.963L24.03,24.09l0.061-0.062
	c2.189-2.189,5.646-2.189,7.84,0l3.981,3.981c0.024,0.026,0.036,0.038,0.062,0.062l5.971-5.971
	c-0.025-0.025-0.036-0.037-0.062-0.062l-3.983-3.981c-1.393-1.394-3.01-2.438-4.715-3.123c-5.026-2.018-10.959-0.982-15.064,3.123
	L4.187,31.991c-5.5,5.498-5.623,14.405-0.125,19.903l3.981,3.98c5.499,5.499,14.53,5.499,20.03,0l5.908-5.907
	C33.983,49.968,28.66,51.062,24.019,47.988z"/>
</svg>
