<?xml version="1.0" encoding="utf-8"?>
<!-- Generator: Adobe Illustrator 16.0.0, SVG Export Plug-In . SVG Version: 6.00 Build 0)  -->
<!DOCTYPE svg PUBLIC "-//W3C//DTD SVG 1.1//EN" "http://www.w3.org/Graphics/SVG/1.1/DTD/svg11.dtd">
<svg version="1.1" id="Layer_2" xmlns="http://www.w3.org/2000/svg" xmlns:xlink="http://www.w3.org/1999/xlink" x="0px" y="0px"
	 width="60px" height="60px" viewBox="0 0 60 60" enable-background="new 0 0 60 60" xml:space="preserve">
<path d="M30,0.032c-16.49,0-29.873,13.305-29.999,29.765C0,29.875,0,30.032,0,30.032l2.938-1c0,0,3.038-1.07,3.062-1.079
	c0.094-0.032,0.063,0.089,0.176-0.843C7.618,15.235,17.735,6.032,30,6.032c13.254,0,24,10.747,24,24c0,13.254-10.746,24-24,24
	c-6.411,0-12.229-2.521-16.534-6.618l6.218-3.737L5.321,39.527L2.91,53.758l5.261-3.162c5.471,5.806,13.223,9.437,21.829,9.437
	c16.568,0,30-13.432,30-30S46.568,0.032,30,0.032z"/>
<polygon points="31.5,30.427 31.5,15.5 26.5,15.5 26.5,32.5 26.502,32.5 34.57,40.569 38.106,37.033 "/>
</svg>
