<?xml version="1.0" encoding="utf-8"?>
<!-- Generator: Adobe Illustrator 16.0.0, SVG Export Plug-In . SVG Version: 6.00 Build 0)  -->
<!DOCTYPE svg PUBLIC "-//W3C//DTD SVG 1.1//EN" "http://www.w3.org/Graphics/SVG/1.1/DTD/svg11.dtd">
<svg version="1.1" id="Layer_2" xmlns="http://www.w3.org/2000/svg" xmlns:xlink="http://www.w3.org/1999/xlink" x="0px" y="0px"
	 width="60px" height="60px" viewBox="0 0 60 60" enable-background="new 0 0 60 60" xml:space="preserve">
<path d="M30,0C13.432,0,0,13.432,0,30c0,16.568,13.432,30,30,30c16.568,0,30-13.432,30-30C60,13.432,46.568,0,30,0z M30,57
	C15.088,57,3,44.911,3,30C3,15.088,15.088,3,30,3c14.911,0,27,12.088,27,27C57,44.913,44.911,57,30,57z"/>
<polygon points="38.254,15.183 35.38,12.298 17.746,30 35.38,47.701 38.254,44.814 23.495,30 "/>
</svg>
