<?xml version="1.0" encoding="utf-8"?>
<!-- Generator: Adobe Illustrator 16.0.0, SVG Export Plug-In . SVG Version: 6.00 Build 0)  -->
<!DOCTYPE svg PUBLIC "-//W3C//DTD SVG 1.1//EN" "http://www.w3.org/Graphics/SVG/1.1/DTD/svg11.dtd">
<svg version="1.1" id="Layer_2" xmlns="http://www.w3.org/2000/svg" xmlns:xlink="http://www.w3.org/1999/xlink" x="0px" y="0px"
	 width="60px" height="60px" viewBox="0 0 60 60" enable-background="new 0 0 60 60" xml:space="preserve">
<path d="M40.229,54.234c-0.951,0.268-1.804,0.4-2.554,0.4c-1.602,0-2.728-0.266-3.378-0.801c-0.65-0.533-0.977-1.537-0.977-3.012
	c0-0.582,0.101-1.445,0.301-2.588c0.199-1.145,0.427-2.16,0.679-3.049l3.091-11.088c0.303-1.014,0.506-2.133,0.618-3.352
	c0.115-1.219,0.171-2.072,0.171-2.555c0-2.334-0.808-4.234-2.428-5.695c-1.62-1.46-3.92-2.191-6.906-2.191
	c-1.658,0-3.412,0.299-5.271,0.896c-1.856,0.596-3.802,1.312-5.833,2.154l-0.827,3.426c0.603-0.228,1.325-0.471,2.167-0.723
	c0.841-0.255,1.666-0.383,2.468-0.383c1.636,0,2.739,0.279,3.317,0.838s0.867,1.549,0.867,2.971c0,0.787-0.094,1.657-0.282,2.608
	c-0.188,0.953-0.421,1.963-0.698,3.029l-3.104,11.125c-0.274,1.17-0.477,2.215-0.602,3.145c-0.125,0.928-0.188,1.834-0.188,2.723
	c0,2.285,0.834,4.172,2.498,5.656c1.666,1.486,4.004,2.229,7.01,2.229c1.956,0,3.672-0.262,5.15-0.781
	c1.479-0.52,3.459-1.275,5.939-2.266l0.827-3.428C41.869,53.732,41.183,53.969,40.229,54.234z M40.923,2.06
	c-1.441-1.373-3.177-2.059-5.207-2.059c-2.029,0-3.771,0.686-5.225,2.059c-1.455,1.371-2.182,3.022-2.182,4.95
	c0,1.933,0.727,3.576,2.182,4.935c1.451,1.358,3.195,2.039,5.225,2.039c2.03,0,3.766-0.681,5.207-2.039s2.161-3.002,2.161-4.935
	C43.084,5.083,42.364,3.431,40.923,2.06z"/>
</svg>
