<?xml version="1.0" encoding="utf-8"?>
<!-- Generator: Adobe Illustrator 16.0.0, SVG Export Plug-In . SVG Version: 6.00 Build 0)  -->
<!DOCTYPE svg PUBLIC "-//W3C//DTD SVG 1.1//EN" "http://www.w3.org/Graphics/SVG/1.1/DTD/svg11.dtd">
<svg version="1.1" id="Layer_2" xmlns="http://www.w3.org/2000/svg" xmlns:xlink="http://www.w3.org/1999/xlink" x="0px" y="0px"
	 width="60px" height="60px" viewBox="0 0 60 60" enable-background="new 0 0 60 60" xml:space="preserve">
<path d="M60,13c0,1.105-0.896,2-2,2H2c-1.104,0-2-0.895-2-2V7c0-1.104,0.896-2,2-2h56c1.104,0,2,0.896,2,2V13z"/>
<path d="M60,33c0,1.105-0.896,2-2,2H2c-1.104,0-2-0.895-2-2v-6c0-1.104,0.896-2,2-2h56c1.104,0,2,0.896,2,2V33z"/>
<path d="M60,53c0,1.105-0.896,2-2,2H2c-1.104,0-2-0.895-2-2v-6c0-1.105,0.896-2,2-2h56c1.104,0,2,0.895,2,2V53z"/>
</svg>
