<?xml version="1.0" encoding="utf-8"?>
<!-- Generator: Adobe Illustrator 16.0.0, SVG Export Plug-In . SVG Version: 6.00 Build 0)  -->
<!DOCTYPE svg PUBLIC "-//W3C//DTD SVG 1.1//EN" "http://www.w3.org/Graphics/SVG/1.1/DTD/svg11.dtd">
<svg version="1.1" id="Layer_2" xmlns="http://www.w3.org/2000/svg" xmlns:xlink="http://www.w3.org/1999/xlink" x="0px" y="0px"
	 width="60px" height="60px" viewBox="0 0 60 60" enable-background="new 0 0 60 60" xml:space="preserve">
<g>
	<path d="M0.072,14.35L0,51.718h60l-0.072-37.37c0,0-1.189,0.403-3.521,2.139C54.814,17.671,30,36.208,30,36.208
		S4.695,17.318,3.205,16.198C1.713,15.078,0.072,14.35,0.072,14.35z"/>
	<path d="M30,29.664c0,0,23.299-17.43,24.971-18.663c1.67-1.233,2.93-2.719,2.93-2.719H2.1c0,0,1.471,1.627,2.9,2.696
		C6.432,12.047,30,29.664,30,29.664z"/>
</g>
</svg>
