<?xml version="1.0" encoding="utf-8"?>
<!-- Generator: Adobe Illustrator 16.0.0, SVG Export Plug-In . SVG Version: 6.00 Build 0)  -->
<!DOCTYPE svg PUBLIC "-//W3C//DTD SVG 1.1//EN" "http://www.w3.org/Graphics/SVG/1.1/DTD/svg11.dtd">
<svg version="1.1" id="Layer_2" xmlns="http://www.w3.org/2000/svg" xmlns:xlink="http://www.w3.org/1999/xlink" x="0px" y="0px"
	 width="60px" height="60px" viewBox="0 0 60 60" enable-background="new 0 0 60 60" xml:space="preserve">
<path d="M4.261,2.84c0,0,0,37.25,0,40.573c0,3.309,0.403,5.747,1.608,7.355c0.013,0,0.026,0,0.026,0
	c1.22,2.009,3.349,2.813,5.788,2.813h4.985c3.791,0,6.859-2.666,6.859-6.432s-3.068-6.432-6.859-6.432H8.562
	c0-7.503,0-25.725,0-25.725l27.87,5.091V51.17c0,1.113,0.455,3.617,1.742,5.507c0.135,0.241,0.281,0.456,0.456,0.671
	c0.065,0.08,0.12,0.201,0.2,0.281c0.013,0.013,0.04,0.013,0.054,0.026C40.143,59.075,41.966,60,44.016,60h4.85
	c3.779,0,6.874-2.68,6.874-6.432s-3.095-6.431-6.847-6.431v0.013H40.72V8.763c-0.135-1.943-1.809-3.738-3.658-4.234L7.904,0.081
	c0,0-0.387-0.081-0.683-0.081C5.601,0,4.275,1.273,4.261,2.84z"/>
</svg>
