<?xml version="1.0" encoding="utf-8"?>
<!-- Generator: Adobe Illustrator 16.0.0, SVG Export Plug-In . SVG Version: 6.00 Build 0)  -->
<!DOCTYPE svg PUBLIC "-//W3C//DTD SVG 1.1//EN" "http://www.w3.org/Graphics/SVG/1.1/DTD/svg11.dtd">
<svg version="1.1" id="Layer_2" xmlns="http://www.w3.org/2000/svg" xmlns:xlink="http://www.w3.org/1999/xlink" x="0px" y="0px"
	 width="60px" height="60px" viewBox="0 0 60 60" enable-background="new 0 0 60 60" xml:space="preserve">
<g>
	<path d="M22.873,3.432c-8.307,5.614-13.081,13.705-5.417,23.176c6.38,7.886,19.019,4.182,17.695,13.74
		c-1.325,9.557-8.066,13.379-0.963,18.037c7.103,4.661,32.396-10.326,24.196-38.228C52.482,0.086,31.18-2.184,22.873,3.432z"/>
	<path d="M6.259,21.113c3.458,0,6.26,2.779,6.26,6.212c0,3.431-2.803,6.212-6.26,6.212S0,30.756,0,27.325
		C0,23.893,2.802,21.113,6.259,21.113z"/>
	<path d="M17.033,37.957c5.152,0,9.328,4.146,9.328,9.259c0,5.113-4.176,9.259-9.328,9.259s-9.329-4.146-9.329-9.259
		C7.704,42.104,11.881,37.957,17.033,37.957z"/>
</g>
</svg>
