<?xml version="1.0" encoding="utf-8"?>
<!-- Generator: Adobe Illustrator 16.0.0, SVG Export Plug-In . SVG Version: 6.00 Build 0)  -->
<!DOCTYPE svg PUBLIC "-//W3C//DTD SVG 1.1//EN" "http://www.w3.org/Graphics/SVG/1.1/DTD/svg11.dtd">
<svg version="1.1" id="Layer_2" xmlns="http://www.w3.org/2000/svg" xmlns:xlink="http://www.w3.org/1999/xlink" x="0px" y="0px"
	 width="60px" height="60px" viewBox="0 0 60 60" enable-background="new 0 0 60 60" xml:space="preserve">
<g>
	<path d="M40.239,0H17.677c-2.046,0-3.718,1.672-3.718,3.734v52.547c0,2.047,1.672,3.719,3.718,3.719h22.547
		c2.047,0,3.719-1.672,3.719-3.719V3.734C43.958,1.672,42.286,0,40.239,0z M26.458,5.609C26.458,5.281,26.724,5,27.067,5h3.797
		c0.328,0,0.609,0.266,0.609,0.609v0.047c0,0.328-0.266,0.609-0.609,0.609h-3.797c-0.328,0-0.609-0.266-0.609-0.609V5.609
		L26.458,5.609z M24.583,5c0.344,0,0.625,0.281,0.625,0.625S24.927,6.25,24.583,6.25c-0.344,0-0.625-0.281-0.625-0.625
		S24.239,5,24.583,5z M28.958,57.516c-1.391,0-2.516-1.125-2.516-2.516s1.125-2.516,2.516-2.516s2.515,1.125,2.515,2.516
		S30.333,57.516,28.958,57.516z M41.458,50h-25V10h25V50z"/>
</g>
</svg>
