<?xml version="1.0" encoding="utf-8"?>
<!-- Generator: Adobe Illustrator 16.0.0, SVG Export Plug-In . SVG Version: 6.00 Build 0)  -->
<!DOCTYPE svg PUBLIC "-//W3C//DTD SVG 1.1//EN" "http://www.w3.org/Graphics/SVG/1.1/DTD/svg11.dtd">
<svg version="1.1" id="Layer_2" xmlns="http://www.w3.org/2000/svg" xmlns:xlink="http://www.w3.org/1999/xlink" x="0px" y="0px"
	 width="60px" height="60px" viewBox="0 0 60 60" enable-background="new 0 0 60 60" xml:space="preserve">
<path d="M56.63,3.986c-1.666-1.452-4.192-1.28-5.646,0.385L29.698,30.508l-7.976-6.958c-1.665-1.452-4.192-1.279-5.644,0.385
	c-1.452,1.664-1.279,4.191,0.385,5.645l10.926,9.529c0.022,0.02,0.037,0.043,0.059,0.062c0.833,0.728,1.884,1.047,2.907,0.976
	c1.024-0.064,2.022-0.523,2.75-1.358c0.021-0.024,0.035-0.056,0.058-0.081L57.016,9.63C58.466,7.965,58.294,5.438,56.63,3.986z"/>
<path d="M55.5,25.021c-1.381,0-2.5,1.119-2.5,2.5V30v0.938V45c0,4.418-3.581,8-8,8H15c-4.418,0-8-3.582-8-8V15c0-4.419,3.582-8,8-8
	h14.037c0.002,0,0.003,0,0.005,0h3.418c1.381,0,2.5-1.119,2.5-2.5S33.841,2,32.46,2H30h-0.958H12C6.477,2,2,6.478,2,12v36
	c0,5.523,4.477,10,10,10h36c5.521,0,10-4.477,10-10V30.938V30v-2.479C58,26.14,56.881,25.021,55.5,25.021z"/>
</svg>
