<?xml version="1.0" encoding="utf-8"?>
<!-- Generator: Adobe Illustrator 16.0.0, SVG Export Plug-In . SVG Version: 6.00 Build 0)  -->
<!DOCTYPE svg PUBLIC "-//W3C//DTD SVG 1.1//EN" "http://www.w3.org/Graphics/SVG/1.1/DTD/svg11.dtd">
<svg version="1.1" id="Layer_2" xmlns="http://www.w3.org/2000/svg" xmlns:xlink="http://www.w3.org/1999/xlink" x="0px" y="0px"
	 width="60px" height="60px" viewBox="0 0 60 60" enable-background="new 0 0 60 60" xml:space="preserve">
<g>
	<path d="M52.828,20.156c-4.795,0.79-12.616,1.004-17.812-8.854C29.444,0.71,20.444,0.388,15.181,1.353
		c-2.558,0.469-4.473,2.612-4.473,4.688v26.331c1.514,0.575,3.134-0.027,3.549-0.106c0.107-0.027,0.201-0.041,0.321-0.067
		c3.348-0.736,6.884-1.085,15.643,3.12c10.982,5.264,20.597-4.434,24.322-11.184c0.268-0.469,1.164-2.705,1.164-4.848
		C54.408,19.821,52.828,20.156,52.828,20.156z"/>
	<path d="M7.507,0H5.364c-0.59,0-1.072,0.482-1.072,1.071v52.857c0,0.59,0.482,1.072,1.072,1.072h2.143
		c0.589,0,1.071-0.482,1.071-1.07V1.071C8.578,0.482,8.096,0,7.507,0z"/>
</g>
</svg>
