<?xml version="1.0" encoding="utf-8"?>
<!-- Generator: Adobe Illustrator 16.0.0, SVG Export Plug-In . SVG Version: 6.00 Build 0)  -->
<!DOCTYPE svg PUBLIC "-//W3C//DTD SVG 1.1//EN" "http://www.w3.org/Graphics/SVG/1.1/DTD/svg11.dtd">
<svg version="1.1" id="Layer_2" xmlns="http://www.w3.org/2000/svg" xmlns:xlink="http://www.w3.org/1999/xlink" x="0px" y="0px"
	 width="60px" height="60px" viewBox="0 0 60 60" enable-background="new 0 0 60 60" xml:space="preserve">
<g>
	<path d="M41.439,2.27v10.088c5.771,3.75,9.599,10.244,9.599,17.642c0,11.62-9.417,21.04-21.04,21.04
		c-11.62,0-21.039-9.417-21.039-21.04c0-7.397,3.825-13.89,9.598-17.642V2.27C7.668,6.77,0,17.482,0,30c0,16.568,13.432,30,30,30
		s30-13.432,30-30C60,17.482,52.33,6.77,41.439,2.27z"/>
	<path d="M25.421,0h9.158v30h-9.158V0z"/>
</g>
</svg>
