<?xml version="1.0" encoding="utf-8"?>
<!-- Generator: Adobe Illustrator 16.0.0, SVG Export Plug-In . SVG Version: 6.00 Build 0)  -->
<!DOCTYPE svg PUBLIC "-//W3C//DTD SVG 1.1//EN" "http://www.w3.org/Graphics/SVG/1.1/DTD/svg11.dtd">
<svg version="1.1" id="Layer_2" xmlns="http://www.w3.org/2000/svg" xmlns:xlink="http://www.w3.org/1999/xlink" x="0px" y="0px"
	 width="60px" height="60px" viewBox="0 0 60 60" enable-background="new 0 0 60 60" xml:space="preserve">
<path d="M23.578,45.495c4.973,4.97,12.452,5.797,18.333,2.595L53.817,60L60,53.817L48.09,41.904
	c3.202-5.871,2.375-13.354-2.598-18.327c-6.048-6.05-15.863-6.05-21.914,0C17.528,29.628,17.528,39.442,23.578,45.495z M27.19,27.19
	c4.056-4.054,10.635-4.054,14.692,0c4.059,4.058,4.059,10.635-0.003,14.697c-4.055,4.054-10.632,4.054-14.694,0
	C23.131,37.827,23.131,31.248,27.19,27.19z"/>
<path d="M18.786,49.588H4.651V20.442h9.722c1.052,0,2.055-0.473,2.805-1.205c0.119-0.139,0.237-0.278,0.359-0.414
	c0.561-0.699,0.919-1.554,0.919-2.452V4.618h22.041v7.881c1.642,0.51,3.199,1.211,4.651,2.07V3.294C45.148,1.38,43.506,0,41.704,0
	H15.171c-0.48,0-0.944,0.015-1.366,0.23c-0.363,0.187-0.684,0.33-0.959,0.633L0.683,14.054c-0.218,0.259-0.407,0.561-0.508,0.979
	C0.059,15.507,0,15.881,0,16.4v34.052c0,1.927,1.279,3.726,3.082,3.726h22.994C23.343,53.134,20.873,51.562,18.786,49.588z"/>
</svg>
