<?xml version="1.0" encoding="utf-8"?>
<!-- Generator: Adobe Illustrator 16.0.0, SVG Export Plug-In . SVG Version: 6.00 Build 0)  -->
<!DOCTYPE svg PUBLIC "-//W3C//DTD SVG 1.1//EN" "http://www.w3.org/Graphics/SVG/1.1/DTD/svg11.dtd">
<svg version="1.1" id="Layer_2" xmlns="http://www.w3.org/2000/svg" xmlns:xlink="http://www.w3.org/1999/xlink" x="0px" y="0px"
	 width="60px" height="60px" viewBox="0 0 60 60" enable-background="new 0 0 60 60" xml:space="preserve">
<g>
	<path d="M11.958,7.571c-4.167,4.143-6.693,9.44-7.339,15.353l-0.186,1.801l9.534,0.481l0.197-1.465
		c0.485-3.577,2.089-6.798,4.616-9.302c0.797-0.796,1.662-1.5,2.575-2.09c0.079-0.057,0.15-0.08,0.206-0.116
		c0.083-0.033,0.174-0.079,0.244-0.126c0.921-0.554,1.696-0.958,2.446-1.246c0.057-0.035,0.127-0.059,0.185-0.069
		c0.07-0.022,0.138-0.047,0.21-0.068c0.978-0.358,1.868-0.602,2.688-0.752c0.08-0.011,0.138-0.022,0.207-0.022l0.173-0.013
		c0.948-0.159,1.87-0.228,2.794-0.231c0.082,0.013,0.172,0.012,0.277,0.024l0.232,0.023c0.908,0.035,1.764,0.126,2.596,0.29
		c0.184,0.045,0.367,0.091,0.551,0.137l0.223,0.059c0.76,0.183,1.5,0.416,2.215,0.692c0.346,0.138,0.689,0.3,1.037,0.461
		c0.6,0.277,1.176,0.6,1.766,0.96c0.396,0.252,0.799,0.519,1.18,0.807c0.104,0.058,0.195,0.151,0.301,0.231l-7.34,7.294
		l22.262,1.581L54.316,0l-6.705,6.685c-0.324-0.278-0.67-0.555-1.016-0.81c-0.369-0.3-0.74-0.577-1.119-0.843
		c-0.254-0.161-0.496-0.335-0.738-0.485c-0.602-0.391-1.154-0.716-1.697-1.025l-0.355-0.196C32.387-2.193,20.027-0.496,11.958,7.571
		z"/>
	<path d="M26.459,39.318l-22.265-1.58L5.682,60l6.708-6.684c0.334,0.27,0.657,0.544,1.015,0.812c0.359,0.288,0.739,0.574,1.12,0.84
		c0.243,0.175,0.496,0.334,0.739,0.486c0.6,0.392,1.154,0.715,1.697,1.027l0.356,0.196c10.308,5.528,22.671,3.83,30.748-4.224
		c4.17-4.146,6.707-9.454,7.342-15.352l0.184-1.801l-9.533-0.484l-0.195,1.466c-0.496,3.565-2.078,6.784-4.617,9.301
		c-0.809,0.786-1.662,1.479-2.574,2.066c-0.08,0.058-0.15,0.082-0.209,0.117c-0.078,0.032-0.16,0.067-0.242,0.125
		c-0.945,0.578-1.719,0.958-2.445,1.247c-0.047,0.022-0.104,0.034-0.162,0.046c-0.068,0.022-0.16,0.046-0.242,0.08
		c-0.969,0.347-1.846,0.602-2.689,0.752c-0.07,0.022-0.127,0.01-0.186,0.022c-0.064,0.002-0.148,0.012-0.207,0.021
		c-0.979,0.15-1.893,0.232-2.78,0.221c-0.081-0.013-0.174-0.013-0.276-0.022l-0.234-0.021c-0.91-0.036-1.762-0.127-2.595-0.29
		c-0.172-0.034-0.347-0.092-0.518-0.127l-0.254-0.069c-0.775-0.197-1.51-0.428-2.216-0.693c-0.347-0.139-0.694-0.3-1.04-0.463
		c-0.623-0.3-1.212-0.613-1.767-0.955c-0.391-0.256-0.796-0.521-1.177-0.81c-0.115-0.07-0.206-0.161-0.312-0.242L26.459,39.318z"/>
</g>
</svg>
