<?xml version="1.0" encoding="utf-8"?>
<!-- Generator: Adobe Illustrator 16.0.0, SVG Export Plug-In . SVG Version: 6.00 Build 0)  -->
<!DOCTYPE svg PUBLIC "-//W3C//DTD SVG 1.1//EN" "http://www.w3.org/Graphics/SVG/1.1/DTD/svg11.dtd">
<svg version="1.1" id="Layer_2" xmlns="http://www.w3.org/2000/svg" xmlns:xlink="http://www.w3.org/1999/xlink" x="0px" y="0px"
	 width="60px" height="60px" viewBox="0 0 60 60" enable-background="new 0 0 60 60" xml:space="preserve">
<path d="M5,18.162v37.712C5,58.009,6.417,60,8.413,60h42.772C53.182,60,55,58.009,55,55.874V3.648C55,1.529,53.182,0,51.186,0
	H21.802c-0.532,0-1.046,0.016-1.513,0.255c-0.402,0.207-0.757,0.366-1.062,0.701L5.756,15.564c-0.242,0.287-0.451,0.621-0.562,1.084
	C5.065,17.174,5,17.588,5,18.162z M10.151,54.918V22.639h10.767c2.366,0,4.521-2.15,4.521-4.509V5.114h24.41v49.804H10.151
	L10.151,54.918z"/>
<g>
	<path d="M32.853,36.498c-1.755,0-3.199-1.445-3.199-3.199c0-0.141,0.024-0.274,0.042-0.409c-2.122,0.159-3.819,1.95-3.819,4.108
		c0,2.262,1.862,4.124,4.124,4.124s4.124-1.862,4.124-4.124c0-0.252-0.026-0.5-0.07-0.742C33.682,36.41,33.276,36.498,32.853,36.498
		z"/>
	<path d="M30,25.057C21.302,25.057,14.25,37,14.25,37S21.302,48.943,30,48.943S45.75,37,45.75,37S38.698,25.057,30,25.057z
		 M30,44.842c-4.334,0-7.842-3.508-7.842-7.842s3.508-7.842,7.842-7.842s7.842,3.508,7.842,7.842S34.334,44.842,30,44.842z"/>
</g>
</svg>
