<?xml version="1.0" encoding="utf-8"?>
<!-- Generator: Adobe Illustrator 16.0.0, SVG Export Plug-In . SVG Version: 6.00 Build 0)  -->
<!DOCTYPE svg PUBLIC "-//W3C//DTD SVG 1.1//EN" "http://www.w3.org/Graphics/SVG/1.1/DTD/svg11.dtd">
<svg version="1.1" id="Layer_2" xmlns="http://www.w3.org/2000/svg" xmlns:xlink="http://www.w3.org/1999/xlink" x="0px" y="0px"
	 width="60px" height="60px" viewBox="0 0 60 60" enable-background="new 0 0 60 60" xml:space="preserve">
<path d="M30,0C13.432,0,0,13.432,0,30c0,16.568,13.432,30,30,30c16.568,0,30-13.432,30-30C60,13.432,46.568,0,30,0z M30,55
	C16.193,55,5,43.806,5,30C5,16.193,16.193,5,30,5c13.806,0,25,11.193,25,25C55,43.808,43.806,55,30,55z"/>
<polygon stroke="#000000" stroke-width="3" stroke-miterlimit="10" points="42.005,19.127 40.872,17.995 30,28.868 19.127,17.995 
	17.995,19.127 28.868,30 17.995,40.872 19.127,42.005 30,31.133 40.872,42.005 42.005,40.872 31.133,30 "/>
</svg>
