<?xml version="1.0" encoding="utf-8"?>
<!-- Generator: Adobe Illustrator 16.0.0, SVG Export Plug-In . SVG Version: 6.00 Build 0)  -->
<!DOCTYPE svg PUBLIC "-//W3C//DTD SVG 1.1//EN" "http://www.w3.org/Graphics/SVG/1.1/DTD/svg11.dtd">
<svg version="1.1" id="Layer_2" xmlns="http://www.w3.org/2000/svg" xmlns:xlink="http://www.w3.org/1999/xlink" x="0px" y="0px"
	 width="60px" height="60px" viewBox="0 0 60 60" enable-background="new 0 0 60 60" xml:space="preserve">
<path d="M28.065,6.775c0,1.159,0.368,2.229,0.986,3.186c1.964,2.605,0.527,3.588-0.986,3.588H19.42
	c-3.194,0-5.807,2.612-5.807,5.806v6.336c0,1.376-0.836,2.806-2.966,1.513C9.563,26.25,8.253,25.69,6.84,25.69
	c-3.744,0-6.775,3.897-6.775,8.71c0,4.812,3.031,8.709,6.775,8.709c1.159,0,2.229-0.368,3.186-0.986
	c2.605-1.964,3.588-0.527,3.588,0.986v11.085c0,3.194,2.612,5.806,5.807,5.806h34.71c3.193,0,5.806-2.611,5.806-5.806V42.549
	c0-1.513-0.982-2.947-3.591-0.945c-0.952,0.575-2.022,0.945-3.183,0.945c-3.739,0-6.774-2.901-6.774-7.71
	c0-4.808,3.035-7.709,6.774-7.709c1.406,0,2.725,0.561,3.811,1.514c2.124,1.285,2.963-0.132,2.963-1.514v-7.775
	c0-3.193-2.612-5.806-5.806-5.806h-8.646c-1.376,0-2.806-0.836-1.513-2.966c0.953-1.084,1.513-2.395,1.513-3.808
	c0-3.744-3.897-6.775-8.71-6.775C31.963,0,28.065,3.031,28.065,6.775z"/>
</svg>
