<?xml version="1.0" encoding="utf-8"?>
<!-- Generator: Adobe Illustrator 16.0.0, SVG Export Plug-In . SVG Version: 6.00 Build 0)  -->
<!DOCTYPE svg PUBLIC "-//W3C//DTD SVG 1.1//EN" "http://www.w3.org/Graphics/SVG/1.1/DTD/svg11.dtd">
<svg version="1.1" id="Layer_2" xmlns="http://www.w3.org/2000/svg" xmlns:xlink="http://www.w3.org/1999/xlink" x="0px" y="0px"
	 width="60px" height="60px" viewBox="0 0 60 60" enable-background="new 0 0 60 60" xml:space="preserve">
<path fill="none" stroke="#000000" stroke-width="4" stroke-miterlimit="10" d="M28.194,8.333c0,1.081,0.344,2.08,0.92,2.972
	c1.833,2.43,0.492,3.348-0.92,3.348h-8.065c-2.98,0-5.417,2.437-5.417,5.417v5.911c0,1.283-0.78,2.618-2.767,1.411
	c-1.011-0.889-2.233-1.412-3.552-1.412c-3.492,0-6.32,3.636-6.32,8.126c0,4.488,2.828,8.124,6.32,8.124
	c1.082,0,2.08-0.343,2.973-0.92c2.43-1.832,3.347-0.492,3.347,0.92v10.34c0,2.982,2.436,5.417,5.417,5.417h32.381
	c2.978,0,5.417-2.435,5.417-5.417V41.705c0-1.409-0.915-2.748-3.351-0.882c-0.888,0.539-1.885,0.882-2.969,0.882
	c-3.488,0-6.32-2.703-6.32-7.191c0-4.485,2.832-7.191,6.32-7.191c1.312,0,2.542,0.523,3.555,1.413
	c1.982,1.199,2.765-0.123,2.765-1.413v-7.253c0-2.978-2.438-5.417-5.417-5.417h-8.066c-1.284,0-2.616-0.781-1.409-2.767
	c0.889-1.012,1.409-2.235,1.409-3.553c0-3.493-3.636-6.32-8.125-6.32C31.832,2.013,28.194,4.84,28.194,8.333z"/>
</svg>
