<?xml version="1.0" encoding="utf-8"?>
<!-- Generator: Adobe Illustrator 16.0.0, SVG Export Plug-In . SVG Version: 6.00 Build 0)  -->
<!DOCTYPE svg PUBLIC "-//W3C//DTD SVG 1.1//EN" "http://www.w3.org/Graphics/SVG/1.1/DTD/svg11.dtd">
<svg version="1.1" id="Layer_2" xmlns="http://www.w3.org/2000/svg" xmlns:xlink="http://www.w3.org/1999/xlink" x="0px" y="0px"
	 width="60px" height="60px" viewBox="0 0 60 60" enable-background="new 0 0 60 60" xml:space="preserve">
<g>
	<path d="M60,30c0-10-4.911-18.832-12.432-24.283l-6.446,6.446C47.07,15.879,51.04,22.468,51.04,30
		c0,7.085-3.513,13.346-8.884,17.154L35.001,40v20h20.001l-6.447-6.447C55.521,48.062,60,39.559,60,30z"/>
	<path d="M11.462,6.461C4.495,11.953,0,20.438,0,30c0,10.4,5.297,19.561,13.335,24.941l6.515-6.515
		C13.357,44.848,8.958,37.939,8.958,29.999c0-7.09,3.544-13.313,8.921-17.122L25,20V0H5L11.462,6.461z"/>
</g>
</svg>
