<?xml version="1.0" encoding="utf-8"?>
<!-- Generator: Adobe Illustrator 16.0.0, SVG Export Plug-In . SVG Version: 6.00 Build 0)  -->
<!DOCTYPE svg PUBLIC "-//W3C//DTD SVG 1.1//EN" "http://www.w3.org/Graphics/SVG/1.1/DTD/svg11.dtd">
<svg version="1.1" id="Layer_2" xmlns="http://www.w3.org/2000/svg" xmlns:xlink="http://www.w3.org/1999/xlink" x="0px" y="0px"
	 width="60px" height="60px" viewBox="0 0 60 60" enable-background="new 0 0 60 60" xml:space="preserve">
<g>
	<path d="M30,23.473c-10.84,0-20.36-1.802-25.875-5.523v32.173l0,0c0,4.768,11.982,8.627,25.875,8.627
		c13.893,0,25.875-3.859,25.875-8.626l0,0V17.951C50.359,21.669,40.839,23.473,30,23.473z"/>
	<path d="M30,1.25c13.893,0,25.156,3.861,25.156,8.625c0,4.766-11.262,8.625-25.156,8.625c-13.895,0-25.156-3.861-25.156-8.625
		S16.107,1.25,30,1.25z"/>
</g>
</svg>
