<?xml version="1.0" encoding="utf-8"?>
<!-- Generator: Adobe Illustrator 16.0.0, SVG Export Plug-In . SVG Version: 6.00 Build 0)  -->
<!DOCTYPE svg PUBLIC "-//W3C//DTD SVG 1.1//EN" "http://www.w3.org/Graphics/SVG/1.1/DTD/svg11.dtd">
<svg version="1.1" id="Layer_2" xmlns="http://www.w3.org/2000/svg" xmlns:xlink="http://www.w3.org/1999/xlink" x="0px" y="0px"
	 width="60px" height="60px" viewBox="0 0 60 60" enable-background="new 0 0 60 60" xml:space="preserve">
<path d="M42.277,50.714L30,43.774l-12.279,6.939v-3.047c0.001-33.705,0.002-33.757,0.004-33.794
	C17.927,5.811,28.781,0.609,29.243,0.392L30,0.035l0.757,0.356c0.463,0.218,11.345,5.431,11.519,13.523
	c0.001,0.017,0.002,0.056,0.002,33.752V50.714z M30.002,3.991c-2.955,1.583-8.611,5.522-8.723,9.981
	c-0.001,0.312-0.002,22.41-0.002,30.647L30,39.69l8.723,4.93c-0.001-8.233-0.001-30.316-0.002-30.655
	C38.624,9.504,32.962,5.57,30.002,3.991z M36.001,19.75c0,0-2.688-9.083-6.001-9.083c-3.314,0-6.001,9.083-6.001,9.083L30,16.25
	L36.001,19.75z M25.748,49.752l4.25,9.415l4.254-9.458l-4.254-3.126L25.748,49.752z M2.215,59.307V40.796l11.556-7.783v18.511
	L2.215,59.307z M5.771,42.688v9.937l4.444-2.994v-9.937L5.771,42.688z M57.788,59.347l-11.576-7.798V33.007l11.576,7.798V59.347z
	 M49.774,49.654l4.451,2.999v-9.954L49.774,39.7V49.654z"/>
</svg>
