<?xml version="1.0" encoding="utf-8"?>
<!-- Generator: Adobe Illustrator 16.0.0, SVG Export Plug-In . SVG Version: 6.00 Build 0)  -->
<!DOCTYPE svg PUBLIC "-//W3C//DTD SVG 1.1//EN" "http://www.w3.org/Graphics/SVG/1.1/DTD/svg11.dtd">
<svg version="1.1" id="Layer_2" xmlns="http://www.w3.org/2000/svg" xmlns:xlink="http://www.w3.org/1999/xlink" x="0px" y="0px"
	 width="60px" height="60px" viewBox="0 0 60 60" enable-background="new 0 0 60 60" xml:space="preserve">
<g>
	<path d="M30,1.25c13.893,0,25.156,3.861,25.156,8.625c0,4.766-11.262,8.625-25.156,8.625c-13.895,0-25.156-3.861-25.156-8.625
		S16.107,1.25,30,1.25z"/>
</g>
<path d="M30,23.329c-10.84,0-20.36-1.802-25.875-5.522v32.173c0,4.768,11.982,8.627,25.875,8.627
	c13.893,0,25.875-3.859,25.875-8.626V17.808C50.359,21.525,40.839,23.329,30,23.329z M34.324,50.058
	c-0.561,0.257-1.078,0.439-1.507,0.566c-0.727,0.216-2.421,0.275-2.421,0.275h-1.615h-7.212v-0.686v-1.263v-0.564h1.291h0.24h5.855
	h1.256c0,0,1.318-0.046,1.884-0.213c0.335-0.1,0.736-0.239,1.173-0.438c2.017-0.919,4.753-3.077,4.753-8.022
	c0-4.946-2.738-6.989-4.755-7.821c-0.435-0.182-0.837-0.305-1.173-0.391c-0.564-0.142-1.882-0.171-1.882-0.171h-1.258H23.1h-0.24
	h-1.291v-0.564v-1.263v-0.686h7.211h1.615c0,0,1.694,0.039,2.42,0.223c0.43,0.109,0.945,0.27,1.506,0.503
	c2.592,1.078,6.11,3.722,6.11,10.128C40.432,46.076,36.915,48.869,34.324,50.058z"/>
</svg>
