<?xml version="1.0" encoding="utf-8"?>
<!-- Generator: Adobe Illustrator 16.0.0, SVG Export Plug-In . SVG Version: 6.00 Build 0)  -->
<!DOCTYPE svg PUBLIC "-//W3C//DTD SVG 1.1//EN" "http://www.w3.org/Graphics/SVG/1.1/DTD/svg11.dtd">
<svg version="1.1" id="Layer_1" xmlns="http://www.w3.org/2000/svg" xmlns:xlink="http://www.w3.org/1999/xlink" x="0px" y="0px"
	 width="60px" height="60px" viewBox="0 0 60 60" enable-background="new 0 0 60 60" xml:space="preserve">
<path fill="#EA4C89" d="M30,0C13.432,0,0,13.432,0,30c0,16.568,13.432,30,30,30s30-13.432,30-30C60,13.432,46.566,0,30,0z"/>
<path fill="#FFFFFF" d="M47.634,26.376c-0.235-1.156-0.591-2.295-1.05-3.384c-0.451-1.068-1.011-2.096-1.66-3.058
	c-0.643-0.953-1.383-1.849-2.195-2.663c-0.813-0.815-1.711-1.554-2.664-2.197c-0.961-0.652-1.989-1.209-3.059-1.662
	c-1.086-0.458-2.225-0.813-3.381-1.048C32.438,12.123,31.221,12,30,12c-1.22,0-2.439,0.124-3.626,0.366
	c-1.156,0.235-2.294,0.591-3.382,1.048c-1.066,0.453-2.096,1.01-3.058,1.662c-0.953,0.643-1.849,1.382-2.663,2.197
	c-0.813,0.813-1.552,1.709-2.196,2.663c-0.65,0.961-1.209,1.989-1.66,3.058c-0.46,1.087-0.813,2.227-1.05,3.383
	C12.123,27.561,12,28.781,12,30c0,1.221,0.123,2.441,0.365,3.627c0.237,1.155,0.59,2.295,1.05,3.381
	c0.451,1.067,1.01,2.098,1.66,3.061c0.644,0.953,1.382,1.848,2.196,2.662c0.814,0.813,1.71,1.553,2.663,2.195
	c0.962,0.65,1.991,1.209,3.058,1.66c1.087,0.461,2.227,0.812,3.382,1.05c1.187,0.242,2.406,0.365,3.626,0.365
	c1.219,0,2.438-0.123,3.625-0.367c1.156-0.237,2.295-0.588,3.381-1.049c1.067-0.451,2.098-1.011,3.059-1.661
	c0.953-0.645,1.851-1.383,2.664-2.195c0.812-0.813,1.554-1.709,2.195-2.662c0.649-0.961,1.209-1.991,1.66-3.061
	c0.459-1.086,0.812-2.225,1.05-3.381C47.876,32.439,48,31.221,48,29.998C48,28.78,47.876,27.56,47.634,26.376z M45.367,29.847
	c-0.225-0.049-5.426-1.168-10.708-0.504c-0.108-0.263-0.218-0.528-0.331-0.793c-0.32-0.752-0.663-1.498-1.021-2.229
	c6.069-2.478,8.533-6.042,8.563-6.084C44.027,22.853,45.332,26.199,45.367,29.847z M40.152,18.463
	c-0.037,0.06-2.229,3.392-8.029,5.566c-2.627-4.829-5.514-8.664-5.746-8.969c1.163-0.281,2.374-0.434,3.623-0.434
	C33.893,14.627,37.443,16.078,40.152,18.463z M26.318,15.075c-0.001,0.001-0.003,0.003-0.003,0.003s-0.018,0.004-0.046,0.01
	C26.285,15.083,26.302,15.08,26.318,15.075z M23.441,16.097c0.205,0.274,3.047,4.128,5.708,8.857
	c-7.381,1.962-13.787,1.885-14.192,1.878C15.956,22.07,19.154,18.122,23.441,16.097z M14.628,29.999
	c0-0.164,0.007-0.325,0.013-0.486c0.271,0.006,7.867,0.178,15.781-2.19c0.439,0.862,0.862,1.738,1.247,2.613
	c-0.204,0.057-0.403,0.117-0.606,0.184C22.768,32.8,18.56,40.266,18.56,40.266s0.005,0.004,0.006,0.008
	C16.119,37.549,14.628,33.948,14.628,29.999z M30,45.373c-3.721,0-7.133-1.323-9.792-3.523c0.203,0.164,0.344,0.269,0.344,0.269
	s2.947-6.427,12.063-9.603c0.033-0.013,0.066-0.022,0.102-0.031c2.163,5.619,3.057,10.326,3.284,11.67
	C34.158,44.938,32.128,45.373,30,45.373z M38.589,42.75c-0.155-0.93-0.976-5.439-2.991-10.98c4.963-0.793,9.262,0.567,9.579,0.67
	C44.493,36.725,42.04,40.419,38.589,42.75z"/>
</svg>
