<?xml version="1.0" encoding="utf-8"?>
<!-- Generator: Adobe Illustrator 16.0.0, SVG Export Plug-In . SVG Version: 6.00 Build 0)  -->
<!DOCTYPE svg PUBLIC "-//W3C//DTD SVG 1.1//EN" "http://www.w3.org/Graphics/SVG/1.1/DTD/svg11.dtd">
<svg version="1.1" id="Layer_2" xmlns="http://www.w3.org/2000/svg" xmlns:xlink="http://www.w3.org/1999/xlink" x="0px" y="0px"
	 width="60px" height="60px" viewBox="0 0 60 60" enable-background="new 0 0 60 60" xml:space="preserve">
<g>
	<path fill="none" stroke="#000000" stroke-width="5.5" stroke-miterlimit="10" d="M30,28.837c-9.791,0-18.393-1.628-23.377-4.988
		v25.008l0,0c0,4.304,10.826,7.793,23.377,7.793c12.552,0,23.377-3.489,23.377-7.793l0,0V23.849
		C48.396,27.209,39.793,28.837,30,28.837z"/>
	<path fill="none" stroke="#000000" stroke-width="5.5" stroke-miterlimit="10" d="M30,3.347c12.552,0,22.729,3.489,22.729,7.794
		c0,4.304-10.176,7.792-22.729,7.792c-12.553,0-22.729-3.488-22.729-7.791C7.271,6.836,17.448,3.347,30,3.347z"/>
</g>
</svg>
