<?xml version="1.0" encoding="utf-8"?>
<!-- Generator: Adobe Illustrator 16.0.0, SVG Export Plug-In . SVG Version: 6.00 Build 0)  -->
<!DOCTYPE svg PUBLIC "-//W3C//DTD SVG 1.1//EN" "http://www.w3.org/Graphics/SVG/1.1/DTD/svg11.dtd">
<svg version="1.1" id="Layer_2" xmlns="http://www.w3.org/2000/svg" xmlns:xlink="http://www.w3.org/1999/xlink" x="0px" y="0px"
	 width="60px" height="60px" viewBox="0 0 60 60" enable-background="new 0 0 60 60" xml:space="preserve">
<path d="M5,40.999l9-6.062v16.001L5,57V40.999z M55,40.999l-9-6.062v16.001L55,57V40.999z M40.5,47.667L30,41.733l-10.501,5.934
	c0,0,0.001-35.677,0.003-35.739C19.679,4.859,30,0,30,0s10.345,4.869,10.498,11.953C40.5,12.005,40.5,47.613,40.5,47.667z
	 M36.001,18.416c0,0-2.688-9.083-6.001-9.083c-3.314,0-6.001,9.083-6.001,9.083l6.001-3.5L36.001,18.416z M25.75,50.585L30,60
	l4.254-9.458L30,47.416L25.75,50.585z"/>
</svg>
