<?xml version="1.0" encoding="utf-8"?>
<!-- Generator: Adobe Illustrator 16.0.0, SVG Export Plug-In . SVG Version: 6.00 Build 0)  -->
<!DOCTYPE svg PUBLIC "-//W3C//DTD SVG 1.1//EN" "http://www.w3.org/Graphics/SVG/1.1/DTD/svg11.dtd">
<svg version="1.1" id="Layer_2" xmlns="http://www.w3.org/2000/svg" xmlns:xlink="http://www.w3.org/1999/xlink" x="0px" y="0px"
	 width="60px" height="60px" viewBox="0 0 60 60" enable-background="new 0 0 60 60" xml:space="preserve">
<g>
	<path d="M59.697,15.595c-0.743,0.012-1.5-0.07-2.252-0.27c-4.37-1.157-6.963-5.6-5.792-9.924c0.203-0.744,0.51-1.433,0.891-2.062
		C50.796,1.913,48.797,0.792,46.636,0c-0.364,0.638-0.81,1.24-1.356,1.781c-3.198,3.164-8.386,3.164-11.582,0
		c-0.541-0.535-0.982-1.129-1.341-1.758c-2.149,0.796-4.134,1.917-5.869,3.336c0.384,0.634,0.691,1.325,0.896,2.073
		c1.169,4.324-1.423,8.765-5.793,9.925c-0.746,0.2-1.495,0.28-2.234,0.27c-0.187,1.093-0.303,2.208-0.303,3.351
		c0,1.141,0.119,2.252,0.301,3.342c0.728-0.007,1.467,0.072,2.204,0.269c4.37,1.158,6.961,5.602,5.793,9.923
		c-0.202,0.746-0.508,1.43-0.888,2.06c1.739,1.428,3.728,2.559,5.884,3.357c0.36-0.636,0.804-1.231,1.349-1.771
		c3.197-3.166,8.384-3.166,11.583,0c0.552,0.548,1.002,1.154,1.363,1.796c2.164-0.797,4.17-1.924,5.92-3.355
		c-0.375-0.628-0.682-1.313-0.881-2.049c-1.172-4.322,1.424-8.766,5.791-9.925c0.745-0.198,1.489-0.28,2.22-0.269
		C59.881,21.254,60,20.132,60,18.98C60.005,17.824,59.885,16.698,59.697,15.595z M39.528,28.67c-5.413,0-9.795-4.34-9.795-9.692
		c0-5.354,4.386-9.692,9.795-9.692s9.796,4.338,9.796,9.692C49.324,24.331,44.939,28.67,39.528,28.67z"/>
	<path d="M22.941,43.687c0.346-0.341,0.736-0.603,1.144-0.826c-0.5-1.327-1.235-2.569-2.169-3.679
		c-0.396,0.234-0.816,0.438-1.289,0.562c-2.741,0.724-5.559-0.883-6.293-3.595c-0.125-0.458-0.159-0.914-0.154-1.368
		c-1.43-0.237-2.877-0.244-4.283-0.007c0.008,0.462-0.024,0.928-0.152,1.398c-0.734,2.713-3.553,4.32-6.293,3.596
		c-0.469-0.126-0.891-0.328-1.288-0.562c-0.452,0.541-0.873,1.114-1.238,1.741c-0.364,0.623-0.655,1.271-0.901,1.925
		c0.396,0.223,0.779,0.479,1.117,0.813c2.008,1.985,2.008,5.204,0,7.188C0.795,51.213,0.406,51.477,0,51.698
		c0.496,1.327,1.223,2.57,2.15,3.683c0.396-0.232,0.816-0.436,1.281-0.561c2.741-0.727,5.561,0.881,6.293,3.596
		c0.127,0.469,0.16,0.935,0.152,1.396c1.441,0.242,2.902,0.253,4.322,0.015c-0.008-0.454,0.027-0.92,0.152-1.383
		c0.734-2.712,3.551-4.319,6.293-3.594c0.465,0.123,0.887,0.323,1.282,0.557c0.454-0.542,0.88-1.116,1.247-1.751
		c0.37-0.633,0.665-1.289,0.913-1.949c-0.407-0.229-0.798-0.488-1.146-0.83C20.935,48.892,20.935,45.672,22.941,43.687z
		 M16.783,50.006c-1.51,2.584-4.852,3.469-7.463,1.978c-2.613-1.492-3.51-4.798-2-7.383c1.507-2.586,4.85-3.472,7.463-1.979
		C17.396,44.114,18.29,47.42,16.783,50.006z"/>
</g>
</svg>
