<?xml version="1.0" encoding="utf-8"?>
<!-- Generator: Adobe Illustrator 16.0.0, SVG Export Plug-In . SVG Version: 6.00 Build 0)  -->
<!DOCTYPE svg PUBLIC "-//W3C//DTD SVG 1.1//EN" "http://www.w3.org/Graphics/SVG/1.1/DTD/svg11.dtd">
<svg version="1.1" id="Layer_1" xmlns="http://www.w3.org/2000/svg" xmlns:xlink="http://www.w3.org/1999/xlink" x="0px" y="0px"
	 width="60px" height="60px" viewBox="0 0 60 60" enable-background="new 0 0 60 60" xml:space="preserve">
<path d="M59.219,16.562c-0.521-1.25-1.146-2.239-1.876-2.968L46.405,2.656c-0.729-0.729-1.719-1.354-2.969-1.875
	C42.188,0.26,41.041,0,40,0H3.75C2.708,0,1.823,0.364,1.093,1.093C0.364,1.822,0,2.708,0,3.75v52.5c0,1.042,0.364,1.928,1.093,2.656
	C1.823,59.636,2.708,60,3.75,60h52.5c1.042,0,1.928-0.364,2.656-1.094C59.636,58.178,60,57.292,60,56.25V20
	C60,18.958,59.739,17.812,59.219,16.562z M25,6.25c0-0.339,0.124-0.631,0.371-0.879C25.618,5.124,25.911,5,26.25,5h7.501
	c0.338,0,0.631,0.123,0.878,0.371C34.876,5.619,35,5.911,35,6.25v12.5c0,0.339-0.124,0.632-0.371,0.879
	C34.382,19.875,34.089,20,33.751,20H26.25c-0.339,0-0.632-0.124-0.879-0.371C25.124,19.381,25,19.088,25,18.75V6.25z M45,55H14.999
	V40H45V55z M55.001,55H50h-0.001V38.75c0-1.043-0.364-1.928-1.094-2.656C48.177,35.363,47.291,35,46.25,35h-32.5
	c-1.042,0-1.928,0.363-2.657,1.094c-0.729,0.729-1.094,1.613-1.094,2.656V55H5V5h5v16.25c0,1.042,0.364,1.927,1.094,2.656
	S12.708,25,13.75,25h22.5c1.041,0,1.928-0.365,2.656-1.094C39.635,23.177,40,22.292,40,21.25V5c0.391,0,0.898,0.13,1.523,0.39
	s1.067,0.521,1.328,0.781l10.978,10.977c0.261,0.26,0.521,0.71,0.781,1.348c0.261,0.638,0.391,1.14,0.391,1.504V55z"/>
</svg>
