<?xml version="1.0" encoding="utf-8"?>
<!-- Generator: Adobe Illustrator 16.0.0, SVG Export Plug-In . SVG Version: 6.00 Build 0)  -->
<!DOCTYPE svg PUBLIC "-//W3C//DTD SVG 1.1//EN" "http://www.w3.org/Graphics/SVG/1.1/DTD/svg11.dtd">
<svg version="1.1" id="Layer_2" xmlns="http://www.w3.org/2000/svg" xmlns:xlink="http://www.w3.org/1999/xlink" x="0px" y="0px"
	 width="60px" height="60px" viewBox="0 0 60 60" enable-background="new 0 0 60 60" xml:space="preserve">
<g>
	<path fill="none" stroke="#000000" stroke-width="5.5" stroke-miterlimit="10" d="M30,28.837c-9.791,0-18.393-1.628-23.377-4.988
		v25.008l0,0c0,4.304,10.826,7.793,23.377,7.793c12.552,0,23.377-3.489,23.377-7.793l0,0V23.849
		C48.396,27.209,39.793,28.837,30,28.837z"/>
	<path fill="none" stroke="#000000" stroke-width="5.5" stroke-miterlimit="10" d="M30,3.347c12.552,0,22.729,3.489,22.729,7.794
		c0,4.304-10.176,7.792-22.729,7.792c-12.553,0-22.729-3.488-22.729-7.791C7.271,6.836,17.448,3.347,30,3.347z"/>
</g>
<path fill="#231F20" d="M33.331,35.05c-0.393-0.163-0.756-0.275-1.057-0.353c-0.51-0.129-1.699-0.156-1.699-0.156h-1.133H24.38
	v0.481v0.887v0.396h0.906h0.168h4.109h0.883c0,0,0.926,0.021,1.322,0.12c0.234,0.06,0.518,0.146,0.822,0.273
	c1.416,0.585,3.339,2.02,3.339,5.492c0,3.471-1.921,4.986-3.337,5.631c-0.307,0.14-0.588,0.237-0.823,0.308
	c-0.397,0.116-1.323,0.149-1.323,0.149h-0.882h-4.11h-0.168H24.38v0.396v0.888v0.48h5.063h1.133c0,0,1.188-0.042,1.7-0.193
	c0.301-0.089,0.664-0.218,1.057-0.397c1.819-0.835,4.288-2.796,4.288-7.291C37.621,37.663,35.15,35.807,33.331,35.05z"/>
</svg>
