<?xml version="1.0" encoding="utf-8"?>
<!-- Generator: Adobe Illustrator 16.0.0, SVG Export Plug-In . SVG Version: 6.00 Build 0)  -->
<!DOCTYPE svg PUBLIC "-//W3C//DTD SVG 1.1//EN" "http://www.w3.org/Graphics/SVG/1.1/DTD/svg11.dtd">
<svg version="1.1" id="Layer_2" xmlns="http://www.w3.org/2000/svg" xmlns:xlink="http://www.w3.org/1999/xlink" x="0px" y="0px"
	 width="60px" height="60px" viewBox="0 0 60 60" enable-background="new 0 0 60 60" xml:space="preserve">
<path d="M59.551,24.901c-1.092,0.02-2.197-0.106-3.303-0.405c-6.4-1.744-10.201-8.44-8.484-14.958
	c0.297-1.122,0.746-2.159,1.305-3.107c-2.561-2.146-5.49-3.838-8.656-5.031c-0.529,0.959-1.184,1.867-1.984,2.684
	c-4.688,4.768-12.287,4.768-16.972,0c-0.791-0.805-1.439-1.702-1.962-2.648c-3.149,1.2-6.058,2.891-8.601,5.029
	c0.562,0.954,1.016,1.997,1.31,3.124c1.715,6.515-2.083,13.211-8.486,14.957c-1.094,0.3-2.192,0.423-3.274,0.407
	C0.171,26.599,0,28.28,0,30.002c0,1.72,0.174,3.396,0.442,5.038c1.065-0.014,2.148,0.109,3.229,0.408
	c6.402,1.742,10.203,8.439,8.486,14.953c-0.295,1.119-0.744,2.152-1.299,3.104c2.548,2.15,5.464,3.854,8.621,5.061
	c0.528-0.957,1.178-1.86,1.975-2.672c4.686-4.769,12.285-4.769,16.972,0c0.807,0.824,1.467,1.74,1.996,2.707
	c3.178-1.199,6.115-2.898,8.68-5.058c-0.549-0.944-0.998-1.979-1.291-3.09c-1.717-6.515,2.084-13.215,8.484-14.958
	c1.092-0.296,2.18-0.421,3.254-0.404C59.824,33.433,60,31.739,60,30.006C60.002,28.26,59.824,26.563,59.551,24.901z M29.999,44.608
	c-7.928,0-14.354-6.539-14.354-14.608s6.425-14.606,14.354-14.606c7.927,0,14.353,6.537,14.353,14.606
	C44.354,38.069,37.928,44.608,29.999,44.608z"/>
</svg>
