<?xml version="1.0" encoding="utf-8"?>
<!-- Generator: Adobe Illustrator 16.0.0, SVG Export Plug-In . SVG Version: 6.00 Build 0)  -->
<!DOCTYPE svg PUBLIC "-//W3C//DTD SVG 1.1//EN" "http://www.w3.org/Graphics/SVG/1.1/DTD/svg11.dtd">
<svg version="1.1" id="Layer_1" xmlns="http://www.w3.org/2000/svg" xmlns:xlink="http://www.w3.org/1999/xlink" x="0px" y="0px"
	 width="60px" height="60px" viewBox="0 0 60 60" enable-background="new 0 0 60 60" xml:space="preserve">
<path fill="#3B5998" d="M30,0C13.431,0,0,13.432,0,30s13.431,30,30,30c16.569,0,30-13.432,30-30S46.566,0,30,0z"/>
<path fill="#FFFFFF" d="M38.365,23.657h-5.698v-3.736c0-1.403,0.931-1.731,1.585-1.731c0.652,0,4.02,0,4.02,0v-6.167L32.734,12
	c-6.146,0-7.545,4.601-7.545,7.545v4.112h-3.554v6.356h3.554c0,8.158,0,17.987,0,17.987h7.478c0,0,0-9.927,0-17.987h5.044
	L38.365,23.657z"/>
</svg>
