<?xml version="1.0" encoding="utf-8"?>
<!-- Generator: Adobe Illustrator 16.0.0, SVG Export Plug-In . SVG Version: 6.00 Build 0)  -->
<!DOCTYPE svg PUBLIC "-//W3C//DTD SVG 1.1//EN" "http://www.w3.org/Graphics/SVG/1.1/DTD/svg11.dtd">
<svg version="1.1" id="Layer_2" xmlns="http://www.w3.org/2000/svg" xmlns:xlink="http://www.w3.org/1999/xlink" x="0px" y="0px"
	 width="60px" height="60px" viewBox="0 0 60 60" enable-background="new 0 0 60 60" xml:space="preserve">
<path fill="none" stroke="#000000" stroke-width="3.5556" stroke-miterlimit="10" d="M40.5,47.667L30,41.732l-10.501,5.935
	c0,0,0.001-33.677,0.003-33.739C19.679,6.859,30,2,30,2s10.346,4.869,10.498,11.953C40.5,14.005,40.5,47.613,40.5,47.667z"/>
<path d="M36.001,19.75c0,0-2.688-9.083-6.001-9.083c-3.314,0-6.001,9.083-6.001,9.083L30,16.25L36.001,19.75z"/>
<polygon points="25.748,49.752 29.998,59.167 34.252,49.709 29.998,46.583 "/>
<g>
	<polygon fill="none" stroke="#000000" stroke-width="3.5556" stroke-miterlimit="10" points="3.993,41.742 11.993,36.354 
		11.993,50.577 3.993,55.966 	"/>
	<polygon fill="none" stroke="#000000" stroke-width="3.5618" stroke-miterlimit="10" points="56.007,41.752 47.993,36.354 
		47.993,50.602 56.007,56 	"/>
</g>
</svg>
