<?xml version="1.0" encoding="utf-8"?>
<!-- Generator: Adobe Illustrator 16.0.0, SVG Export Plug-In . SVG Version: 6.00 Build 0)  -->
<!DOCTYPE svg PUBLIC "-//W3C//DTD SVG 1.1//EN" "http://www.w3.org/Graphics/SVG/1.1/DTD/svg11.dtd">
<svg version="1.1" id="Layer_2" xmlns="http://www.w3.org/2000/svg" xmlns:xlink="http://www.w3.org/1999/xlink" x="0px" y="0px"
	 width="60px" height="60px" viewBox="0 0 60 60" enable-background="new 0 0 60 60" xml:space="preserve">
<path fill="none" stroke="#000000" stroke-width="3.5982" stroke-miterlimit="10" d="M57.74,25.214
	c-1.024,0.019-2.063-0.101-3.102-0.38c-6.007-1.638-9.572-7.923-7.965-14.04c0.28-1.054,0.699-2.026,1.227-2.917
	c-2.405-2.015-5.153-3.602-8.125-4.723c-0.498,0.9-1.112,1.751-1.862,2.518c-4.399,4.477-11.533,4.477-15.931,0
	c-0.743-0.754-1.353-1.596-1.844-2.484c-2.955,1.127-5.686,2.711-8.07,4.721c0.524,0.896,0.951,1.875,1.228,2.931
	c1.61,6.116-1.956,12.401-7.964,14.04c-1.027,0.282-2.059,0.396-3.073,0.383c-0.255,1.545-0.417,3.123-0.417,4.74
	c0,1.613,0.163,3.188,0.415,4.729c1-0.01,2.017,0.104,3.031,0.384c6.008,1.635,9.575,7.921,7.965,14.034
	c-0.276,1.053-0.698,2.021-1.22,2.914c2.391,2.019,5.128,3.619,8.092,4.748c0.496-0.896,1.105-1.744,1.854-2.508
	c4.396-4.474,11.529-4.474,15.931,0c0.757,0.776,1.377,1.635,1.874,2.543c2.982-1.129,5.738-2.721,8.146-4.748
	c-0.517-0.888-0.936-1.856-1.214-2.899c-1.608-6.115,1.957-12.404,7.966-14.04c1.024-0.277,2.047-0.395,3.057-0.377
	c0.254-1.561,0.42-3.149,0.42-4.775C58.162,28.366,57.995,26.773,57.74,25.214z"/>
<path d="M30,15.4c-7.925,0-14.348,6.533-14.348,14.599S22.075,44.6,30,44.6c7.926,0,14.35-6.533,14.348-14.601
	C44.348,21.934,37.923,15.4,30,15.4z M30,40.869c-5.898,0-10.68-4.866-10.68-10.87c0-6.003,4.781-10.866,10.68-10.866
	c5.896,0,10.68,4.864,10.68,10.866C40.682,36.003,35.898,40.869,30,40.869z"/>
</svg>
