<?xml version="1.0" encoding="utf-8"?>
<!-- Generator: Adobe Illustrator 16.0.0, SVG Export Plug-In . SVG Version: 6.00 Build 0)  -->
<!DOCTYPE svg PUBLIC "-//W3C//DTD SVG 1.1//EN" "http://www.w3.org/Graphics/SVG/1.1/DTD/svg11.dtd">
<svg version="1.1" id="Layer_1" xmlns="http://www.w3.org/2000/svg" xmlns:xlink="http://www.w3.org/1999/xlink" x="0px" y="0px"
	 width="60px" height="60px" viewBox="0 0 60 60" enable-background="new 0 0 60 60" xml:space="preserve">
<path fill="#01AFEC" d="M47.993,16c-0.037-0.019-0.074-0.061-0.111-0.098c-2.244-1.999-4.882-2.955-7.913-2.84l-0.093-0.205
	c0.019-0.019,0.037-0.019,0.056-0.019c2.749-0.601,4.378-1.219,4.862-1.89c0.171-0.543-0.034-0.841-0.636-0.916
	c-1.384,0.167-2.656,0.447-3.796,0.878c1.44-0.878,2.002-1.496,1.683-1.815c-1.421,0.038-2.954,0.732-4.564,2.097
	c0.599-0.974,0.825-1.498,0.676-1.591c-0.767,0.505-1.442,1.048-2.021,1.626c-1.216,1.291-2.19,2.488-2.938,3.574l-0.038,0.093
	c-1.924,2.973-3.271,5.965-4.077,9.015l-0.298,0.226l-0.056,0.053c-1.16-1.384-2.545-2.542-4.208-3.481
	c-1.965-1.214-4.266-2.374-6.922-3.495c-2.898-1.421-5.835-2.6-8.81-3.516c-0.018,3.162,1.609,5.685,4.846,7.519v0.056
	c-1.142-0.021-2.245,0.149-3.312,0.468c0.205,2.936,2.395,4.956,6.547,6.077l-0.021,0.056c-1.626-0.091-2.973,0.452-4.021,1.573
	c1.366,2.544,3.778,3.758,7.277,3.665c-0.693,0.338-1.235,0.709-1.591,1.123c-0.636,0.637-0.842,1.387-0.636,2.244
	c0.748,1.291,2.095,1.888,4.077,1.797l0,0l0.112,0.13c-0.019,0.019-0.037,0.037-0.057,0.056c-3.422,3.367-7.556,4.882-12.401,4.564
	l-0.074,0.038C6.584,43.042,3.423,41.698,0,39.004c3.441,4.712,8.005,8.116,13.654,10.25c6.471,2.039,12.943,2.188,19.395,0.447
	h0.111c6.269-1.722,11.578-5.256,15.954-10.604c2.02-2.806,3.292-5.478,3.798-8.043c3.273,0.111,5.629-0.786,7.088-2.691
	l-0.035-0.059c-1.086,0.373-3.218,0.264-6.38-0.354v-0.338c0-0.016,0-0.016,0.02,0c3.46-0.373,5.498-1.438,6.153-3.199
	c-2.414,0.899-4.788,0.916-7.146,0.077C52.183,21.385,50.649,18.561,47.993,16z"/>
</svg>
