<?xml version="1.0" encoding="utf-8"?>
<!-- Generator: Adobe Illustrator 16.0.0, SVG Export Plug-In . SVG Version: 6.00 Build 0)  -->
<!DOCTYPE svg PUBLIC "-//W3C//DTD SVG 1.1//EN" "http://www.w3.org/Graphics/SVG/1.1/DTD/svg11.dtd">
<svg version="1.1" id="Layer_1" xmlns="http://www.w3.org/2000/svg" xmlns:xlink="http://www.w3.org/1999/xlink" x="0px" y="0px"
	 width="60px" height="60px" viewBox="0 0 60 60" enable-background="new 0 0 60 60" xml:space="preserve">
<path fill="#01AFEC" d="M30,0C13.432,0,0,13.432,0,30c0,16.568,13.432,30,30,30s30-13.432,30-30C60,13.432,46.566,0,30,0z"/>
<path fill="#FFFFFF" d="M40.796,21.6c-0.022-0.011-0.045-0.037-0.065-0.059c-1.348-1.2-2.931-1.773-4.748-1.704l-0.057-0.123
	c0.012-0.011,0.022-0.011,0.033-0.011c1.65-0.361,2.627-0.731,2.917-1.134c0.103-0.326-0.021-0.505-0.381-0.55
	c-0.831,0.1-1.595,0.268-2.278,0.527c0.864-0.527,1.201-0.897,1.01-1.089c-0.853,0.022-1.771,0.439-2.738,1.258
	c0.359-0.584,0.496-0.899,0.406-0.955c-0.459,0.303-0.865,0.629-1.213,0.976c-0.729,0.775-1.313,1.493-1.763,2.145l-0.022,0.056
	c-1.153,1.784-1.962,3.579-2.446,5.409l-0.179,0.135l-0.034,0.032c-0.696-0.831-1.527-1.525-2.525-2.089
	c-1.179-0.728-2.56-1.424-4.153-2.097c-1.739-0.853-3.501-1.56-5.286-2.11c-0.011,1.897,0.965,3.411,2.907,4.511v0.034
	c-0.685-0.012-1.347,0.089-1.987,0.281c0.123,1.761,1.437,2.973,3.928,3.646l-0.013,0.034c-0.976-0.055-1.784,0.271-2.413,0.943
	c0.819,1.527,2.267,2.255,4.366,2.199c-0.416,0.203-0.741,0.426-0.955,0.674c-0.382,0.383-0.505,0.833-0.382,1.347
	c0.449,0.774,1.257,1.134,2.446,1.078l0,0l0.067,0.078c-0.012,0.013-0.022,0.022-0.034,0.034c-2.053,2.02-4.534,2.929-7.441,2.736
	l-0.044,0.023c-1.771-0.012-3.667-0.818-5.721-2.436c2.064,2.828,4.803,4.869,8.192,6.149c3.883,1.224,7.766,1.312,11.637,0.269
	h0.066c3.762-1.032,6.946-3.152,9.571-6.361c1.213-1.684,1.976-3.287,2.279-4.825c1.964,0.066,3.378-0.472,4.253-1.615l-0.021-0.035
	c-0.65,0.224-1.931,0.158-3.826-0.212v-0.203c0-0.009,0-0.009,0.012,0c2.074-0.224,3.299-0.863,3.691-1.919
	c-1.449,0.54-2.873,0.55-4.289,0.046C43.311,24.831,42.389,23.136,40.796,21.6z"/>
</svg>
