<?xml version="1.0" encoding="utf-8"?>
<!-- Generator: Adobe Illustrator 16.0.0, SVG Export Plug-In . SVG Version: 6.00 Build 0)  -->
<!DOCTYPE svg PUBLIC "-//W3C//DTD SVG 1.1//EN" "http://www.w3.org/Graphics/SVG/1.1/DTD/svg11.dtd">
<svg version="1.1" id="Layer_2" xmlns="http://www.w3.org/2000/svg" xmlns:xlink="http://www.w3.org/1999/xlink" x="0px" y="0px"
	 width="60px" height="60px" viewBox="0 0 60 60" enable-background="new 0 0 60 60" xml:space="preserve">
<g>
	<path d="M14.4,42.6c-1.499,0-2.774,0.524-3.824,1.575c-1.05,1.05-1.575,2.324-1.575,3.825c0,1.5,0.525,2.774,1.575,3.826
		c1.05,1.051,2.325,1.576,3.824,1.576c1.476,0,2.744-0.525,3.807-1.576S19.801,49.5,19.801,48c0-1.501-0.531-2.774-1.594-3.825
		C17.145,43.125,15.876,42.6,14.4,42.6z"/>
	<path d="M13.2,31.201c0-1.651-0.587-3.062-1.762-4.239c-1.175-1.175-2.588-1.763-4.237-1.763s-3.062,0.588-4.237,1.763
		c-1.176,1.176-1.763,2.588-1.763,4.239c0,1.648,0.587,3.059,1.763,4.235c1.175,1.175,2.588,1.763,4.237,1.763
		s3.062-0.588,4.237-1.763C12.613,34.261,13.2,32.85,13.2,31.201z"/>
	<path d="M48.001,17.4c0.824,0,1.532-0.294,2.119-0.881c0.587-0.588,0.881-1.295,0.881-2.119c0-0.825-0.294-1.531-0.881-2.118
		c-0.588-0.588-1.295-0.881-2.119-0.881c-0.825,0-1.532,0.293-2.12,0.881C45.294,12.869,45,13.575,45,14.4s0.294,1.531,0.881,2.119
		C46.469,17.107,47.176,17.4,48.001,17.4z"/>
	<path d="M14.401,7.801c-1.824,0-3.381,0.644-4.669,1.931c-1.287,1.287-1.932,2.844-1.932,4.668c0,1.826,0.645,3.381,1.932,4.669
		C11.021,20.357,12.577,21,14.401,21s3.381-0.644,4.668-1.931C20.357,17.781,21,16.225,21,14.4c0-1.824-0.643-3.381-1.931-4.668
		C17.782,8.445,16.226,7.801,14.401,7.801z"/>
	<path d="M57.749,28.65c-0.7-0.7-1.548-1.05-2.549-1.05c-1,0-1.851,0.35-2.551,1.05c-0.7,0.699-1.05,1.55-1.05,2.551
		c0,0.998,0.35,1.851,1.05,2.549c0.7,0.7,1.551,1.05,2.551,1.05c1.001,0,1.849-0.35,2.549-1.05c0.699-0.699,1.05-1.551,1.05-2.549
		C58.799,30.201,58.449,29.35,57.749,28.65z"/>
	<path d="M48.001,43.799c-1.152,0-2.14,0.412-2.965,1.237S43.799,46.849,43.799,48c0,1.149,0.412,2.137,1.237,2.962
		s1.812,1.237,2.965,1.237c1.148,0,2.136-0.412,2.961-1.237S52.2,49.15,52.2,48c0-1.151-0.413-2.139-1.238-2.964
		S49.149,43.799,48.001,43.799z"/>
	<path d="M31.201,50.399c-1.326,0-2.457,0.469-3.395,1.406c-0.938,0.938-1.406,2.069-1.406,3.394c0,1.325,0.469,2.456,1.406,3.394
		S29.874,60,31.201,60c1.324,0,2.457-0.47,3.395-1.407s1.406-2.068,1.406-3.394c0-1.324-0.469-2.455-1.406-3.394
		C33.658,50.868,32.525,50.399,31.201,50.399z"/>
	<path d="M31.201,0C29.2,0,27.5,0.7,26.101,2.1c-1.399,1.401-2.1,3.101-2.1,5.101c0,2,0.699,3.699,2.1,5.099
		c1.399,1.399,3.1,2.1,5.101,2.1c2,0,3.699-0.7,5.099-2.1C37.701,10.9,38.4,9.2,38.4,7.201c0-2-0.699-3.7-2.101-5.101
		C34.9,0.7,33.201,0,31.201,0z"/>
</g>
</svg>
