<?xml version="1.0" encoding="utf-8"?>
<!-- Generator: Adobe Illustrator 16.0.0, SVG Export Plug-In . SVG Version: 6.00 Build 0)  -->
<!DOCTYPE svg PUBLIC "-//W3C//DTD SVG 1.1//EN" "http://www.w3.org/Graphics/SVG/1.1/DTD/svg11.dtd">
<svg version="1.1" id="Layer_1" xmlns="http://www.w3.org/2000/svg" xmlns:xlink="http://www.w3.org/1999/xlink" x="0px" y="0px"
	 width="60px" height="60px" viewBox="0 0 60 60" enable-background="new 0 0 60 60" xml:space="preserve">
<path fill-rule="evenodd" clip-rule="evenodd" fill="#EA4C89" d="M59.388,23.96c-0.394-1.927-0.984-3.825-1.75-5.639
	c-0.751-1.78-1.683-3.494-2.766-5.096c-1.071-1.588-2.304-3.082-3.659-4.438c-1.358-1.358-2.852-2.59-4.439-3.662
	c-1.603-1.086-3.318-2.015-5.097-2.769c-1.811-0.763-3.709-1.356-5.636-1.747C34.063,0.206,32.032,0,30.001,0
	c-2.034,0-4.066,0.206-6.043,0.611c-1.927,0.391-3.824,0.984-5.637,1.747c-1.777,0.754-3.493,1.683-5.097,2.769
	c-1.588,1.071-3.081,2.304-4.438,3.662c-1.355,1.356-2.587,2.849-3.659,4.438c-1.084,1.602-2.015,3.316-2.767,5.096
	c-0.767,1.813-1.355,3.712-1.75,5.639c-0.404,1.972-0.609,4.006-0.609,6.038c0,2.035,0.205,4.069,0.609,6.044
	c0.395,1.927,0.983,3.825,1.75,5.636c0.752,1.778,1.683,3.496,2.767,5.099c1.072,1.588,2.304,3.079,3.659,4.438
	c1.357,1.355,2.851,2.586,4.438,3.659c1.604,1.083,3.319,2.015,5.097,2.767c1.812,0.768,3.71,1.353,5.637,1.749
	C25.935,59.796,27.967,60,30.001,60c2.031,0,4.062-0.204,6.04-0.611c1.927-0.396,3.825-0.981,5.636-1.749
	c1.778-0.752,3.494-1.684,5.097-2.767c1.588-1.073,3.081-2.304,4.439-3.659c1.355-1.358,2.588-2.85,3.659-4.438
	c1.083-1.603,2.015-3.32,2.766-5.099c0.766-1.811,1.356-3.709,1.75-5.636c0.405-1.975,0.611-4.009,0.611-6.044
	C59.999,27.967,59.793,25.933,59.388,23.96z M55.611,29.744c-0.372-0.081-9.042-1.946-17.845-0.839
	c-0.181-0.438-0.363-0.88-0.553-1.323c-0.533-1.253-1.106-2.496-1.702-3.716c10.116-4.129,14.224-10.069,14.273-10.14
	C53.379,18.089,55.553,23.665,55.611,29.744z M46.92,10.772c-0.062,0.1-3.712,5.653-13.382,9.277
	c-4.379-8.047-9.19-14.439-9.575-14.947c1.937-0.469,3.956-0.723,6.038-0.723C36.486,4.38,42.407,6.798,46.92,10.772z M23.864,5.125
	c-0.001,0.002-0.005,0.005-0.005,0.005s-0.029,0.007-0.077,0.017C23.809,5.139,23.837,5.134,23.864,5.125z M19.069,6.829
	c0.34,0.458,5.078,6.881,9.513,14.762c-12.301,3.269-22.977,3.141-23.653,3.129C6.594,16.784,11.925,10.204,19.069,6.829z
	 M4.381,29.998c0-0.273,0.012-0.541,0.021-0.809c0.451,0.01,13.111,0.296,26.301-3.65c0.734,1.437,1.437,2.896,2.078,4.354
	c-0.339,0.095-0.673,0.196-1.01,0.306c-13.824,4.468-20.837,16.909-20.837,16.909s0.009,0.007,0.01,0.012
	C6.865,42.581,4.381,36.58,4.381,29.998z M30.001,55.62c-6.202,0-11.888-2.205-16.32-5.871c0.338,0.272,0.573,0.447,0.573,0.447
	s4.911-10.711,20.106-16.003c0.055-0.021,0.111-0.038,0.168-0.055c3.605,9.367,5.094,17.212,5.473,19.452
	C36.93,54.896,33.547,55.62,30.001,55.62z M44.315,51.249c-0.261-1.548-1.626-9.066-4.987-18.301
	c8.272-1.322,15.438,0.946,15.966,1.119C54.154,41.206,50.067,47.364,44.315,51.249z"/>
</svg>
