<?xml version="1.0" encoding="utf-8"?>
<!-- Generator: Adobe Illustrator 16.0.0, SVG Export Plug-In . SVG Version: 6.00 Build 0)  -->
<!DOCTYPE svg PUBLIC "-//W3C//DTD SVG 1.1//EN" "http://www.w3.org/Graphics/SVG/1.1/DTD/svg11.dtd">
<svg version="1.1" id="Layer_1" xmlns="http://www.w3.org/2000/svg" xmlns:xlink="http://www.w3.org/1999/xlink" x="0px" y="0px"
	 width="60px" height="60px" viewBox="0 0 60 60" enable-background="new 0 0 60 60" xml:space="preserve">
<path fill="#01AFEC" d="M30,0C13.432,0,0,13.432,0,30c0,16.568,13.432,30,30,30s30-13.432,30-30C60,13.432,46.566,0,30,0z"/>
<path fill="#FFFFFF" d="M38.762,39.01h-6.949c-4.945,0-5.733-2.188-5.733-4.217c0-0.962,0.06-2.549,0.119-4.493h11.61
	c1.737,0,5.053-0.713,5.053-3.891c0-3.176-1.53-5.259-3.582-5.259H26.341C26.328,16.566,26.029,12,21.552,12
	c-1.852,0-3.353,0.76-3.987,2.648c-0.832,2.481-0.612,5.388-0.601,7.971c0.003,0.49,0.005,0.984,0.006,1.477
	c0.006,1.691,0.041,3.395,0.048,5.095c0.004,1.831,0.007,3.663,0.007,5.491c0,10.248,9.315,13.152,11.102,13.152
	c1.788,0,8.788,0.166,10.05,0.166c1.267,0,4.894-0.336,4.894-4.006C43.07,40.325,40.496,39.01,38.762,39.01z"/>
</svg>
