<?xml version="1.0" encoding="utf-8"?>
<!-- Generator: Adobe Illustrator 16.0.0, SVG Export Plug-In . SVG Version: 6.00 Build 0)  -->
<!DOCTYPE svg PUBLIC "-//W3C//DTD SVG 1.1//EN" "http://www.w3.org/Graphics/SVG/1.1/DTD/svg11.dtd">
<svg version="1.1" id="Layer_2" xmlns="http://www.w3.org/2000/svg" xmlns:xlink="http://www.w3.org/1999/xlink" x="0px" y="0px"
	 width="60px" height="60px" viewBox="0 0 60 60" enable-background="new 0 0 60 60" xml:space="preserve">
<path d="M59.972,26.001c-0.188-1.166-0.415-2.317-0.71-3.456c-0.375-1.446-0.857-2.879-1.446-4.259
	c-1.192-2.839-2.826-5.491-4.809-7.849c-2.143-2.532-4.729-4.715-7.595-6.389c-2.826-1.661-5.906-2.839-9.121-3.496
	c-1.661-0.335-3.335-0.536-5.036-0.549c-1.326-0.013-2.651,0.04-3.965,0.161C23.875,0.499,20.5,1.45,17.393,2.91
	c-2.665,1.259-5.144,2.893-7.34,4.849S5.94,11.991,4.4,14.495c-1.701,2.786-2.974,5.827-3.67,9.014
	c-0.562,2.545-0.83,5.17-0.696,7.782c0.12,2.532,0.509,5.063,1.272,7.487c0.481,1.541,1.058,3.041,1.781,4.501
	c0.71,1.433,1.54,2.812,2.464,4.111c1.849,2.585,4.099,4.876,6.671,6.765c2.625,1.941,5.585,3.441,8.692,4.433
	c3.241,1.031,6.684,1.514,10.086,1.394c3.321-0.107,6.616-0.75,9.724-1.942c2.987-1.151,5.786-2.799,8.237-4.862
	c1.232-1.044,2.33-2.223,3.362-3.469c1.044-1.259,1.981-2.585,2.759-4.019c0.67-1.231,1.232-2.518,1.714-3.817
	c0.241-0.643,0.469-1.285,0.657-1.955c0.2-0.71,0.348-1.446,0.481-2.17c0.201-1.139,0.281-2.317,0.175-3.469
	c-0.094,0.509-0.175,1.005-0.295,1.5c-0.147,0.576-0.335,1.139-0.55,1.688c-0.428,1.165-0.964,2.29-1.473,3.416
	c-0.656,1.433-1.42,2.799-2.25,4.125c-0.429,0.683-0.871,1.353-1.354,1.996c-0.481,0.643-1.031,1.259-1.58,1.861
	c-1.099,1.219-2.29,2.304-3.616,3.269c-1.353,0.99-2.786,1.861-4.3,2.585c-3.027,1.473-6.335,2.357-9.684,2.651
	c-3.429,0.295-6.925-0.04-10.22-1.018c-3.134-0.924-6.107-2.425-8.719-4.394c-2.532-1.915-4.729-4.272-6.456-6.938
	c-1.809-2.72-3.054-5.786-3.737-8.987c-0.174-0.831-0.308-1.688-0.401-2.532c-0.081-0.723-0.147-1.46-0.175-2.196
	c-0.04-1.514,0.054-3.08,0.281-4.581c0.496-3.294,1.567-6.469,3.229-9.362c1.473-2.585,3.389-4.916,5.639-6.885
	c2.25-1.982,4.821-3.576,7.607-4.701c1.607-0.656,3.295-1.139,5.01-1.46c0.87-0.161,1.741-0.295,2.611-0.362
	c0.429-0.04,0.844-0.04,1.272-0.08c0.174,0,0.349,0.013,0.522,0.013c2.906-0.054,5.826,0.321,8.599,1.192
	c2.987,0.938,5.8,2.451,8.237,4.42c2.559,2.062,4.688,4.607,6.296,7.474c1.366,2.438,2.344,5.063,2.933,7.795
	c0.134,0.63,0.241,1.259,0.349,1.889c0.094,0.576,0.415,1.111,0.91,1.433c1.045,0.697,2.505,0.228,3.014-0.897
	C59.985,26.805,60.039,26.389,59.972,26.001z"/>
</svg>
