<?xml version="1.0" encoding="utf-8"?>
<!-- Generator: Adobe Illustrator 16.0.0, SVG Export Plug-In . SVG Version: 6.00 Build 0)  -->
<!DOCTYPE svg PUBLIC "-//W3C//DTD SVG 1.1//EN" "http://www.w3.org/Graphics/SVG/1.1/DTD/svg11.dtd">
<svg version="1.1" id="Layer_1" xmlns="http://www.w3.org/2000/svg" xmlns:xlink="http://www.w3.org/1999/xlink" x="0px" y="0px"
	 width="60px" height="60px" viewBox="0 0 60 60" enable-background="new 0 0 60 60" xml:space="preserve">
<path fill="#FF7F00" d="M0.128,31.886c7.463,0,14.478,2.915,19.749,8.218c5.281,5.303,8.19,12.364,8.19,19.883h11.498
	c0-21.837-17.691-39.6-39.438-39.6V31.886z M0.146,11.5c26.597,0,48.235,21.757,48.235,48.5h11.5c0-33.087-26.798-60-59.735-60V11.5
	z M16.049,51.966c0,4.398-3.567,7.966-7.966,7.966s-7.964-3.567-7.964-7.966c0-4.4,3.565-7.966,7.964-7.966
	S16.049,47.565,16.049,51.966z"/>
</svg>
