<?xml version="1.0" encoding="utf-8"?>
<!-- Generator: Adobe Illustrator 16.0.0, SVG Export Plug-In . SVG Version: 6.00 Build 0)  -->
<!DOCTYPE svg PUBLIC "-//W3C//DTD SVG 1.1//EN" "http://www.w3.org/Graphics/SVG/1.1/DTD/svg11.dtd">
<svg version="1.1" id="Layer_2" xmlns="http://www.w3.org/2000/svg" xmlns:xlink="http://www.w3.org/1999/xlink" x="0px" y="0px"
	 width="60px" height="60px" viewBox="0 0 60 60" enable-background="new 0 0 60 60" xml:space="preserve">
<path fill="#4E5569" d="M52,58c0,1.104-0.896,2-2,2H10c-1.104,0-2-0.896-2-2V2c0-1.104,0.896-2,2-2h40c1.104,0,2,0.896,2,2V58z"/>
<rect x="12" y="4" fill="#353D51" width="36" height="1"/>
<rect x="12" y="4" fill="#353D51" width="1" height="55.958"/>
<rect x="47" y="4" fill="#353D51" width="1" height="55.958"/>
<path fill="#353D51" d="M16,8v7h28V8H16z M18.5,14h-1v-1h1V14z M18.5,12h-1v-1h1V12z M18.5,10h-1V9h1V10z M20.5,14h-1v-1h1V14z
	 M20.5,12h-1v-1h1V12z M20.5,10h-1V9h1V10z M22.5,14h-1v-1h1V14z M22.5,12h-1v-1h1V12z M22.5,10h-1V9h1V10z M24.5,14h-1v-1h1V14z
	 M24.5,12h-1v-1h1V12z M24.5,10h-1V9h1V10z M26.5,14h-1v-1h1V14z M26.5,12h-1v-1h1V12z M26.5,10h-1V9h1V10z M28.5,14h-1v-1h1V14z
	 M28.5,12h-1v-1h1V12z M28.5,10h-1V9h1V10z M30.5,14h-1v-1h1V14z M30.5,12h-1v-1h1V12z M30.5,10h-1V9h1V10z M32.5,14h-1v-1h1V14z
	 M32.5,12h-1v-1h1V12z M32.5,10h-1V9h1V10z M34.5,14h-1v-1h1V14z M34.5,12h-1v-1h1V12z M34.5,10h-1V9h1V10z M36.5,14h-1v-1h1V14z
	 M36.5,12h-1v-1h1V12z M36.5,10h-1V9h1V10z M38.5,14h-1v-1h1V14z M38.5,12h-1v-1h1V12z M38.5,10h-1V9h1V10z M40.5,14h-1v-1h1V14z
	 M40.5,12h-1v-1h1V12z M40.5,10h-1V9h1V10z M42.5,14h-1v-1h1V14z M42.5,12h-1v-1h1V12z M42.5,10h-1V9h1V10z"/>
<path fill="#353D51" d="M13,51v9h34v-9H13z M17.5,52h1v1h-1V52z M18.5,59h-1v-1h1V59z M18.5,57h-1v-1h1V57z M18.5,55h-1v-1h1V55z
	 M19.5,52h1v1h-1V52z M20.5,59h-1v-1h1V59z M20.5,57h-1v-1h1V57z M20.5,55h-1v-1h1V55z M21.5,52h1v1h-1V52z M22.5,59h-1v-1h1V59z
	 M22.5,57h-1v-1h1V57z M22.5,55h-1v-1h1V55z M23.5,52h1v1h-1V52z M24.5,59h-1v-1h1V59z M24.5,57h-1v-1h1V57z M24.5,55h-1v-1h1V55z
	 M25.5,52h1v1h-1V52z M26.5,59h-1v-1h1V59z M26.5,57h-1v-1h1V57z M26.5,55h-1v-1h1V55z M27.5,52h1v1h-1V52z M28.5,59h-1v-1h1V59z
	 M28.5,57h-1v-1h1V57z M28.5,55h-1v-1h1V55z M29.5,52h1v1h-1V52z M30.5,59h-1v-1h1V59z M30.5,57h-1v-1h1V57z M30.5,55h-1v-1h1V55z
	 M32.5,59h-1v-1h1V59z M32.5,57h-1v-1h1V57z M32.5,55h-1v-1h1V55z M32.5,53h-1v-1h1V53z M34.5,59h-1v-1h1V59z M34.5,57h-1v-1h1V57z
	 M34.5,55h-1v-1h1V55z M34.5,53h-1v-1h1V53z M36.5,59h-1v-1h1V59z M36.5,57h-1v-1h1V57z M36.5,55h-1v-1h1V55z M36.5,53h-1v-1h1V53z
	 M38.5,59h-1v-1h1V59z M38.5,57h-1v-1h1V57z M38.5,55h-1v-1h1V55z M38.5,53h-1v-1h1V53z M40.5,59h-1v-1h1V59z M40.5,57h-1v-1h1V57z
	 M40.5,55h-1v-1h1V55z M40.5,53h-1v-1h1V53z M42.5,59h-1v-1h1V59z M42.5,57h-1v-1h1V57z M42.5,55h-1v-1h1V55z M42.5,53h-1v-1h1V53z"
	/>
<g>
	<path fill="#353D51" d="M16.002,19.492v5h12v-5H16.002z M18.502,23.492h-1v-1h1V23.492z M18.502,21.492h-1v-1h1V21.492z
		 M20.502,23.492h-1v-1h1V23.492z M20.502,21.492h-1v-1h1V21.492z M22.502,23.492h-1v-1h1V23.492z M22.502,21.492h-1v-1h1V21.492z
		 M24.502,23.492h-1v-1h1V23.492z M24.502,21.492h-1v-1h1V21.492z M26.502,23.492h-1v-1h1V23.492z M26.502,21.492h-1v-1h1V21.492z"
		/>
	<circle fill="#00C13B" cx="35.752" cy="20.734" r="0.75"/>
	<circle fill="#00C13B" cx="35.752" cy="23.25" r="0.75"/>
	<circle fill="#00C279" cx="38.252" cy="20.734" r="0.75"/>
	<circle fill="#00C279" cx="38.252" cy="23.25" r="0.75"/>
	<circle fill="#EF5E16" cx="30.752" cy="20.734" r="0.75"/>
	<circle fill="#EF5E16" cx="30.752" cy="23.25" r="0.75"/>
	<circle fill="#E5CA2E" cx="33.252" cy="20.734" r="0.75"/>
	<circle fill="#E5CA2E" cx="33.252" cy="23.25" r="0.75"/>
	<circle fill="#00B8C1" cx="40.752" cy="20.734" r="0.75"/>
	<circle fill="#00B8C1" cx="40.752" cy="23.25" r="0.75"/>
	<circle fill="#0097BF" cx="43.252" cy="20.734" r="0.75"/>
	<circle fill="#0097BF" cx="43.252" cy="23.25" r="0.75"/>
</g>
<g>
	<path fill="#353D51" d="M16.002,28.992v5h12v-5H16.002z M18.502,32.992h-1v-1h1V32.992z M18.502,30.992h-1v-1h1V30.992z
		 M20.502,32.992h-1v-1h1V32.992z M20.502,30.992h-1v-1h1V30.992z M22.502,32.992h-1v-1h1V32.992z M22.502,30.992h-1v-1h1V30.992z
		 M24.502,32.992h-1v-1h1V32.992z M24.502,30.992h-1v-1h1V30.992z M26.502,32.992h-1v-1h1V32.992z M26.502,30.992h-1v-1h1V30.992z"
		/>
	<circle fill="#00C13B" cx="35.752" cy="30.234" r="0.75"/>
	<circle fill="#00C13B" cx="35.752" cy="32.75" r="0.75"/>
	<circle fill="#00C279" cx="38.252" cy="30.234" r="0.75"/>
	<circle fill="#00C279" cx="38.252" cy="32.75" r="0.75"/>
	<circle fill="#EF5E16" cx="30.752" cy="30.234" r="0.75"/>
	<circle fill="#EF5E16" cx="30.752" cy="32.75" r="0.75"/>
	<circle fill="#E5CA2E" cx="33.252" cy="30.234" r="0.75"/>
	<circle fill="#E5CA2E" cx="33.252" cy="32.75" r="0.75"/>
	<circle fill="#00B8C1" cx="40.752" cy="30.234" r="0.75"/>
	<circle fill="#00B8C1" cx="40.752" cy="32.75" r="0.75"/>
	<circle fill="#0097BF" cx="43.252" cy="30.234" r="0.75"/>
	<circle fill="#0097BF" cx="43.252" cy="32.75" r="0.75"/>
</g>
<g>
	<path fill="#353D51" d="M16.002,38.508v5h12v-5H16.002z M18.502,42.508h-1v-1h1V42.508z M18.502,40.508h-1v-1h1V40.508z
		 M20.502,42.508h-1v-1h1V42.508z M20.502,40.508h-1v-1h1V40.508z M22.502,42.508h-1v-1h1V42.508z M22.502,40.508h-1v-1h1V40.508z
		 M24.502,42.508h-1v-1h1V42.508z M24.502,40.508h-1v-1h1V40.508z M26.502,42.508h-1v-1h1V42.508z M26.502,40.508h-1v-1h1V40.508z"
		/>
	<circle fill="#00C13B" cx="35.752" cy="39.75" r="0.75"/>
	<circle fill="#00C13B" cx="35.752" cy="42.266" r="0.75"/>
	<circle fill="#00C279" cx="38.252" cy="39.75" r="0.75"/>
	<circle fill="#00C279" cx="38.252" cy="42.266" r="0.75"/>
	<circle fill="#EF5E16" cx="30.752" cy="39.75" r="0.75"/>
	<circle fill="#EF5E16" cx="30.752" cy="42.266" r="0.75"/>
	<circle fill="#E5CA2E" cx="33.252" cy="39.75" r="0.75"/>
	<circle fill="#E5CA2E" cx="33.252" cy="42.266" r="0.75"/>
	<circle fill="#00B8C1" cx="40.752" cy="39.75" r="0.75"/>
	<circle fill="#00B8C1" cx="40.752" cy="42.266" r="0.75"/>
	<circle fill="#0097BF" cx="43.252" cy="39.75" r="0.75"/>
	<circle fill="#0097BF" cx="43.252" cy="42.266" r="0.75"/>
</g>
<rect x="13" y="17" fill="#353D51" width="34" height="0.5"/>
<rect x="13" y="26.492" fill="#353D51" width="34" height="0.5"/>
<rect x="13.002" y="35.992" fill="#353D51" width="34" height="0.5"/>
<rect x="13" y="45.508" fill="#353D51" width="34" height="0.5"/>
<path fill="#00FF97" d="M48,2.167c0,0.276-0.224,0.5-0.5,0.5l0,0c-0.276,0-0.5-0.224-0.5-0.5l0,0c0-0.276,0.224-0.5,0.5-0.5l0,0
	C47.776,1.667,48,1.89,48,2.167L48,2.167z"/>
</svg>
