<?xml version="1.0" encoding="utf-8"?>
<!-- Generator: Adobe Illustrator 16.0.0, SVG Export Plug-In . SVG Version: 6.00 Build 0)  -->
<!DOCTYPE svg PUBLIC "-//W3C//DTD SVG 1.1//EN" "http://www.w3.org/Graphics/SVG/1.1/DTD/svg11.dtd">
<svg version="1.1" id="Layer_2" xmlns="http://www.w3.org/2000/svg" xmlns:xlink="http://www.w3.org/1999/xlink" x="0px" y="0px"
	 width="60px" height="60px" viewBox="0 0 60 60" enable-background="new 0 0 60 60" xml:space="preserve">
<g>
	<path fill="none" stroke="#6F5C9F" stroke-width="4" stroke-miterlimit="10" d="M54.096,30.469
		c1.978-0.644,3.407-2.506,3.407-4.698c0-2.722-2.205-4.942-4.94-4.942H37.863c0.287-3.582,1.435-7.678,0.158-12.505
		c-1.073-4.068-5.646-7.119-7.506-5.271c-0.717,0.702-0.5,2.177-0.5,4.842c0,6.13-2.55,12.333-5.701,15.571
		C22.967,24.855,20.649,26.914,18.5,27L2.498,25.406v28.219l16.627-2.75c2.951-0.072,6.951,2.785,10.274,2.986
		c7.449,0.443,14.613-0.344,18.092-1.16s5.014-1.861,5.014-4.383c0-0.918-0.272-1.764-0.729-2.479
		c1.688-0.672,2.879-2.319,2.879-4.253c0-1.031-0.344-1.977-0.916-2.75c1.703-0.659,2.923-2.32,2.923-4.27
		C56.645,32.775,55.6,31.214,54.096,30.469z"/>
</g>
</svg>
