<?xml version="1.0" encoding="utf-8"?>
<!-- Generator: Adobe Illustrator 16.0.0, SVG Export Plug-In . SVG Version: 6.00 Build 0)  -->
<!DOCTYPE svg PUBLIC "-//W3C//DTD SVG 1.1//EN" "http://www.w3.org/Graphics/SVG/1.1/DTD/svg11.dtd">
<svg version="1.1" id="Layer_2" xmlns="http://www.w3.org/2000/svg" xmlns:xlink="http://www.w3.org/1999/xlink" x="0px" y="0px"
	 width="60px" height="60px" viewBox="0 0 60 60" enable-background="new 0 0 60 60" xml:space="preserve">
<path fill="#4E5569" d="M33.5,3.5c-4.627,0-8.977,1.188-12.763,3.272c-0.033,0.018-0.099,0.055-0.099,0.055L22.47,9.6
	c3.28-1.777,7.037-2.788,11.03-2.788c12.807,0,23.188,10.381,23.188,23.188c0,12.806-10.381,23.188-23.188,23.188
	c-6.491,0-12.351-2.673-16.557-6.973l5.398-3.927L7.885,35.959L8.493,52.36l5.741-4.176C19.065,53.302,25.907,56.5,33.5,56.5
	C48.137,56.5,60,44.636,60,30C60,15.365,48.137,3.5,33.5,3.5z"/>
<path fill="#00A25F" d="M5.041,20.573L2.5,23.088l9.026,9.273l16.046-15.967l-2.493-2.42l-13.45,13.21L5.041,20.573z"/>
<rect x="32.887" y="12.14" fill="#C0C2CB" width="3" height="19.277"/>
<rect x="37.263" y="28.384" transform="matrix(0.7071 -0.7071 0.7071 0.7071 -13.5325 37.7174)" fill="#C0C2CB" width="3" height="13.619"/>
</svg>
