<?xml version="1.0" encoding="utf-8"?>
<!-- Generator: Adobe Illustrator 16.0.0, SVG Export Plug-In . SVG Version: 6.00 Build 0)  -->
<!DOCTYPE svg PUBLIC "-//W3C//DTD SVG 1.1//EN" "http://www.w3.org/Graphics/SVG/1.1/DTD/svg11.dtd">
<svg version="1.1" id="Layer_2" xmlns="http://www.w3.org/2000/svg" xmlns:xlink="http://www.w3.org/1999/xlink" x="0px" y="0px"
	 width="60px" height="60px" viewBox="0 0 60 60" enable-background="new 0 0 60 60" xml:space="preserve">
<g>
	<path d="M30,50.724c-10.84,0-20.36-1.803-25.875-5.523v8.173l0,0C4.125,56.583,16.107,60,30,60c13.893,0,25.875-3.459,25.875-6.626
		l0,0v-8.173C50.359,48.919,40.839,50.724,30,50.724z"/>
	<path d="M30,36.474c-10.84,0-20.36-1.803-25.875-5.523v8.173l0,0c0,3.21,11.982,6.627,25.875,6.627
		c13.893,0,25.875-3.459,25.875-6.626l0,0v-8.173C50.359,34.669,40.839,36.474,30,36.474z"/>
	<path d="M30,22.224c-10.84,0-20.36-1.803-25.875-5.523v8.173l0,0c0,3.21,11.982,6.627,25.875,6.627
		c13.893,0,25.875-3.459,25.875-6.626l0,0v-8.173C50.359,20.419,40.839,22.224,30,22.224z"/>
	<path d="M30,0c13.893,0,25.156,3.357,25.156,7.5c0,4.145-11.262,7.5-25.156,7.5C16.105,15,4.844,11.643,4.844,7.5S16.107,0,30,0z"
		/>
</g>
</svg>
