<?xml version="1.0" encoding="utf-8"?>
<!-- Generator: Adobe Illustrator 16.0.0, SVG Export Plug-In . SVG Version: 6.00 Build 0)  -->
<!DOCTYPE svg PUBLIC "-//W3C//DTD SVG 1.1//EN" "http://www.w3.org/Graphics/SVG/1.1/DTD/svg11.dtd">
<svg version="1.1" id="Layer_2" xmlns="http://www.w3.org/2000/svg" xmlns:xlink="http://www.w3.org/1999/xlink" x="0px" y="0px"
	 width="60px" height="60px" viewBox="0 0 60 60" enable-background="new 0 0 60 60" xml:space="preserve">
<g>
	<path d="M55.408,30.589C57.495,29.912,59,27.947,59,25.636c0-2.871-2.324-5.211-5.209-5.211h-15.5
		c0.304-3.777,1.513-8.096,0.167-13.186c-1.132-4.291-5.954-7.507-7.913-5.558c-0.759,0.74-0.528,2.295-0.528,5.105
		c0,6.463-2.689,13.004-6.013,16.419c-1.42,1.465-3.864,3.636-6.13,3.727L1,25.251v29.756l17.533-2.901
		c3.112-0.075,7.33,2.938,10.834,3.15c7.855,0.467,15.409-0.362,19.078-1.223c3.669-0.862,5.286-1.963,5.286-4.622
		c0-0.968-0.287-1.86-0.769-2.614c1.78-0.71,3.035-2.445,3.035-4.486c0-1.087-0.362-2.082-0.966-2.899
		c1.796-0.694,3.084-2.446,3.084-4.501C58.096,33.021,56.994,31.375,55.408,30.589z"/>
</g>
</svg>
