<?xml version="1.0" encoding="utf-8"?>
<!-- Generator: Adobe Illustrator 16.0.0, SVG Export Plug-In . SVG Version: 6.00 Build 0)  -->
<!DOCTYPE svg PUBLIC "-//W3C//DTD SVG 1.1//EN" "http://www.w3.org/Graphics/SVG/1.1/DTD/svg11.dtd">
<svg version="1.1" id="Layer_2" xmlns="http://www.w3.org/2000/svg" xmlns:xlink="http://www.w3.org/1999/xlink" x="0px" y="0px"
	 width="60px" height="60px" viewBox="0 0 60 60" enable-background="new 0 0 60 60" xml:space="preserve">
<g>
	<path d="M35.433,29.043c-3.343,0-6.093-2.752-6.093-6.094c0-0.266,0.046-0.521,0.079-0.778c-4.041,0.303-7.274,3.714-7.274,7.826
		c0,4.308,3.547,7.855,7.855,7.855c4.308,0,7.855-3.548,7.855-7.855c0-0.482-0.05-0.954-0.135-1.414
		C37.012,28.876,36.24,29.043,35.433,29.043z"/>
	<path d="M30,7.25C13.432,7.25,0,30,0,30s13.432,22.75,30,22.75S60,30,60,30S46.568,7.25,30,7.25z M30,44.938
		c-8.255,0-14.938-6.683-14.938-14.938S21.745,15.062,30,15.062S44.938,21.745,44.938,30S38.255,44.938,30,44.938z"/>
</g>
</svg>
