<?xml version="1.0" encoding="utf-8"?>
<!-- Generator: Adobe Illustrator 16.0.0, SVG Export Plug-In . SVG Version: 6.00 Build 0)  -->
<!DOCTYPE svg PUBLIC "-//W3C//DTD SVG 1.1//EN" "http://www.w3.org/Graphics/SVG/1.1/DTD/svg11.dtd">
<svg version="1.1" id="Layer_2" xmlns="http://www.w3.org/2000/svg" xmlns:xlink="http://www.w3.org/1999/xlink" x="0px" y="0px"
	 width="60px" height="60px" viewBox="0 0 60 60" enable-background="new 0 0 60 60" xml:space="preserve">
<g>
	<rect y="13" width="24" height="5"/>
	<rect y="27.167" width="17" height="4.667"/>
	<rect y="42" width="10" height="5"/>
</g>
<path d="M39.5,9.895c-5.63,0-10.195,4.566-10.195,10.195c0,5.632,4.565,10.195,10.195,10.195c5.631,0,10.195-4.563,10.195-10.195
	C49.695,14.459,45.131,9.895,39.5,9.895z M49.979,30.584c-2.746,2.565-6.424,4.147-10.479,4.147s-7.732-1.582-10.479-4.147
	C23.173,32.761,19,38.376,19,44.98v5.125h41V44.98C60,38.376,55.827,32.761,49.979,30.584z"/>
</svg>
