<?xml version="1.0" encoding="utf-8"?>
<!-- Generator: Adobe Illustrator 16.0.0, SVG Export Plug-In . SVG Version: 6.00 Build 0)  -->
<!DOCTYPE svg PUBLIC "-//W3C//DTD SVG 1.1//EN" "http://www.w3.org/Graphics/SVG/1.1/DTD/svg11.dtd">
<svg version="1.1" id="Layer_2" xmlns="http://www.w3.org/2000/svg" xmlns:xlink="http://www.w3.org/1999/xlink" x="0px" y="0px"
	 width="60px" height="60px" viewBox="0 0 60 60" enable-background="new 0 0 60 60" xml:space="preserve">
<g>
	<path fill="none" stroke="#000000" stroke-width="4.9324" stroke-miterlimit="10" d="M43.994,32.373
		C40.326,35.8,35.416,37.912,30,37.912s-10.326-2.113-13.994-5.539C8.197,35.28,2.625,42.78,2.625,51.598v5.863h54.75v-5.863
		C57.375,42.78,51.803,35.28,43.994,32.373z"/>
	<path d="M30,1.538c-8.126,0-14.716,6.592-14.716,14.719c0,8.129,6.59,14.718,14.716,14.718c8.129,0,14.719-6.589,14.719-14.718
		S38.129,1.538,30,1.538z M30,25.517c-5.113,0-9.259-4.145-9.259-9.26c0-5.115,4.145-9.26,9.259-9.26c5.111,0,9.26,4.145,9.26,9.26
		C39.26,21.372,35.111,25.517,30,25.517z"/>
</g>
<path d="M44.959,51.875L44.959,51.875H27.875c-2.704,0-4.896-1.894-4.896-4.23c0-2.335,2.192-4.229,4.896-4.229h17.083h0.001
	c2.703,0,4.895,1.895,4.895,4.229C49.854,49.981,47.662,51.875,44.959,51.875z"/>
</svg>
