<?xml version="1.0" encoding="utf-8"?>
<!-- Generator: Adobe Illustrator 16.0.0, SVG Export Plug-In . SVG Version: 6.00 Build 0)  -->
<!DOCTYPE svg PUBLIC "-//W3C//DTD SVG 1.1//EN" "http://www.w3.org/Graphics/SVG/1.1/DTD/svg11.dtd">
<svg version="1.1" xmlns="http://www.w3.org/2000/svg" xmlns:xlink="http://www.w3.org/1999/xlink" x="0px" y="0px" width="60px"
	 height="60px" viewBox="0 0 60 60" enable-background="new 0 0 60 60" xml:space="preserve">
<g id="Layer_2">
	<g>
		<path d="M30,13.879c-6.283,0-11.378,5.097-11.378,11.381c0,6.285,5.095,11.38,11.378,11.38c6.285,0,11.381-5.095,11.381-11.38
			S36.285,13.879,30,13.879z M30,32.42c-3.953,0-7.159-3.205-7.159-7.16c0-3.955,3.205-7.16,7.159-7.16
			c3.952,0,7.16,3.205,7.16,7.16C37.16,29.215,33.952,32.42,30,32.42z"/>
		<path d="M30,40.126c-7.323,0-13.917,3.126-18.518,8.118c-0.977,1.06-1.815,2.027-2.648,3.418C7.993,53.067,16.094,60,30,60
			s21.499-7.875,21.081-8.468c-0.779-1.105-1.571-2.2-2.479-3.196C43.998,43.29,37.368,40.126,30,40.126z M30,43.903
			c6.188,0,11.746,2.643,15.654,6.842C41.299,54.039,35.88,56,30,56c-5.881,0-11.299-1.961-15.655-5.255
			C18.253,46.546,23.812,43.903,30,43.903z"/>
	</g>
	<g>
		<path d="M7.265,42.335C4.878,38.454,4.5,34.889,4.5,30C4.5,15.918,15.918,4.5,30,4.5c14.081,0,25.5,11.418,25.5,25.5
			c0,4.889-0.379,8.454-2.765,12.335c1.085,1.141,2.083,2.364,2.979,3.665C59.046,41.167,60,36.312,60,30C60,13.432,46.568,0,30,0
			S0,13.432,0,30c0,6.312,0.954,11.167,4.285,16C5.181,44.699,6.179,43.476,7.265,42.335z"/>
	</g>
	<path display="none" d="M30.069,40C17.727,40,7.722,50,7.722,50s10.005,10,22.348,10c12.342,0,22.348-10,22.348-10
		S42.411,40,30.069,40z M29.99,56.334c-9.052,0-16.39-6.334-16.39-6.334s7.337-6.334,16.39-6.334c9.052,0,16.39,6.334,16.39,6.334
		S39.042,56.334,29.99,56.334z"/>
</g>
<g id="Layer_3">
</g>
</svg>
