<?xml version="1.0" encoding="utf-8"?>
<!-- Generator: Adobe Illustrator 16.0.0, SVG Export Plug-In . SVG Version: 6.00 Build 0)  -->
<!DOCTYPE svg PUBLIC "-//W3C//DTD SVG 1.1//EN" "http://www.w3.org/Graphics/SVG/1.1/DTD/svg11.dtd">
<svg version="1.1" id="Layer_2" xmlns="http://www.w3.org/2000/svg" xmlns:xlink="http://www.w3.org/1999/xlink" x="0px" y="0px"
	 width="60px" height="60px" viewBox="0 0 60 60" enable-background="new 0 0 60 60" xml:space="preserve">
<g>
	<path d="M17.717,29.521c-1.672,0-3.047-1.376-3.047-3.047c0-0.133,0.023-0.261,0.04-0.39c-2.021,0.152-3.637,1.857-3.637,3.913
		c0,2.154,1.773,3.928,3.927,3.928c2.154,0,3.928-1.773,3.928-3.928c0-0.24-0.025-0.477-0.067-0.707
		C18.506,29.438,18.12,29.521,17.717,29.521z"/>
	<path d="M15,18.625C6.716,18.625,0,30,0,30s6.716,11.375,15,11.375C23.284,41.375,30,30,30,30S23.284,18.625,15,18.625z M15,37.469
		c-4.127,0-7.469-3.342-7.469-7.469c0-4.128,3.341-7.469,7.469-7.469c4.127,0,7.469,3.341,7.469,7.469
		C22.469,34.127,19.127,37.469,15,37.469z"/>
</g>
<g>
	<path d="M47.717,29.521c-1.672,0-3.047-1.376-3.047-3.047c0-0.133,0.023-0.261,0.039-0.39c-2.02,0.152-3.637,1.857-3.637,3.913
		c0,2.154,1.773,3.928,3.928,3.928s3.928-1.773,3.928-3.928c0-0.24-0.025-0.477-0.067-0.707
		C48.506,29.438,48.12,29.521,47.717,29.521z"/>
	<path d="M45,18.625C36.717,18.625,30,30,30,30s6.717,11.375,15,11.375C53.284,41.375,60,30,60,30S53.284,18.625,45,18.625z
		 M45,37.469c-4.127,0-7.469-3.342-7.469-7.469c0-4.128,3.342-7.469,7.469-7.469s7.469,3.341,7.469,7.469
		C52.469,34.127,49.127,37.469,45,37.469z"/>
</g>
</svg>
