<?xml version="1.0" encoding="utf-8"?>
<!-- Generator: Adobe Illustrator 16.0.0, SVG Export Plug-In . SVG Version: 6.00 Build 0)  -->
<!DOCTYPE svg PUBLIC "-//W3C//DTD SVG 1.1//EN" "http://www.w3.org/Graphics/SVG/1.1/DTD/svg11.dtd">
<svg version="1.1" id="Layer_2" xmlns="http://www.w3.org/2000/svg" xmlns:xlink="http://www.w3.org/1999/xlink" x="0px" y="0px"
	 width="60px" height="60px" viewBox="0 0 60 60" enable-background="new 0 0 60 60" xml:space="preserve">
<g>
	<path d="M7.517,28.956c-0.015,4.819,1.594,9.357,4.646,13.16l0.937,1.15l5.809-5.248l-0.736-0.964
		c-1.793-2.355-2.729-5.154-2.717-8.072c0-0.923,0.094-1.833,0.281-2.704c0.014-0.08,0.041-0.134,0.053-0.188
		c0.028-0.067,0.055-0.147,0.068-0.214c0.213-0.856,0.428-1.54,0.695-2.142c0.014-0.054,0.041-0.107,0.067-0.147
		c0.026-0.053,0.053-0.107,0.081-0.161c0.36-0.776,0.735-1.433,1.124-1.995c0.039-0.053,0.066-0.093,0.106-0.134l0.094-0.107
		c0.456-0.643,0.951-1.218,1.485-1.754c0.055-0.04,0.107-0.094,0.175-0.147l0.147-0.12c0.549-0.509,1.097-0.951,1.673-1.338
		c0.135-0.081,0.268-0.161,0.401-0.241l0.161-0.094c0.548-0.335,1.111-0.629,1.687-0.883c0.281-0.121,0.575-0.228,0.87-0.335
		c0.509-0.188,1.03-0.334,1.58-0.468c0.375-0.081,0.764-0.161,1.151-0.215c0.094-0.026,0.201-0.026,0.308-0.04l-0.026,8.487
		l13.828-11.995L27.69,0l-0.013,7.764c-0.349,0.027-0.709,0.067-1.059,0.121c-0.388,0.04-0.763,0.094-1.137,0.16
		C25.241,8.098,25,8.139,24.772,8.192c-0.576,0.121-1.085,0.255-1.58,0.389l-0.32,0.094C13.701,11.445,7.517,19.598,7.517,28.956z"
		/>
	<path d="M32.336,35.957L18.508,47.952L32.281,60l0.014-7.766c0.35-0.039,0.696-0.066,1.059-0.119
		c0.375-0.04,0.763-0.094,1.137-0.162c0.242-0.039,0.482-0.094,0.711-0.146c0.575-0.12,1.084-0.254,1.58-0.388l0.32-0.094
		c9.184-2.771,15.368-10.925,15.382-20.28c0.014-4.821-1.593-9.373-4.646-13.161L46.9,16.733l-5.81,5.248l0.736,0.963
		c1.781,2.356,2.73,5.141,2.717,8.072c-0.013,0.924-0.106,1.821-0.294,2.691c-0.013,0.08-0.04,0.134-0.053,0.188
		c-0.027,0.066-0.055,0.134-0.068,0.214c-0.213,0.884-0.441,1.553-0.695,2.142c-0.013,0.04-0.04,0.08-0.067,0.121
		c-0.026,0.053-0.066,0.12-0.094,0.187c-0.36,0.763-0.723,1.42-1.124,1.995c-0.027,0.054-0.067,0.08-0.094,0.12
		c-0.04,0.04-0.081,0.094-0.107,0.134c-0.481,0.656-0.964,1.232-1.485,1.74c-0.054,0.04-0.107,0.094-0.174,0.147l-0.147,0.122
		c-0.549,0.508-1.098,0.949-1.673,1.338c-0.12,0.08-0.255,0.147-0.375,0.227l-0.188,0.107c-0.562,0.336-1.124,0.629-1.687,0.884
		c-0.282,0.12-0.576,0.228-0.871,0.335c-0.535,0.188-1.059,0.347-1.579,0.469c-0.375,0.079-0.764,0.16-1.152,0.214
		c-0.106,0.026-0.214,0.026-0.321,0.04L32.336,35.957z"/>
</g>
</svg>
