<?xml version="1.0" encoding="utf-8"?>
<!-- Generator: Adobe Illustrator 16.0.0, SVG Export Plug-In . SVG Version: 6.00 Build 0)  -->
<!DOCTYPE svg PUBLIC "-//W3C//DTD SVG 1.1//EN" "http://www.w3.org/Graphics/SVG/1.1/DTD/svg11.dtd">
<svg version="1.1" id="Layer_2" xmlns="http://www.w3.org/2000/svg" xmlns:xlink="http://www.w3.org/1999/xlink" x="0px" y="0px"
	 width="60px" height="60px" viewBox="0 0 60 60" enable-background="new 0 0 60 60" xml:space="preserve">
<g>
	<g>
		<path d="M32.796,1.193c0-0.022-0.024-0.022-0.024-0.022c-0.097-0.097-0.192-0.194-0.291-0.269l0,0
			c-0.098-0.072-0.189-0.144-0.289-0.217c-0.025-0.026-0.049-0.026-0.073-0.049c-0.073-0.048-0.166-0.099-0.238-0.146
			c-0.05-0.023-0.071-0.023-0.096-0.045c-0.097-0.051-0.22-0.098-0.312-0.15l0,0c-0.099-0.025-0.193-0.07-0.291-0.097
			c-0.022,0-0.047-0.023-0.072-0.023c-0.047,0-0.07-0.024-0.121-0.024C30.65,0.05,30.292,0,29.953,0
			c-0.338,0-0.699,0.05-1.036,0.149c-0.048,0-0.071,0.024-0.12,0.024c-0.025,0-0.048,0.023-0.07,0.023
			c-0.099,0.026-0.195,0.05-0.291,0.097l0,0c-0.121,0.053-0.217,0.102-0.312,0.15c-0.027,0.021-0.049,0.021-0.073,0.045
			c-0.073,0.049-0.168,0.097-0.239,0.146c-0.024,0.022-0.047,0.022-0.074,0.049c-0.217,0.119-0.409,0.291-0.577,0.457
			c0,0.027,0,0.027,0,0.027L11.966,16.441c-1.542,1.553-1.542,4.099,0.024,5.673c1.564,1.577,4.117,1.577,5.684,0l8.426-8.438
			v28.825c0,2.229,1.637,4.021,3.854,4.021c2.213,0,3.854-1.793,3.854-4.021V13.703l8.475,8.41c1.566,1.576,4.166,1.576,5.73,0
			c1.568-1.549,1.568-4.094,0-5.672L32.796,1.193z"/>
	</g>
	<polygon points="54,34 54,54 6,54 6,34 0,34 0,60 2,60 4,60 56,60 58,60 60,60 60,34 	"/>
</g>
</svg>
