<?xml version="1.0" encoding="utf-8"?>
<!-- Generator: Adobe Illustrator 16.0.0, SVG Export Plug-In . SVG Version: 6.00 Build 0)  -->
<!DOCTYPE svg PUBLIC "-//W3C//DTD SVG 1.1//EN" "http://www.w3.org/Graphics/SVG/1.1/DTD/svg11.dtd">
<svg version="1.1" id="Layer_2" xmlns="http://www.w3.org/2000/svg" xmlns:xlink="http://www.w3.org/1999/xlink" x="0px" y="0px"
	 width="60px" height="60px" viewBox="0 0 60 60" enable-background="new 0 0 60 60" xml:space="preserve">
<g>
	<path d="M19.875,27.464c0,2.09-0.273,4.012-0.817,5.767c-0.545,1.754-1.314,3.264-2.307,4.525
		c-0.993,1.262-2.188,2.248-3.583,2.957c-1.396,0.71-2.943,1.065-4.644,1.065H0v-28.61h8.524c1.701,0,3.249,0.355,4.644,1.064
		c1.395,0.71,2.589,1.7,3.583,2.968c0.993,1.269,1.762,2.777,2.307,4.525C19.602,23.475,19.875,25.387,19.875,27.464z
		 M14.237,27.466c0-1.234-0.126-2.343-0.377-3.328c-0.252-0.984-0.612-1.818-1.082-2.5c-0.47-0.682-1.042-1.207-1.716-1.575
		c-0.675-0.368-1.44-0.552-2.295-0.552h-3.22v15.924h3.22c0.855,0,1.62-0.182,2.295-0.545c0.675-0.361,1.247-0.888,1.716-1.574
		c0.47-0.688,0.83-1.523,1.082-2.507C14.111,29.825,14.237,28.71,14.237,27.466z"/>
	<path d="M42.256,41.779h-3.814c-0.426,0-0.773-0.122-1.041-0.365s-0.467-0.555-0.598-0.937l-1.605-5.462h-9.465l-1.605,5.462
		c-0.109,0.329-0.3,0.628-0.573,0.896c-0.273,0.27-0.617,0.405-1.032,0.405h-3.849l9.286-28.61h5.027L42.256,41.779z M33.48,30
		l-2.19-7.461c-0.132-0.393-0.268-0.852-0.413-1.379c-0.143-0.526-0.281-1.098-0.411-1.714c-0.13,0.627-0.268,1.208-0.411,1.74
		c-0.145,0.532-0.282,0.994-0.412,1.386L27.465,30H33.48z"/>
	<path d="M60,13.169l-9.564,28.61h-4.454l-9.564-28.61h3.963c0.427,0,0.772,0.122,1.04,0.365c0.268,0.243,0.467,0.555,0.599,0.937
		l6.256,18.802l6.125-18.802c0.108-0.329,0.303-0.628,0.581-0.897c0.278-0.269,0.625-0.404,1.04-0.404H60z"/>
</g>
</svg>
