<?xml version="1.0" encoding="utf-8"?>
<!-- Generator: Adobe Illustrator 16.0.0, SVG Export Plug-In . SVG Version: 6.00 Build 0)  -->
<!DOCTYPE svg PUBLIC "-//W3C//DTD SVG 1.1//EN" "http://www.w3.org/Graphics/SVG/1.1/DTD/svg11.dtd">
<svg version="1.1" id="Layer_2" xmlns="http://www.w3.org/2000/svg" xmlns:xlink="http://www.w3.org/1999/xlink" x="0px" y="0px"
	 width="60px" height="60px" viewBox="0 0 60 60" enable-background="new 0 0 60 60" xml:space="preserve">
<g>
	<polygon points="60,15.326 54.919,15.326 49.465,33.4 43.6,15.326 36.062,15.326 45.691,44.793 53.163,44.793 52.384,42.387 	"/>
	<g>
		<path d="M34.445,15.326h-7.539l1.018,3.111l-0.763,2.369c0.651,2.701,0.515,6.188-0.438,10.565
			c-1.156,5.312-3.666,9.086-6.677,11.503l-0.619,1.918h5.679l1.571-5.744h7.983l1.878,5.744h7.471L34.445,15.326z M27.965,34.35
			l2.352-8.591l2.809,8.591H27.965z"/>
	</g>
	<g>
		<path d="M16.738,15.005c-5.282,0-5.074,0-9.116,0L0,44.994c0,0,5.759,0,9.844,0c-0.271-1.613-0.305-3.484-0.271-4.773H8.668
			l5.193-20.44h2.279c2.988,0,4.321,3.752,2.914,10.219c-0.854,3.919-2.07,6.653-3.644,8.304c-0.146,2.04,0.088,4.229,0.371,5.727
			c4.358-1.795,8.29-6.098,9.771-12.909C27.796,20.824,25.704,15.005,16.738,15.005z"/>
	</g>
	<g>
		<path d="M24.012,47.941c-1.652,0.951-3.223,1.477-4.589,1.477c-1.437,0-2.503-0.547-3.356-1.721
			c-1.75-2.404-2.825-8.191-0.094-16.59c0.693-2.129,1.545-4.135,2.504-6.012c-0.218-2.322-1.021-3.711-1.937-3.934
			c-1.595,2.722-2.96,5.706-3.979,8.839C8.427,42.703,11.499,53,19.421,53c2.095,0,4.315-0.734,6.529-2.029l1.108,1.729l3.494-6.738
			l-7.592,0.35L24.012,47.941z"/>
		<path d="M34.395,7c-4.156,0-8.812,2.848-12.904,7.373c1.228,0.352,2.287,0.904,3.21,1.812c3.382-3.541,6.95-5.604,9.694-5.604
			c1.437,0,2.504,0.547,3.357,1.719c0.327,0.451,0.63,1.021,0.891,1.702h3.767C41.204,9.689,38.436,7,34.395,7z"/>
	</g>
</g>
</svg>
