<?xml version="1.0" encoding="utf-8"?>
<!-- Generator: Adobe Illustrator 16.0.0, SVG Export Plug-In . SVG Version: 6.00 Build 0)  -->
<!DOCTYPE svg PUBLIC "-//W3C//DTD SVG 1.1//EN" "http://www.w3.org/Graphics/SVG/1.1/DTD/svg11.dtd">
<svg version="1.1" id="Layer_2" xmlns="http://www.w3.org/2000/svg" xmlns:xlink="http://www.w3.org/1999/xlink" x="0px" y="0px"
	 width="60px" height="60px" viewBox="0 0 60 60" enable-background="new 0 0 60 60" xml:space="preserve">
<path d="M39.238,5.004c-4.385,0-7.219,1.285-9.021,3.177c-1.768-2.168-4.696-3.683-9.46-3.683H0v44.733h20.759
	c3.443,0,6.578,2.747,6.578,5.765V55.5h5.325c0-3.016,3.133-5.762,6.576-5.762H60V5.004H39.238L39.238,5.004z M20.759,43.163H5.325
	V10.568h15.434c6.074,0,6.578,2.728,6.578,5.766v0.505v28.359C25.439,43.92,23.17,43.163,20.759,43.163z M54.675,43.668H39.238
	c-2.41,0-4.678,0.759-6.577,2.036V16.84c0-3.038,0.503-5.766,6.577-5.766h15.437V43.668z"/>
</svg>
