<?xml version="1.0" encoding="utf-8"?>
<!-- Generator: Adobe Illustrator 16.0.0, SVG Export Plug-In . SVG Version: 6.00 Build 0)  -->
<!DOCTYPE svg PUBLIC "-//W3C//DTD SVG 1.1//EN" "http://www.w3.org/Graphics/SVG/1.1/DTD/svg11.dtd">
<svg version="1.1" id="Layer_2" xmlns="http://www.w3.org/2000/svg" xmlns:xlink="http://www.w3.org/1999/xlink" x="0px" y="0px"
	 width="60px" height="60px" viewBox="0 0 60 60" enable-background="new 0 0 60 60" xml:space="preserve">
<g>
	<path d="M15.262,24.667c-0.429-0.623-0.952-1.103-1.568-1.438c-0.617-0.336-1.316-0.504-2.098-0.504H8.654v14.552h2.942
		c0.781,0,1.48-0.167,2.098-0.498c0.617-0.33,1.139-0.812,1.568-1.438c0.429-0.628,0.758-1.393,0.988-2.292
		c0.229-0.899,0.344-1.918,0.344-3.055c0-1.128-0.115-2.142-0.344-3.042C16.02,26.052,15.691,25.29,15.262,24.667z"/>
	<path d="M31.802,24.23c-0.131-0.48-0.258-1.003-0.376-1.566c-0.118,0.573-0.245,1.104-0.376,1.59
		c-0.132,0.485-0.258,0.908-0.376,1.267l-1.991,6.787h5.497l-2.001-6.817C32.059,25.132,31.935,24.712,31.802,24.23z"/>
	<path d="M54,0H6C2.687,0,0,2.687,0,6v48c0,3.313,2.687,6,6,6h48c3.313,0,6-2.687,6-6V6C60,2.687,57.313,0,54,0z M15.619,42.098
		c-1.275,0.651-2.69,0.975-4.244,0.975h-7.79V16.928h7.79c1.554,0,2.969,0.324,4.244,0.973s2.366,1.553,3.274,2.712
		c0.907,1.159,1.61,2.538,2.108,4.136c0.497,1.598,0.747,3.345,0.747,5.243c0,1.91-0.25,3.667-0.747,5.27
		c-0.498,1.603-1.201,2.983-2.108,4.137C17.985,40.55,16.894,41.451,15.619,42.098z M38.714,43.072c-0.39,0-0.707-0.112-0.951-0.334
		c-0.245-0.221-0.427-0.506-0.547-0.856l-1.467-4.99H27.1l-1.467,4.99c-0.1,0.302-0.274,0.574-0.523,0.819
		c-0.25,0.247-0.564,0.371-0.943,0.371h-3.517l8.486-26.145h4.594L42.2,43.072H38.714z M49.675,43.072h-4.07l-8.741-26.145h3.622
		c0.39,0,0.706,0.111,0.95,0.333c0.245,0.223,0.427,0.508,0.547,0.856L47.7,35.3l5.597-17.183c0.1-0.301,0.277-0.574,0.531-0.819
		c0.254-0.247,0.57-0.37,0.949-0.37h3.638L49.675,43.072z"/>
</g>
</svg>
