<?xml version="1.0" encoding="utf-8"?>
<!-- Generator: Adobe Illustrator 16.0.0, SVG Export Plug-In . SVG Version: 6.00 Build 0)  -->
<!DOCTYPE svg PUBLIC "-//W3C//DTD SVG 1.1//EN" "http://www.w3.org/Graphics/SVG/1.1/DTD/svg11.dtd">
<svg version="1.1" id="Layer_2" xmlns="http://www.w3.org/2000/svg" xmlns:xlink="http://www.w3.org/1999/xlink" x="0px" y="0px"
	 width="60px" height="60px" viewBox="0 0 60 60" enable-background="new 0 0 60 60" xml:space="preserve">
<g>
	<path d="M53.277,5.083L60,12.312L45.366,28.2l-6.722-7.227L53.277,5.083z"/>
	<path d="M36.271,23.236l6.722,7.23h-6.72L36.271,23.236z"/>
</g>
<path d="M39.238,6.004c-4.385,0-7.219,1.285-9.021,3.177c-1.768-2.168-4.696-3.683-9.46-3.683H0v44.733h20.759
	c3.443,0,6.578,2.747,6.578,5.765V56.5h5.325c0-3.016,3.133-5.762,6.576-5.762H60V27.672h-5.325v16.996H39.238
	c-2.41,0-4.678,0.759-6.577,2.036V17.84c0-3.038,0.503-5.766,6.577-5.766 M27.337,17.839v28.359
	c-1.898-1.278-4.167-2.035-6.578-2.035H5.325V11.568h15.434c6.074,0,6.578,2.728,6.578,5.766V17.839z"/>
</svg>
