<?xml version="1.0" encoding="utf-8"?>
<!-- Generator: Adobe Illustrator 16.0.0, SVG Export Plug-In . SVG Version: 6.00 Build 0)  -->
<!DOCTYPE svg PUBLIC "-//W3C//DTD SVG 1.1//EN" "http://www.w3.org/Graphics/SVG/1.1/DTD/svg11.dtd">
<svg version="1.1" id="Layer_2" xmlns="http://www.w3.org/2000/svg" xmlns:xlink="http://www.w3.org/1999/xlink" x="0px" y="0px"
	 width="60px" height="60px" viewBox="0 0 60 60" enable-background="new 0 0 60 60" xml:space="preserve">
<g>
	<circle cx="30" cy="16.075" r="14.92"/>
	<path d="M45.336,31.432c-4.02,3.754-9.4,6.069-15.335,6.069c-5.934,0-11.316-2.315-15.335-6.069
		C6.108,34.617,0.001,42.835,0.001,52.499V60h60v-7.501C60.001,42.835,53.895,34.617,45.336,31.432z M48.084,53.041L48.084,53.041
		H31c-2.704,0-4.896-2.191-4.896-4.896c0-2.703,2.192-4.896,4.896-4.896h17.083h0.001c2.703,0,4.895,2.192,4.895,4.896
		C52.979,50.85,50.787,53.041,48.084,53.041z"/>
</g>
</svg>
