<?xml version="1.0" encoding="utf-8"?>
<!-- Generator: Adobe Illustrator 16.0.0, SVG Export Plug-In . SVG Version: 6.00 Build 0)  -->
<!DOCTYPE svg PUBLIC "-//W3C//DTD SVG 1.1//EN" "http://www.w3.org/Graphics/SVG/1.1/DTD/svg11.dtd">
<svg version="1.1" id="Layer_2" xmlns="http://www.w3.org/2000/svg" xmlns:xlink="http://www.w3.org/1999/xlink" x="0px" y="0px"
	 width="60px" height="60px" viewBox="0 0 60 60" enable-background="new 0 0 60 60" xml:space="preserve">
<path d="M59.841,59.927H0.159v-8.329c0-9.545,6.023-18.2,14.987-21.536l1.429-0.532l1.114,1.041
	c3.366,3.145,7.738,4.876,12.311,4.876c4.573,0,8.945-1.731,12.311-4.875l1.114-1.042l1.43,0.532
	c8.964,3.337,14.986,11.991,14.986,21.536V59.927z M5.091,54.995h49.818v-3.397c0-7.016-4.146-13.419-10.451-16.359
	c-4.094,3.325-9.169,5.14-14.458,5.14c-5.289,0-10.363-1.813-14.458-5.14c-6.306,2.94-10.451,9.344-10.451,16.359V54.995z M30,1.538
	c-8.126,0-14.716,6.592-14.716,14.719c0,8.129,6.59,14.718,14.716,14.718c8.129,0,14.719-6.589,14.719-14.718S38.129,1.538,30,1.538
	z M30,25.517c-5.113,0-9.259-4.145-9.259-9.26c0-5.115,4.145-9.26,9.259-9.26c5.111,0,9.26,4.145,9.26,9.26
	C39.26,21.372,35.111,25.517,30,25.517z"/>
</svg>
